<?xml version="1.0" encoding="utf-8"?>
<svg xmlns="http://www.w3.org/2000/svg" xmlns:xlink="http://www.w3.org/1999/xlink" width="1000" height="1000" viewBox="0 0 4000 4000">
<defs>
  <clipPath id="clip0900">
    <rect x="0" y="0" width="4000" height="4000"/>
  </clipPath>
</defs>
<polygon clip-path="url(#clip0900)" points="
0,4000 4000,4000 4000,0 0,0 
  " fill="#ffffff" fill-rule="evenodd" fill-opacity="1"/>
<defs>
  <clipPath id="clip0901">
    <rect x="800" y="400" width="2801" height="2801"/>
  </clipPath>
</defs>
<polygon clip-path="url(#clip0900)" points="
84.7121,3915.29 3952.76,3915.29 3952.76,47.2441 84.7121,47.2441 
  " fill="#ffffff" fill-rule="evenodd" fill-opacity="1"/>
<defs>
  <clipPath id="clip0902">
    <rect x="84" y="47" width="3869" height="3869"/>
  </clipPath>
</defs>
<polyline clip-path="url(#clip0902)" style="stroke:#808080; stroke-width:4; stroke-opacity:1; fill:none" points="
  2015.7,599.822 2017.28,637.391 2021.87,675.176 2029.25,713.159 2039.19,751.325 2051.47,789.659 2065.88,828.144 2082.18,866.764 2100.15,905.503 2119.57,944.346 
  2140.22,983.276 2161.87,1022.28 2184.3,1061.34 2207.29,1100.43 2230.61,1139.55 2254.05,1178.68 2277.37,1217.81 2300.36,1256.9 2322.8,1295.96 2344.45,1334.96 
  2365.09,1373.89 2384.52,1412.74 2402.49,1451.48 2418.79,1490.1 2433.19,1528.58 2445.47,1566.91 2455.42,1605.08 2462.8,1643.06 2467.39,1680.85 2468.97,1718.42 
  
  "/>
<polyline clip-path="url(#clip0902)" style="stroke:#808080; stroke-width:4; stroke-opacity:1; fill:none" points="
  2015.7,599.822 2014.09,636.332 2009.4,672.991 2001.88,709.789 1991.73,746.714 1979.2,783.756 1964.51,820.902 1947.88,858.143 1929.55,895.466 1909.74,932.862 
  1888.68,970.318 1866.59,1007.82 1843.71,1045.37 1820.26,1082.94 1796.47,1120.53 1772.56,1158.13 1748.77,1195.72 1725.32,1233.29 1702.43,1270.83 1680.35,1308.34 
  1659.28,1345.8 1639.47,1383.19 1621.14,1420.52 1604.51,1457.76 1589.82,1494.9 1577.29,1531.94 1567.15,1568.87 1559.62,1605.67 1554.94,1642.33 1553.33,1678.84 
  
  "/>
<polyline clip-path="url(#clip0902)" style="stroke:#808080; stroke-width:4; stroke-opacity:1; fill:none" points="
  2468.97,1718.42 2470.72,1743.25 2475.82,1767.46 2484.01,1791.09 2495.06,1814.19 2508.7,1836.8 2524.7,1858.98 2542.81,1880.75 2562.77,1902.18 2584.34,1923.31 
  2607.28,1944.19 2631.33,1964.85 2656.24,1985.36 2681.78,2005.74 2707.69,2026.06 2733.72,2046.36 2759.63,2066.67 2785.16,2087.06 2810.08,2107.57 2834.13,2128.23 
  2857.06,2149.11 2878.64,2170.23 2898.6,2191.66 2916.7,2213.44 2932.7,2235.61 2946.35,2258.23 2957.39,2281.32 2965.59,2304.95 2970.69,2329.16 2972.44,2354 
  
  "/>
<polyline clip-path="url(#clip0902)" style="stroke:#808080; stroke-width:4; stroke-opacity:1; fill:none" points="
  2468.97,1718.42 2469.13,1735.52 2469.61,1752.97 2470.38,1770.75 2471.42,1788.82 2472.71,1807.16 2474.22,1825.75 2475.92,1844.56 2477.8,1863.56 2479.83,1882.73 
  2481.99,1902.04 2484.26,1921.47 2486.61,1940.99 2489.01,1960.57 2491.45,1980.19 2493.9,1999.82 2496.34,2019.44 2498.75,2039.03 2501.1,2058.54 2503.36,2077.97 
  2505.52,2097.28 2507.55,2116.45 2509.43,2135.45 2511.14,2154.26 2512.65,2172.85 2513.93,2191.19 2514.97,2209.26 2515.74,2227.04 2516.22,2244.49 2516.39,2261.6 
  
  "/>
<polyline clip-path="url(#clip0902)" style="stroke:#808080; stroke-width:4; stroke-opacity:1; fill:none" points="
  1553.33,1678.84 1551.61,1702.67 1546.62,1725.86 1538.59,1748.44 1527.78,1770.47 1514.42,1791.99 1498.76,1813.06 1481.03,1833.71 1461.49,1854.01 1440.37,1873.99 
  1417.92,1893.71 1394.37,1913.21 1369.98,1932.54 1344.98,1951.75 1319.61,1970.89 1294.13,1990.01 1268.76,2009.15 1243.76,2028.36 1219.37,2047.69 1195.82,2067.19 
  1173.37,2086.91 1152.25,2106.89 1132.7,2127.19 1114.98,2147.84 1099.32,2168.91 1085.96,2190.43 1075.14,2212.46 1067.12,2235.05 1062.13,2258.23 1060.41,2282.07 
  
  "/>
<polyline clip-path="url(#clip0902)" style="stroke:#808080; stroke-width:4; stroke-opacity:1; fill:none" points="
  1553.33,1678.84 1553.19,1699.93 1552.79,1721.45 1552.15,1743.39 1551.29,1765.7 1550.22,1788.35 1548.97,1811.31 1547.56,1834.54 1546,1858.02 1544.31,1881.71 
  1542.52,1905.58 1540.64,1929.59 1538.69,1953.72 1536.7,1977.93 1534.67,2002.19 1532.64,2026.47 1530.61,2050.72 1528.62,2074.93 1526.67,2099.06 1524.79,2123.08 
  1523,2146.95 1521.31,2170.64 1519.75,2194.12 1518.34,2217.35 1517.09,2240.31 1516.02,2262.96 1515.16,2285.27 1514.52,2307.2 1514.12,2328.73 1513.98,2349.82 
  
  "/>
<polyline clip-path="url(#clip0902)" style="stroke:#808080; stroke-width:4; stroke-opacity:1; fill:none" points="
  2972.44,2354 2973.93,2377.93 2978.26,2401.53 2985.23,2424.81 2994.61,2447.8 3006.2,2470.54 3019.79,2493.03 3035.17,2515.32 3052.13,2537.42 3070.46,2559.35 
  3089.95,2581.15 3110.38,2602.84 3131.55,2624.44 3153.24,2645.97 3175.25,2667.47 3197.37,2688.96 3219.38,2710.46 3241.07,2731.99 3262.24,2753.59 3282.67,2775.28 
  3302.16,2797.08 3320.48,2819.01 3337.44,2841.11 3352.83,2863.39 3366.42,2885.89 3378.01,2908.62 3387.39,2931.62 3394.36,2954.9 3398.69,2978.5 3400.18,3002.43 
  
  "/>
<polyline clip-path="url(#clip0902)" style="stroke:#808080; stroke-width:4; stroke-opacity:1; fill:none" points="
  2972.44,2354 2973.05,2379.12 2974.84,2404.63 2977.71,2430.53 2981.58,2456.76 2986.36,2483.31 2991.96,2510.14 2998.3,2537.22 3005.29,2564.53 3012.84,2592.03 
  3020.88,2619.7 3029.3,2647.5 3038.02,2675.4 3046.97,2703.38 3056.04,2731.41 3065.15,2759.45 3074.23,2787.47 3083.17,2815.45 3091.89,2843.36 3100.32,2871.16 
  3108.35,2898.82 3115.9,2926.33 3122.89,2953.63 3129.23,2980.72 3134.84,3007.55 3139.61,3034.1 3143.48,3060.33 3146.35,3086.22 3148.14,3111.74 3148.75,3136.86 
  
  "/>
<polyline clip-path="url(#clip0902)" style="stroke:#808080; stroke-width:4; stroke-opacity:1; fill:none" points="
  2516.39,2261.6 2516.01,2296.3 2514.92,2331.7 2513.16,2367.75 2510.8,2404.4 2507.88,2441.59 2504.45,2479.28 2500.57,2517.4 2496.29,2555.92 2491.67,2594.77 
  2486.76,2633.9 2481.61,2673.27 2476.27,2712.82 2470.8,2752.5 2465.25,2792.26 2459.67,2832.05 2454.12,2871.8 2448.65,2911.48 2443.31,2951.03 2438.16,2990.4 
  2433.25,3029.54 2428.62,3068.39 2424.35,3106.9 2420.47,3145.03 2417.04,3182.71 2414.12,3219.91 2411.75,3256.55 2410,3292.6 2408.9,3328.01 2408.53,3362.71 
  
  "/>
<polyline clip-path="url(#clip0902)" style="stroke:#808080; stroke-width:4; stroke-opacity:1; fill:none" points="
  2516.39,2261.6 2517.29,2287.08 2519.93,2312.82 2524.16,2338.8 2529.86,2365.01 2536.9,2391.41 2545.16,2418 2554.51,2444.76 2564.81,2471.66 2575.95,2498.68 
  2587.79,2525.81 2600.2,2553.03 2613.06,2580.31 2626.24,2607.65 2639.62,2635.01 2653.06,2662.38 2666.43,2689.74 2679.61,2717.07 2692.47,2744.36 2704.89,2771.58 
  2716.73,2798.71 2727.86,2825.73 2738.17,2852.63 2747.51,2879.38 2755.77,2905.97 2762.82,2932.38 2768.52,2958.58 2772.75,2984.57 2775.38,3010.31 2776.29,3035.79 
  
  "/>
<polyline clip-path="url(#clip0902)" style="stroke:#808080; stroke-width:4; stroke-opacity:1; fill:none" points="
  1060.41,2282.07 1058.94,2307.47 1054.65,2332.64 1047.76,2357.6 1038.48,2382.36 1027.01,2406.94 1013.57,2431.36 998.355,2455.63 981.578,2479.77 963.449,2503.8 
  944.174,2527.73 923.963,2551.59 903.022,2575.39 881.562,2599.14 859.789,2622.87 837.912,2646.59 816.139,2670.32 794.679,2694.08 773.739,2717.87 753.527,2741.73 
  734.253,2765.67 716.123,2789.7 699.347,2813.84 684.132,2838.11 670.686,2862.52 659.219,2887.1 649.937,2911.86 643.05,2936.82 638.764,2961.99 637.29,2987.4 
  
  "/>
<polyline clip-path="url(#clip0902)" style="stroke:#808080; stroke-width:4; stroke-opacity:1; fill:none" points="
  1060.41,2282.07 1059.78,2305.99 1057.94,2330.28 1054.99,2354.9 1051,2379.83 1046.08,2405.05 1040.31,2430.52 1033.79,2456.22 1026.59,2482.12 1018.81,2508.19 
  1010.54,2534.42 1001.87,2560.76 992.883,2587.2 983.676,2613.7 974.334,2640.25 964.948,2666.81 955.606,2693.35 946.398,2719.86 937.414,2746.29 928.742,2772.64 
  920.472,2798.86 912.694,2824.93 905.496,2850.84 898.968,2876.53 893.199,2902 888.279,2927.22 884.297,2952.15 881.342,2976.78 879.503,3001.06 878.87,3024.99 
  
  "/>
<polyline clip-path="url(#clip0902)" style="stroke:#808080; stroke-width:4; stroke-opacity:1; fill:none" points="
  1513.98,2349.82 1513.21,2381.1 1510.98,2412.87 1507.38,2445.11 1502.54,2477.78 1496.56,2510.83 1489.54,2544.24 1481.6,2577.96 1472.85,2611.96 1463.39,2646.19 
  1453.33,2680.64 1442.78,2715.24 1431.85,2749.98 1420.65,2784.81 1409.29,2819.7 1397.88,2854.6 1386.52,2889.49 1375.32,2924.32 1364.39,2959.06 1353.84,2993.67 
  1343.78,3028.11 1334.32,3062.35 1325.57,3096.35 1317.63,3130.07 1310.61,3163.47 1304.63,3196.53 1299.79,3229.19 1296.19,3261.43 1293.96,3293.21 1293.19,3324.48 
  
  "/>
<polyline clip-path="url(#clip0902)" style="stroke:#808080; stroke-width:4; stroke-opacity:1; fill:none" points="
  1513.98,2349.82 1514.56,2376.98 1516.23,2404.61 1518.92,2432.68 1522.54,2461.15 1527.02,2489.98 1532.26,2519.15 1538.2,2548.61 1544.75,2578.33 1551.82,2608.29 
  1559.34,2638.43 1567.23,2668.73 1575.4,2699.15 1583.77,2729.65 1592.27,2760.22 1600.81,2790.79 1609.3,2821.35 1617.68,2851.86 1625.85,2882.28 1633.74,2912.58 
  1641.26,2942.72 1648.33,2972.67 1654.88,3002.4 1660.82,3031.86 1666.06,3061.03 1670.54,3089.86 1674.16,3118.33 1676.85,3146.4 1678.52,3174.03 1679.1,3201.19 
  
  "/>
<polygon clip-path="url(#clip0902)" points="
2335.14,599.822 2334.13,594.905 2331.11,590.019 2326.09,585.195 2319.11,580.463 2310.21,575.854 2299.45,571.396 2286.9,567.119 2272.63,563.047 2256.74,559.209 
  2239.32,555.627 2220.49,552.325 2200.37,549.322 2179.07,546.639 2156.75,544.293 2133.53,542.297 2109.57,540.665 2085.01,539.407 2060.02,538.532 2034.74,538.043 
  2009.35,537.945 1983.99,538.239 1958.84,538.921 1934.04,539.989 1909.76,541.435 1886.16,543.25 1863.37,545.423 1841.54,547.94 1820.81,550.785 1801.32,553.939 
  1783.18,557.384 1766.51,561.098 1751.42,565.056 1738,569.233 1726.33,573.605 1716.5,578.141 1708.55,582.816 1702.55,587.597 1698.53,592.456 1696.51,597.361 
  1696.51,602.282 1698.53,607.188 1702.55,612.046 1708.55,616.828 1716.5,621.502 1726.33,626.039 1738,630.41 1751.42,634.588 1766.51,638.546 1783.18,642.259 
  1801.32,645.704 1820.81,648.859 1841.54,651.704 1863.37,654.22 1886.16,656.393 1909.76,658.208 1934.04,659.654 1958.84,660.722 1983.99,661.405 2009.35,661.698 
  2034.74,661.6 2060.02,661.112 2085.01,660.236 2109.57,658.978 2133.53,657.346 2156.75,655.351 2179.07,653.004 2200.37,650.321 2220.49,647.319 2239.32,644.017 
  2256.74,640.435 2272.63,636.596 2286.9,632.525 2299.45,628.247 2310.21,623.789 2319.11,619.18 2326.09,614.449 2331.11,609.625 2334.13,604.739 2335.14,599.822 
  2335.14,599.822 
  " fill="#66ffcc" fill-rule="evenodd" fill-opacity="1"/>
<polyline clip-path="url(#clip0902)" style="stroke:#808080; stroke-width:0; stroke-opacity:0; fill:none" points="
  2335.14,599.822 2334.13,594.905 2331.11,590.019 2326.09,585.195 2319.11,580.463 2310.21,575.854 2299.45,571.396 2286.9,567.119 2272.63,563.047 2256.74,559.209 
  2239.32,555.627 2220.49,552.325 2200.37,549.322 2179.07,546.639 2156.75,544.293 2133.53,542.297 2109.57,540.665 2085.01,539.407 2060.02,538.532 2034.74,538.043 
  2009.35,537.945 1983.99,538.239 1958.84,538.921 1934.04,539.989 1909.76,541.435 1886.16,543.25 1863.37,545.423 1841.54,547.94 1820.81,550.785 1801.32,553.939 
  1783.18,557.384 1766.51,561.098 1751.42,565.056 1738,569.233 1726.33,573.605 1716.5,578.141 1708.55,582.816 1702.55,587.597 1698.53,592.456 1696.51,597.361 
  1696.51,602.282 1698.53,607.188 1702.55,612.046 1708.55,616.828 1716.5,621.502 1726.33,626.039 1738,630.41 1751.42,634.588 1766.51,638.546 1783.18,642.259 
  1801.32,645.704 1820.81,648.859 1841.54,651.704 1863.37,654.22 1886.16,656.393 1909.76,658.208 1934.04,659.654 1958.84,660.722 1983.99,661.405 2009.35,661.698 
  2034.74,661.6 2060.02,661.112 2085.01,660.236 2109.57,658.978 2133.53,657.346 2156.75,655.351 2179.07,653.004 2200.37,650.321 2220.49,647.319 2239.32,644.017 
  2256.74,640.435 2272.63,636.596 2286.9,632.525 2299.45,628.247 2310.21,623.789 2319.11,619.18 2326.09,614.449 2331.11,609.625 2334.13,604.739 2335.14,599.822 
  
  "/>
<polygon clip-path="url(#clip0902)" points="
2806.54,1718.42 2805.47,1713.5 2802.27,1708.61 2796.97,1703.79 2789.6,1699.06 2780.19,1694.45 2768.82,1689.99 2755.56,1685.71 2740.48,1681.64 2723.68,1677.8 
  2705.28,1674.22 2685.38,1670.92 2664.11,1667.92 2641.61,1665.23 2618.02,1662.89 2593.48,1660.89 2568.16,1659.26 2542.21,1658 2515.8,1657.13 2489.09,1656.64 
  2462.25,1656.54 2435.46,1656.83 2408.88,1657.52 2382.68,1658.58 2357.02,1660.03 2332.07,1661.85 2307.99,1664.02 2284.92,1666.54 2263.02,1669.38 2242.42,1672.53 
  2223.26,1675.98 2205.64,1679.69 2189.69,1683.65 2175.51,1687.83 2163.18,1692.2 2152.79,1696.74 2144.39,1701.41 2138.05,1706.19 2133.79,1711.05 2131.66,1715.96 
  2131.66,1720.88 2133.79,1725.78 2138.05,1730.64 2144.39,1735.42 2152.79,1740.1 2163.18,1744.63 2175.51,1749.01 2189.69,1753.18 2205.64,1757.14 2223.26,1760.85 
  2242.42,1764.3 2263.02,1767.45 2284.92,1770.3 2307.99,1772.82 2332.07,1774.99 2357.02,1776.8 2382.68,1778.25 2408.88,1779.32 2435.46,1780 2462.25,1780.29 
  2489.09,1780.2 2515.8,1779.71 2542.21,1778.83 2568.16,1777.57 2593.48,1775.94 2618.02,1773.95 2641.61,1771.6 2664.11,1768.92 2685.38,1765.91 2705.28,1762.61 
  2723.68,1759.03 2740.48,1755.19 2755.56,1751.12 2768.82,1746.84 2780.19,1742.38 2789.6,1737.78 2796.97,1733.04 2802.27,1728.22 2805.47,1723.33 2806.54,1718.42 
  2806.54,1718.42 
  " fill="#66ffcc" fill-rule="evenodd" fill-opacity="1"/>
<polyline clip-path="url(#clip0902)" style="stroke:#808080; stroke-width:0; stroke-opacity:0; fill:none" points="
  2806.54,1718.42 2805.47,1713.5 2802.27,1708.61 2796.97,1703.79 2789.6,1699.06 2780.19,1694.45 2768.82,1689.99 2755.56,1685.71 2740.48,1681.64 2723.68,1677.8 
  2705.28,1674.22 2685.38,1670.92 2664.11,1667.92 2641.61,1665.23 2618.02,1662.89 2593.48,1660.89 2568.16,1659.26 2542.21,1658 2515.8,1657.13 2489.09,1656.64 
  2462.25,1656.54 2435.46,1656.83 2408.88,1657.52 2382.68,1658.58 2357.02,1660.03 2332.07,1661.85 2307.99,1664.02 2284.92,1666.54 2263.02,1669.38 2242.42,1672.53 
  2223.26,1675.98 2205.64,1679.69 2189.69,1683.65 2175.51,1687.83 2163.18,1692.2 2152.79,1696.74 2144.39,1701.41 2138.05,1706.19 2133.79,1711.05 2131.66,1715.96 
  2131.66,1720.88 2133.79,1725.78 2138.05,1730.64 2144.39,1735.42 2152.79,1740.1 2163.18,1744.63 2175.51,1749.01 2189.69,1753.18 2205.64,1757.14 2223.26,1760.85 
  2242.42,1764.3 2263.02,1767.45 2284.92,1770.3 2307.99,1772.82 2332.07,1774.99 2357.02,1776.8 2382.68,1778.25 2408.88,1779.32 2435.46,1780 2462.25,1780.29 
  2489.09,1780.2 2515.8,1779.71 2542.21,1778.83 2568.16,1777.57 2593.48,1775.94 2618.02,1773.95 2641.61,1771.6 2664.11,1768.92 2685.38,1765.91 2705.28,1762.61 
  2723.68,1759.03 2740.48,1755.19 2755.56,1751.12 2768.82,1746.84 2780.19,1742.38 2789.6,1737.78 2796.97,1733.04 2802.27,1728.22 2805.47,1723.33 2806.54,1718.42 
  
  "/>
<polygon clip-path="url(#clip0902)" points="
1854.38,1678.84 1853.43,1673.92 1850.58,1669.03 1845.85,1664.21 1839.28,1659.48 1830.89,1654.87 1820.75,1650.41 1808.92,1646.13 1795.47,1642.06 1780.49,1638.22 
  1764.08,1634.64 1746.33,1631.34 1727.37,1628.34 1707.3,1625.65 1686.26,1623.31 1664.38,1621.31 1641.79,1619.68 1618.65,1618.42 1595.09,1617.55 1571.28,1617.06 
  1547.34,1616.96 1523.45,1617.25 1499.74,1617.94 1476.37,1619 1453.49,1620.45 1431.24,1622.26 1409.76,1624.44 1389.19,1626.95 1369.66,1629.8 1351.29,1632.95 
  1334.2,1636.4 1318.49,1640.11 1304.26,1644.07 1291.61,1648.25 1280.62,1652.62 1271.35,1657.16 1263.86,1661.83 1258.2,1666.61 1254.41,1671.47 1252.51,1676.38 
  1252.51,1681.3 1254.41,1686.2 1258.2,1691.06 1263.86,1695.84 1271.35,1700.52 1280.62,1705.05 1291.61,1709.42 1304.26,1713.6 1318.49,1717.56 1334.2,1721.27 
  1351.29,1724.72 1369.66,1727.87 1389.19,1730.72 1409.76,1733.23 1431.24,1735.41 1453.49,1737.22 1476.37,1738.67 1499.74,1739.74 1523.45,1740.42 1547.34,1740.71 
  1571.28,1740.61 1595.09,1740.13 1618.65,1739.25 1641.79,1737.99 1664.38,1736.36 1686.26,1734.37 1707.3,1732.02 1727.37,1729.34 1746.33,1726.33 1764.08,1723.03 
  1780.49,1719.45 1795.47,1715.61 1808.92,1711.54 1820.75,1707.26 1830.89,1702.8 1839.28,1698.19 1845.85,1693.46 1850.58,1688.64 1853.43,1683.75 1854.38,1678.84 
  1854.38,1678.84 
  " fill="#66ffcc" fill-rule="evenodd" fill-opacity="1"/>
<polyline clip-path="url(#clip0902)" style="stroke:#808080; stroke-width:0; stroke-opacity:0; fill:none" points="
  1854.38,1678.84 1853.43,1673.92 1850.58,1669.03 1845.85,1664.21 1839.28,1659.48 1830.89,1654.87 1820.75,1650.41 1808.92,1646.13 1795.47,1642.06 1780.49,1638.22 
  1764.08,1634.64 1746.33,1631.34 1727.37,1628.34 1707.3,1625.65 1686.26,1623.31 1664.38,1621.31 1641.79,1619.68 1618.65,1618.42 1595.09,1617.55 1571.28,1617.06 
  1547.34,1616.96 1523.45,1617.25 1499.74,1617.94 1476.37,1619 1453.49,1620.45 1431.24,1622.26 1409.76,1624.44 1389.19,1626.95 1369.66,1629.8 1351.29,1632.95 
  1334.2,1636.4 1318.49,1640.11 1304.26,1644.07 1291.61,1648.25 1280.62,1652.62 1271.35,1657.16 1263.86,1661.83 1258.2,1666.61 1254.41,1671.47 1252.51,1676.38 
  1252.51,1681.3 1254.41,1686.2 1258.2,1691.06 1263.86,1695.84 1271.35,1700.52 1280.62,1705.05 1291.61,1709.42 1304.26,1713.6 1318.49,1717.56 1334.2,1721.27 
  1351.29,1724.72 1369.66,1727.87 1389.19,1730.72 1409.76,1733.23 1431.24,1735.41 1453.49,1737.22 1476.37,1738.67 1499.74,1739.74 1523.45,1740.42 1547.34,1740.71 
  1571.28,1740.61 1595.09,1740.13 1618.65,1739.25 1641.79,1737.99 1664.38,1736.36 1686.26,1734.37 1707.3,1732.02 1727.37,1729.34 1746.33,1726.33 1764.08,1723.03 
  1780.49,1719.45 1795.47,1715.61 1808.92,1711.54 1820.75,1707.26 1830.89,1702.8 1839.28,1698.19 1845.85,1693.46 1850.58,1688.64 1853.43,1683.75 1854.38,1678.84 
  
  "/>
<polygon clip-path="url(#clip0902)" points="
3310.01,2354 3308.94,2349.08 3305.75,2344.2 3300.45,2339.37 3293.07,2334.64 3283.67,2330.03 3272.3,2325.58 3259.03,2321.3 3243.95,2317.23 3227.16,2313.39 
  3208.75,2309.81 3188.85,2306.5 3167.59,2303.5 3145.09,2300.82 3121.49,2298.47 3096.96,2296.48 3071.64,2294.84 3045.69,2293.59 3019.27,2292.71 2992.56,2292.22 
  2965.73,2292.12 2938.93,2292.42 2912.35,2293.1 2886.15,2294.17 2860.5,2295.61 2835.55,2297.43 2811.46,2299.6 2788.4,2302.12 2766.5,2304.96 2745.9,2308.12 
  2726.73,2311.56 2709.12,2315.28 2693.17,2319.23 2678.98,2323.41 2666.66,2327.78 2656.26,2332.32 2647.86,2336.99 2641.52,2341.78 2637.27,2346.63 2635.14,2351.54 
  2635.14,2356.46 2637.27,2361.37 2641.52,2366.23 2647.86,2371.01 2656.26,2375.68 2666.66,2380.22 2678.98,2384.59 2693.17,2388.77 2709.12,2392.72 2726.73,2396.44 
  2745.9,2399.88 2766.5,2403.04 2788.4,2405.88 2811.46,2408.4 2835.55,2410.57 2860.5,2412.39 2886.15,2413.83 2912.35,2414.9 2938.93,2415.58 2965.73,2415.88 
  2992.56,2415.78 3019.27,2415.29 3045.69,2414.41 3071.64,2413.16 3096.96,2411.53 3121.49,2409.53 3145.09,2407.18 3167.59,2404.5 3188.85,2401.5 3208.75,2398.2 
  3227.16,2394.61 3243.95,2390.77 3259.03,2386.7 3272.3,2382.43 3283.67,2377.97 3293.07,2373.36 3300.45,2368.63 3305.75,2363.8 3308.94,2358.92 3310.01,2354 
  3310.01,2354 
  " fill="#66ffcc" fill-rule="evenodd" fill-opacity="1"/>
<polyline clip-path="url(#clip0902)" style="stroke:#808080; stroke-width:0; stroke-opacity:0; fill:none" points="
  3310.01,2354 3308.94,2349.08 3305.75,2344.2 3300.45,2339.37 3293.07,2334.64 3283.67,2330.03 3272.3,2325.58 3259.03,2321.3 3243.95,2317.23 3227.16,2313.39 
  3208.75,2309.81 3188.85,2306.5 3167.59,2303.5 3145.09,2300.82 3121.49,2298.47 3096.96,2296.48 3071.64,2294.84 3045.69,2293.59 3019.27,2292.71 2992.56,2292.22 
  2965.73,2292.12 2938.93,2292.42 2912.35,2293.1 2886.15,2294.17 2860.5,2295.61 2835.55,2297.43 2811.46,2299.6 2788.4,2302.12 2766.5,2304.96 2745.9,2308.12 
  2726.73,2311.56 2709.12,2315.28 2693.17,2319.23 2678.98,2323.41 2666.66,2327.78 2656.26,2332.32 2647.86,2336.99 2641.52,2341.78 2637.27,2346.63 2635.14,2351.54 
  2635.14,2356.46 2637.27,2361.37 2641.52,2366.23 2647.86,2371.01 2656.26,2375.68 2666.66,2380.22 2678.98,2384.59 2693.17,2388.77 2709.12,2392.72 2726.73,2396.44 
  2745.9,2399.88 2766.5,2403.04 2788.4,2405.88 2811.46,2408.4 2835.55,2410.57 2860.5,2412.39 2886.15,2413.83 2912.35,2414.9 2938.93,2415.58 2965.73,2415.88 
  2992.56,2415.78 3019.27,2415.29 3045.69,2414.41 3071.64,2413.16 3096.96,2411.53 3121.49,2409.53 3145.09,2407.18 3167.59,2404.5 3188.85,2401.5 3208.75,2398.2 
  3227.16,2394.61 3243.95,2390.77 3259.03,2386.7 3272.3,2382.43 3283.67,2377.97 3293.07,2373.36 3300.45,2368.63 3305.75,2363.8 3308.94,2358.92 3310.01,2354 
  
  "/>
<polygon clip-path="url(#clip0902)" points="
2835.83,2261.6 2834.82,2256.68 2831.8,2251.79 2826.78,2246.97 2819.8,2242.24 2810.9,2237.63 2800.14,2233.17 2787.59,2228.89 2773.32,2224.82 2757.43,2220.98 
  2740.01,2217.4 2721.18,2214.1 2701.06,2211.1 2679.76,2208.41 2657.44,2206.07 2634.22,2204.07 2610.26,2202.44 2585.7,2201.18 2560.71,2200.31 2535.43,2199.82 
  2510.04,2199.72 2484.68,2200.01 2459.53,2200.7 2434.73,2201.76 2410.46,2203.21 2386.85,2205.02 2364.06,2207.2 2342.23,2209.71 2321.5,2212.56 2302.01,2215.71 
  2283.87,2219.16 2267.2,2222.87 2252.11,2226.83 2238.69,2231.01 2227.02,2235.38 2217.19,2239.92 2209.24,2244.59 2203.24,2249.37 2199.22,2254.23 2197.2,2259.14 
  2197.2,2264.06 2199.22,2268.96 2203.24,2273.82 2209.24,2278.6 2217.19,2283.28 2227.02,2287.81 2238.69,2292.18 2252.11,2296.36 2267.2,2300.32 2283.87,2304.03 
  2302.01,2307.48 2321.5,2310.63 2342.23,2313.48 2364.06,2315.99 2386.85,2318.17 2410.46,2319.98 2434.73,2321.43 2459.53,2322.5 2484.68,2323.18 2510.04,2323.47 
  2535.43,2323.37 2560.71,2322.89 2585.7,2322.01 2610.26,2320.75 2634.22,2319.12 2657.44,2317.13 2679.76,2314.78 2701.06,2312.1 2721.18,2309.09 2740.01,2305.79 
  2757.43,2302.21 2773.32,2298.37 2787.59,2294.3 2800.14,2290.02 2810.9,2285.56 2819.8,2280.95 2826.78,2276.22 2831.8,2271.4 2834.82,2266.51 2835.83,2261.6 
  2835.83,2261.6 
  " fill="#66ffcc" fill-rule="evenodd" fill-opacity="1"/>
<polyline clip-path="url(#clip0902)" style="stroke:#808080; stroke-width:0; stroke-opacity:0; fill:none" points="
  2835.83,2261.6 2834.82,2256.68 2831.8,2251.79 2826.78,2246.97 2819.8,2242.24 2810.9,2237.63 2800.14,2233.17 2787.59,2228.89 2773.32,2224.82 2757.43,2220.98 
  2740.01,2217.4 2721.18,2214.1 2701.06,2211.1 2679.76,2208.41 2657.44,2206.07 2634.22,2204.07 2610.26,2202.44 2585.7,2201.18 2560.71,2200.31 2535.43,2199.82 
  2510.04,2199.72 2484.68,2200.01 2459.53,2200.7 2434.73,2201.76 2410.46,2203.21 2386.85,2205.02 2364.06,2207.2 2342.23,2209.71 2321.5,2212.56 2302.01,2215.71 
  2283.87,2219.16 2267.2,2222.87 2252.11,2226.83 2238.69,2231.01 2227.02,2235.38 2217.19,2239.92 2209.24,2244.59 2203.24,2249.37 2199.22,2254.23 2197.2,2259.14 
  2197.2,2264.06 2199.22,2268.96 2203.24,2273.82 2209.24,2278.6 2217.19,2283.28 2227.02,2287.81 2238.69,2292.18 2252.11,2296.36 2267.2,2300.32 2283.87,2304.03 
  2302.01,2307.48 2321.5,2310.63 2342.23,2313.48 2364.06,2315.99 2386.85,2318.17 2410.46,2319.98 2434.73,2321.43 2459.53,2322.5 2484.68,2323.18 2510.04,2323.47 
  2535.43,2323.37 2560.71,2322.89 2585.7,2322.01 2610.26,2320.75 2634.22,2319.12 2657.44,2317.13 2679.76,2314.78 2701.06,2312.1 2721.18,2309.09 2740.01,2305.79 
  2757.43,2302.21 2773.32,2298.37 2787.59,2294.3 2800.14,2290.02 2810.9,2285.56 2819.8,2280.95 2826.78,2276.22 2831.8,2271.4 2834.82,2266.51 2835.83,2261.6 
  
  "/>
<polygon clip-path="url(#clip0902)" points="
1379.85,2282.07 1378.84,2277.15 1375.82,2272.26 1370.8,2267.44 1363.83,2262.71 1354.93,2258.1 1344.17,2253.64 1331.61,2249.36 1317.34,2245.29 1301.45,2241.45 
  1284.04,2237.87 1265.2,2234.57 1245.08,2231.57 1223.79,2228.88 1201.46,2226.54 1178.24,2224.54 1154.28,2222.91 1129.72,2221.65 1104.73,2220.77 1079.46,2220.29 
  1054.06,2220.19 1028.71,2220.48 1003.55,2221.16 978.756,2222.23 954.478,2223.68 930.869,2225.49 908.079,2227.67 886.253,2230.18 865.527,2233.03 846.034,2236.18 
  827.895,2239.63 811.227,2243.34 796.135,2247.3 782.713,2251.48 771.047,2255.85 761.21,2260.38 753.265,2265.06 747.262,2269.84 743.239,2274.7 741.221,2279.6 
  741.221,2284.53 743.239,2289.43 747.262,2294.29 753.265,2299.07 761.21,2303.75 771.047,2308.28 782.713,2312.65 796.135,2316.83 811.227,2320.79 827.895,2324.5 
  846.034,2327.95 865.527,2331.1 886.253,2333.95 908.079,2336.46 930.869,2338.64 954.478,2340.45 978.756,2341.9 1003.55,2342.97 1028.71,2343.65 1054.06,2343.94 
  1079.46,2343.84 1104.73,2343.36 1129.72,2342.48 1154.28,2341.22 1178.24,2339.59 1201.46,2337.59 1223.79,2335.25 1245.08,2332.56 1265.2,2329.56 1284.04,2326.26 
  1301.45,2322.68 1317.34,2318.84 1331.61,2314.77 1344.17,2310.49 1354.93,2306.03 1363.83,2301.42 1370.8,2296.69 1375.82,2291.87 1378.84,2286.98 1379.85,2282.07 
  1379.85,2282.07 
  " fill="#66ffcc" fill-rule="evenodd" fill-opacity="1"/>
<polyline clip-path="url(#clip0902)" style="stroke:#808080; stroke-width:0; stroke-opacity:0; fill:none" points="
  1379.85,2282.07 1378.84,2277.15 1375.82,2272.26 1370.8,2267.44 1363.83,2262.71 1354.93,2258.1 1344.17,2253.64 1331.61,2249.36 1317.34,2245.29 1301.45,2241.45 
  1284.04,2237.87 1265.2,2234.57 1245.08,2231.57 1223.79,2228.88 1201.46,2226.54 1178.24,2224.54 1154.28,2222.91 1129.72,2221.65 1104.73,2220.77 1079.46,2220.29 
  1054.06,2220.19 1028.71,2220.48 1003.55,2221.16 978.756,2222.23 954.478,2223.68 930.869,2225.49 908.079,2227.67 886.253,2230.18 865.527,2233.03 846.034,2236.18 
  827.895,2239.63 811.227,2243.34 796.135,2247.3 782.713,2251.48 771.047,2255.85 761.21,2260.38 753.265,2265.06 747.262,2269.84 743.239,2274.7 741.221,2279.6 
  741.221,2284.53 743.239,2289.43 747.262,2294.29 753.265,2299.07 761.21,2303.75 771.047,2308.28 782.713,2312.65 796.135,2316.83 811.227,2320.79 827.895,2324.5 
  846.034,2327.95 865.527,2331.1 886.253,2333.95 908.079,2336.46 930.869,2338.64 954.478,2340.45 978.756,2341.9 1003.55,2342.97 1028.71,2343.65 1054.06,2343.94 
  1079.46,2343.84 1104.73,2343.36 1129.72,2342.48 1154.28,2341.22 1178.24,2339.59 1201.46,2337.59 1223.79,2335.25 1245.08,2332.56 1265.2,2329.56 1284.04,2326.26 
  1301.45,2322.68 1317.34,2318.84 1331.61,2314.77 1344.17,2310.49 1354.93,2306.03 1363.83,2301.42 1370.8,2296.69 1375.82,2291.87 1378.84,2286.98 1379.85,2282.07 
  
  "/>
<polygon clip-path="url(#clip0902)" points="
1833.43,2349.82 1832.42,2344.9 1829.39,2340.02 1824.38,2335.19 1817.4,2330.46 1808.5,2325.85 1797.74,2321.39 1785.18,2317.12 1770.92,2313.05 1755.02,2309.21 
  1737.61,2305.63 1718.78,2302.32 1698.65,2299.32 1677.36,2296.64 1655.03,2294.29 1631.81,2292.3 1607.85,2290.66 1583.3,2289.41 1558.3,2288.53 1533.03,2288.04 
  1507.63,2287.94 1482.28,2288.24 1457.12,2288.92 1432.33,2289.99 1408.05,2291.43 1384.44,2293.25 1361.65,2295.42 1339.82,2297.94 1319.1,2300.78 1299.6,2303.94 
  1281.47,2307.38 1264.8,2311.1 1249.71,2315.05 1236.28,2319.23 1224.62,2323.6 1214.78,2328.14 1206.84,2332.81 1200.83,2337.6 1196.81,2342.45 1194.79,2347.36 
  1194.79,2352.28 1196.81,2357.19 1200.83,2362.04 1206.84,2366.83 1214.78,2371.5 1224.62,2376.04 1236.28,2380.41 1249.71,2384.59 1264.8,2388.54 1281.47,2392.26 
  1299.6,2395.7 1319.1,2398.86 1339.82,2401.7 1361.65,2404.22 1384.44,2406.39 1408.05,2408.21 1432.33,2409.65 1457.12,2410.72 1482.28,2411.4 1507.63,2411.7 
  1533.03,2411.6 1558.3,2411.11 1583.3,2410.23 1607.85,2408.98 1631.81,2407.34 1655.03,2405.35 1677.36,2403 1698.65,2400.32 1718.78,2397.32 1737.61,2394.01 
  1755.02,2390.43 1770.92,2386.59 1785.18,2382.52 1797.74,2378.25 1808.5,2373.79 1817.4,2369.18 1824.38,2364.45 1829.39,2359.62 1832.42,2354.74 1833.43,2349.82 
  1833.43,2349.82 
  " fill="#66ffcc" fill-rule="evenodd" fill-opacity="1"/>
<polyline clip-path="url(#clip0902)" style="stroke:#808080; stroke-width:0; stroke-opacity:0; fill:none" points="
  1833.43,2349.82 1832.42,2344.9 1829.39,2340.02 1824.38,2335.19 1817.4,2330.46 1808.5,2325.85 1797.74,2321.39 1785.18,2317.12 1770.92,2313.05 1755.02,2309.21 
  1737.61,2305.63 1718.78,2302.32 1698.65,2299.32 1677.36,2296.64 1655.03,2294.29 1631.81,2292.3 1607.85,2290.66 1583.3,2289.41 1558.3,2288.53 1533.03,2288.04 
  1507.63,2287.94 1482.28,2288.24 1457.12,2288.92 1432.33,2289.99 1408.05,2291.43 1384.44,2293.25 1361.65,2295.42 1339.82,2297.94 1319.1,2300.78 1299.6,2303.94 
  1281.47,2307.38 1264.8,2311.1 1249.71,2315.05 1236.28,2319.23 1224.62,2323.6 1214.78,2328.14 1206.84,2332.81 1200.83,2337.6 1196.81,2342.45 1194.79,2347.36 
  1194.79,2352.28 1196.81,2357.19 1200.83,2362.04 1206.84,2366.83 1214.78,2371.5 1224.62,2376.04 1236.28,2380.41 1249.71,2384.59 1264.8,2388.54 1281.47,2392.26 
  1299.6,2395.7 1319.1,2398.86 1339.82,2401.7 1361.65,2404.22 1384.44,2406.39 1408.05,2408.21 1432.33,2409.65 1457.12,2410.72 1482.28,2411.4 1507.63,2411.7 
  1533.03,2411.6 1558.3,2411.11 1583.3,2410.23 1607.85,2408.98 1631.81,2407.34 1655.03,2405.35 1677.36,2403 1698.65,2400.32 1718.78,2397.32 1737.61,2394.01 
  1755.02,2390.43 1770.92,2386.59 1785.18,2382.52 1797.74,2378.25 1808.5,2373.79 1817.4,2369.18 1824.38,2364.45 1829.39,2359.62 1832.42,2354.74 1833.43,2349.82 
  
  "/>
<polygon clip-path="url(#clip0902)" points="
3737.75,3002.43 3736.68,2997.51 3733.49,2992.62 3728.19,2987.8 3720.81,2983.07 3711.41,2978.46 3700.04,2974 3686.77,2969.72 3671.69,2965.65 3654.9,2961.81 
  3636.49,2958.23 3616.59,2954.93 3595.32,2951.93 3572.82,2949.24 3549.23,2946.9 3524.7,2944.9 3499.37,2943.27 3473.42,2942.01 3447.01,2941.14 3420.3,2940.65 
  3393.47,2940.55 3366.67,2940.84 3340.09,2941.53 3313.89,2942.59 3288.23,2944.04 3263.28,2945.86 3239.2,2948.03 3216.14,2950.55 3194.23,2953.39 3173.64,2956.54 
  3154.47,2959.99 3136.85,2963.7 3120.9,2967.66 3106.72,2971.84 3094.39,2976.21 3084,2980.75 3075.6,2985.42 3069.26,2990.2 3065.01,2995.06 3062.87,2999.97 
  3062.87,3004.89 3065.01,3009.79 3069.26,3014.65 3075.6,3019.43 3084,3024.11 3094.39,3028.64 3106.72,3033.02 3120.9,3037.19 3136.85,3041.15 3154.47,3044.86 
  3173.64,3048.31 3194.23,3051.46 3216.14,3054.31 3239.2,3056.83 3263.28,3059 3288.23,3060.81 3313.89,3062.26 3340.09,3063.33 3366.67,3064.01 3393.47,3064.3 
  3420.3,3064.21 3447.01,3063.72 3473.42,3062.84 3499.37,3061.58 3524.7,3059.95 3549.23,3057.96 3572.82,3055.61 3595.32,3052.93 3616.59,3049.92 3636.49,3046.62 
  3654.9,3043.04 3671.69,3039.2 3686.77,3035.13 3700.04,3030.85 3711.41,3026.39 3720.81,3021.79 3728.19,3017.05 3733.49,3012.23 3736.68,3007.34 3737.75,3002.43 
  3737.75,3002.43 
  " fill="#66ffcc" fill-rule="evenodd" fill-opacity="1"/>
<polyline clip-path="url(#clip0902)" style="stroke:#808080; stroke-width:0; stroke-opacity:0; fill:none" points="
  3737.75,3002.43 3736.68,2997.51 3733.49,2992.62 3728.19,2987.8 3720.81,2983.07 3711.41,2978.46 3700.04,2974 3686.77,2969.72 3671.69,2965.65 3654.9,2961.81 
  3636.49,2958.23 3616.59,2954.93 3595.32,2951.93 3572.82,2949.24 3549.23,2946.9 3524.7,2944.9 3499.37,2943.27 3473.42,2942.01 3447.01,2941.14 3420.3,2940.65 
  3393.47,2940.55 3366.67,2940.84 3340.09,2941.53 3313.89,2942.59 3288.23,2944.04 3263.28,2945.86 3239.2,2948.03 3216.14,2950.55 3194.23,2953.39 3173.64,2956.54 
  3154.47,2959.99 3136.85,2963.7 3120.9,2967.66 3106.72,2971.84 3094.39,2976.21 3084,2980.75 3075.6,2985.42 3069.26,2990.2 3065.01,2995.06 3062.87,2999.97 
  3062.87,3004.89 3065.01,3009.79 3069.26,3014.65 3075.6,3019.43 3084,3024.11 3094.39,3028.64 3106.72,3033.02 3120.9,3037.19 3136.85,3041.15 3154.47,3044.86 
  3173.64,3048.31 3194.23,3051.46 3216.14,3054.31 3239.2,3056.83 3263.28,3059 3288.23,3060.81 3313.89,3062.26 3340.09,3063.33 3366.67,3064.01 3393.47,3064.3 
  3420.3,3064.21 3447.01,3063.72 3473.42,3062.84 3499.37,3061.58 3524.7,3059.95 3549.23,3057.96 3572.82,3055.61 3595.32,3052.93 3616.59,3049.92 3636.49,3046.62 
  3654.9,3043.04 3671.69,3039.2 3686.77,3035.13 3700.04,3030.85 3711.41,3026.39 3720.81,3021.79 3728.19,3017.05 3733.49,3012.23 3736.68,3007.34 3737.75,3002.43 
  
  "/>
<polygon clip-path="url(#clip0902)" points="
3449.81,3136.86 3448.85,3131.94 3446.01,3127.05 3441.28,3122.23 3434.7,3117.5 3426.31,3112.89 3416.17,3108.43 3404.34,3104.15 3390.9,3100.08 3375.92,3096.24 
  3359.5,3092.66 3341.76,3089.36 3322.79,3086.36 3302.72,3083.67 3281.68,3081.33 3259.8,3079.33 3237.22,3077.7 3214.07,3076.44 3190.52,3075.57 3166.7,3075.08 
  3142.77,3074.98 3118.87,3075.27 3095.16,3075.96 3071.8,3077.02 3048.92,3078.47 3026.67,3080.28 3005.19,3082.46 2984.62,3084.97 2965.09,3087.82 2946.71,3090.97 
  2929.62,3094.42 2913.91,3098.13 2899.69,3102.09 2887.04,3106.27 2876.04,3110.64 2866.77,3115.18 2859.29,3119.85 2853.63,3124.63 2849.84,3129.49 2847.93,3134.4 
  2847.93,3139.32 2849.84,3144.22 2853.63,3149.08 2859.29,3153.86 2866.77,3158.54 2876.04,3163.07 2887.04,3167.44 2899.69,3171.62 2913.91,3175.58 2929.62,3179.29 
  2946.71,3182.74 2965.09,3185.89 2984.62,3188.74 3005.19,3191.26 3026.67,3193.43 3048.92,3195.24 3071.8,3196.69 3095.16,3197.76 3118.87,3198.44 3142.77,3198.73 
  3166.7,3198.64 3190.52,3198.15 3214.07,3197.27 3237.22,3196.01 3259.8,3194.38 3281.68,3192.39 3302.72,3190.04 3322.79,3187.36 3341.76,3184.35 3359.5,3181.05 
  3375.92,3177.47 3390.9,3173.63 3404.34,3169.56 3416.17,3165.28 3426.31,3160.82 3434.7,3156.21 3441.28,3151.48 3446.01,3146.66 3448.85,3141.77 3449.81,3136.86 
  3449.81,3136.86 
  " fill="#66ffcc" fill-rule="evenodd" fill-opacity="1"/>
<polyline clip-path="url(#clip0902)" style="stroke:#808080; stroke-width:0; stroke-opacity:0; fill:none" points="
  3449.81,3136.86 3448.85,3131.94 3446.01,3127.05 3441.28,3122.23 3434.7,3117.5 3426.31,3112.89 3416.17,3108.43 3404.34,3104.15 3390.9,3100.08 3375.92,3096.24 
  3359.5,3092.66 3341.76,3089.36 3322.79,3086.36 3302.72,3083.67 3281.68,3081.33 3259.8,3079.33 3237.22,3077.7 3214.07,3076.44 3190.52,3075.57 3166.7,3075.08 
  3142.77,3074.98 3118.87,3075.27 3095.16,3075.96 3071.8,3077.02 3048.92,3078.47 3026.67,3080.28 3005.19,3082.46 2984.62,3084.97 2965.09,3087.82 2946.71,3090.97 
  2929.62,3094.42 2913.91,3098.13 2899.69,3102.09 2887.04,3106.27 2876.04,3110.64 2866.77,3115.18 2859.29,3119.85 2853.63,3124.63 2849.84,3129.49 2847.93,3134.4 
  2847.93,3139.32 2849.84,3144.22 2853.63,3149.08 2859.29,3153.86 2866.77,3158.54 2876.04,3163.07 2887.04,3167.44 2899.69,3171.62 2913.91,3175.58 2929.62,3179.29 
  2946.71,3182.74 2965.09,3185.89 2984.62,3188.74 3005.19,3191.26 3026.67,3193.43 3048.92,3195.24 3071.8,3196.69 3095.16,3197.76 3118.87,3198.44 3142.77,3198.73 
  3166.7,3198.64 3190.52,3198.15 3214.07,3197.27 3237.22,3196.01 3259.8,3194.38 3281.68,3192.39 3302.72,3190.04 3322.79,3187.36 3341.76,3184.35 3359.5,3181.05 
  3375.92,3177.47 3390.9,3173.63 3404.34,3169.56 3416.17,3165.28 3426.31,3160.82 3434.7,3156.21 3441.28,3151.48 3446.01,3146.66 3448.85,3141.77 3449.81,3136.86 
  
  "/>
<polygon clip-path="url(#clip0902)" points="
2690.91,3362.71 2690.02,3357.79 2687.34,3352.91 2682.91,3348.08 2676.74,3343.35 2668.87,3338.74 2659.36,3334.28 2648.27,3330.01 2635.65,3325.94 2621.6,3322.1 
  2606.21,3318.52 2589.56,3315.21 2571.77,3312.21 2552.95,3309.53 2533.21,3307.18 2512.69,3305.19 2491.51,3303.55 2469.8,3302.3 2447.7,3301.42 2425.36,3300.93 
  2402.91,3300.83 2380.5,3301.13 2358.26,3301.81 2336.35,3302.88 2314.88,3304.32 2294.01,3306.14 2273.87,3308.31 2254.57,3310.83 2236.25,3313.67 2219.02,3316.83 
  2202.99,3320.27 2188.25,3323.99 2174.91,3327.94 2163.05,3332.12 2152.74,3336.49 2144.04,3341.03 2137.02,3345.7 2131.71,3350.49 2128.15,3355.34 2126.37,3360.25 
  2126.37,3365.17 2128.15,3370.08 2131.71,3374.93 2137.02,3379.72 2144.04,3384.39 2152.74,3388.93 2163.05,3393.3 2174.91,3397.48 2188.25,3401.43 2202.99,3405.15 
  2219.02,3408.59 2236.25,3411.75 2254.57,3414.59 2273.87,3417.11 2294.01,3419.28 2314.88,3421.1 2336.35,3422.54 2358.26,3423.61 2380.5,3424.29 2402.91,3424.59 
  2425.36,3424.49 2447.7,3424 2469.8,3423.12 2491.51,3421.87 2512.69,3420.23 2533.21,3418.24 2552.95,3415.89 2571.77,3413.21 2589.56,3410.21 2606.21,3406.91 
  2621.6,3403.32 2635.65,3399.48 2648.27,3395.41 2659.36,3391.14 2668.87,3386.68 2676.74,3382.07 2682.91,3377.34 2687.34,3372.51 2690.02,3367.63 2690.91,3362.71 
  2690.91,3362.71 
  " fill="#66ffcc" fill-rule="evenodd" fill-opacity="1"/>
<polyline clip-path="url(#clip0902)" style="stroke:#808080; stroke-width:0; stroke-opacity:0; fill:none" points="
  2690.91,3362.71 2690.02,3357.79 2687.34,3352.91 2682.91,3348.08 2676.74,3343.35 2668.87,3338.74 2659.36,3334.28 2648.27,3330.01 2635.65,3325.94 2621.6,3322.1 
  2606.21,3318.52 2589.56,3315.21 2571.77,3312.21 2552.95,3309.53 2533.21,3307.18 2512.69,3305.19 2491.51,3303.55 2469.8,3302.3 2447.7,3301.42 2425.36,3300.93 
  2402.91,3300.83 2380.5,3301.13 2358.26,3301.81 2336.35,3302.88 2314.88,3304.32 2294.01,3306.14 2273.87,3308.31 2254.57,3310.83 2236.25,3313.67 2219.02,3316.83 
  2202.99,3320.27 2188.25,3323.99 2174.91,3327.94 2163.05,3332.12 2152.74,3336.49 2144.04,3341.03 2137.02,3345.7 2131.71,3350.49 2128.15,3355.34 2126.37,3360.25 
  2126.37,3365.17 2128.15,3370.08 2131.71,3374.93 2137.02,3379.72 2144.04,3384.39 2152.74,3388.93 2163.05,3393.3 2174.91,3397.48 2188.25,3401.43 2202.99,3405.15 
  2219.02,3408.59 2236.25,3411.75 2254.57,3414.59 2273.87,3417.11 2294.01,3419.28 2314.88,3421.1 2336.35,3422.54 2358.26,3423.61 2380.5,3424.29 2402.91,3424.59 
  2425.36,3424.49 2447.7,3424 2469.8,3423.12 2491.51,3421.87 2512.69,3420.23 2533.21,3418.24 2552.95,3415.89 2571.77,3413.21 2589.56,3410.21 2606.21,3406.91 
  2621.6,3403.32 2635.65,3399.48 2648.27,3395.41 2659.36,3391.14 2668.87,3386.68 2676.74,3382.07 2682.91,3377.34 2687.34,3372.51 2690.02,3367.63 2690.91,3362.71 
  
  "/>
<polygon clip-path="url(#clip0902)" points="
3077.34,3035.79 3076.39,3030.87 3073.54,3025.99 3068.81,3021.16 3062.23,3016.43 3053.85,3011.82 3043.71,3007.36 3031.88,3003.09 3018.43,2999.02 3003.45,2995.18 
  2987.04,2991.59 2969.29,2988.29 2950.32,2985.29 2930.26,2982.61 2909.21,2980.26 2887.33,2978.26 2864.75,2976.63 2841.61,2975.38 2818.05,2974.5 2794.23,2974.01 
  2770.3,2973.91 2746.4,2974.21 2722.7,2974.89 2699.33,2975.96 2676.45,2977.4 2654.2,2979.22 2632.72,2981.39 2612.15,2983.91 2592.62,2986.75 2574.25,2989.91 
  2557.15,2993.35 2541.44,2997.07 2527.22,3001.02 2514.57,3005.2 2503.58,3009.57 2494.31,3014.11 2486.82,3018.78 2481.16,3023.56 2477.37,3028.42 2475.47,3033.33 
  2475.47,3038.25 2477.37,3043.16 2481.16,3048.01 2486.82,3052.8 2494.31,3057.47 2503.58,3062.01 2514.57,3066.38 2527.22,3070.56 2541.44,3074.51 2557.15,3078.23 
  2574.25,3081.67 2592.62,3084.83 2612.15,3087.67 2632.72,3090.19 2654.2,3092.36 2676.45,3094.18 2699.33,3095.62 2722.7,3096.69 2746.4,3097.37 2770.3,3097.67 
  2794.23,3097.57 2818.05,3097.08 2841.61,3096.2 2864.75,3094.95 2887.33,3093.31 2909.21,3091.32 2930.26,3088.97 2950.32,3086.29 2969.29,3083.29 2987.04,3079.98 
  3003.45,3076.4 3018.43,3072.56 3031.88,3068.49 3043.71,3064.21 3053.85,3059.76 3062.23,3055.15 3068.81,3050.42 3073.54,3045.59 3076.39,3040.71 3077.34,3035.79 
  3077.34,3035.79 
  " fill="#66ffcc" fill-rule="evenodd" fill-opacity="1"/>
<polyline clip-path="url(#clip0902)" style="stroke:#808080; stroke-width:0; stroke-opacity:0; fill:none" points="
  3077.34,3035.79 3076.39,3030.87 3073.54,3025.99 3068.81,3021.16 3062.23,3016.43 3053.85,3011.82 3043.71,3007.36 3031.88,3003.09 3018.43,2999.02 3003.45,2995.18 
  2987.04,2991.59 2969.29,2988.29 2950.32,2985.29 2930.26,2982.61 2909.21,2980.26 2887.33,2978.26 2864.75,2976.63 2841.61,2975.38 2818.05,2974.5 2794.23,2974.01 
  2770.3,2973.91 2746.4,2974.21 2722.7,2974.89 2699.33,2975.96 2676.45,2977.4 2654.2,2979.22 2632.72,2981.39 2612.15,2983.91 2592.62,2986.75 2574.25,2989.91 
  2557.15,2993.35 2541.44,2997.07 2527.22,3001.02 2514.57,3005.2 2503.58,3009.57 2494.31,3014.11 2486.82,3018.78 2481.16,3023.56 2477.37,3028.42 2475.47,3033.33 
  2475.47,3038.25 2477.37,3043.16 2481.16,3048.01 2486.82,3052.8 2494.31,3057.47 2503.58,3062.01 2514.57,3066.38 2527.22,3070.56 2541.44,3074.51 2557.15,3078.23 
  2574.25,3081.67 2592.62,3084.83 2612.15,3087.67 2632.72,3090.19 2654.2,3092.36 2676.45,3094.18 2699.33,3095.62 2722.7,3096.69 2746.4,3097.37 2770.3,3097.67 
  2794.23,3097.57 2818.05,3097.08 2841.61,3096.2 2864.75,3094.95 2887.33,3093.31 2909.21,3091.32 2930.26,3088.97 2950.32,3086.29 2969.29,3083.29 2987.04,3079.98 
  3003.45,3076.4 3018.43,3072.56 3031.88,3068.49 3043.71,3064.21 3053.85,3059.76 3062.23,3055.15 3068.81,3050.42 3073.54,3045.59 3076.39,3040.71 3077.34,3035.79 
  
  "/>
<polygon clip-path="url(#clip0902)" points="
956.733,2987.4 955.723,2982.48 952.7,2977.6 947.683,2972.77 940.704,2968.04 931.806,2963.43 921.046,2958.97 908.492,2954.7 894.223,2950.62 878.33,2946.79 
  860.914,2943.2 842.083,2939.9 821.957,2936.9 800.664,2934.22 778.339,2931.87 755.121,2929.87 731.158,2928.24 706.602,2926.98 681.608,2926.11 656.333,2925.62 
  630.939,2925.52 605.584,2925.82 580.43,2926.5 555.635,2927.57 531.356,2929.01 507.747,2930.83 484.958,2933 463.131,2935.52 442.405,2938.36 422.912,2941.52 
  404.774,2944.96 388.106,2948.67 373.013,2952.63 359.591,2956.81 347.925,2961.18 338.088,2965.72 330.143,2970.39 324.14,2975.17 320.117,2980.03 318.099,2984.94 
  318.099,2989.86 320.117,2994.76 324.14,2999.62 330.143,3004.41 338.088,3009.08 347.925,3013.62 359.591,3017.99 373.013,3022.17 388.106,3026.12 404.774,3029.84 
  422.912,3033.28 442.405,3036.44 463.131,3039.28 484.958,3041.8 507.747,3043.97 531.356,3045.79 555.635,3047.23 580.43,3048.3 605.584,3048.98 630.939,3049.28 
  656.333,3049.18 681.608,3048.69 706.602,3047.81 731.158,3046.56 755.121,3044.92 778.339,3042.93 800.664,3040.58 821.957,3037.9 842.083,3034.9 860.914,3031.59 
  878.33,3028.01 894.223,3024.17 908.492,3020.1 921.046,3015.82 931.806,3011.37 940.704,3006.76 947.683,3002.03 952.7,2997.2 955.723,2992.32 956.733,2987.4 
  956.733,2987.4 
  " fill="#66ffcc" fill-rule="evenodd" fill-opacity="1"/>
<polyline clip-path="url(#clip0902)" style="stroke:#808080; stroke-width:0; stroke-opacity:0; fill:none" points="
  956.733,2987.4 955.723,2982.48 952.7,2977.6 947.683,2972.77 940.704,2968.04 931.806,2963.43 921.046,2958.97 908.492,2954.7 894.223,2950.62 878.33,2946.79 
  860.914,2943.2 842.083,2939.9 821.957,2936.9 800.664,2934.22 778.339,2931.87 755.121,2929.87 731.158,2928.24 706.602,2926.98 681.608,2926.11 656.333,2925.62 
  630.939,2925.52 605.584,2925.82 580.43,2926.5 555.635,2927.57 531.356,2929.01 507.747,2930.83 484.958,2933 463.131,2935.52 442.405,2938.36 422.912,2941.52 
  404.774,2944.96 388.106,2948.67 373.013,2952.63 359.591,2956.81 347.925,2961.18 338.088,2965.72 330.143,2970.39 324.14,2975.17 320.117,2980.03 318.099,2984.94 
  318.099,2989.86 320.117,2994.76 324.14,2999.62 330.143,3004.41 338.088,3009.08 347.925,3013.62 359.591,3017.99 373.013,3022.17 388.106,3026.12 404.774,3029.84 
  422.912,3033.28 442.405,3036.44 463.131,3039.28 484.958,3041.8 507.747,3043.97 531.356,3045.79 555.635,3047.23 580.43,3048.3 605.584,3048.98 630.939,3049.28 
  656.333,3049.18 681.608,3048.69 706.602,3047.81 731.158,3046.56 755.121,3044.92 778.339,3042.93 800.664,3040.58 821.957,3037.9 842.083,3034.9 860.914,3031.59 
  878.33,3028.01 894.223,3024.17 908.492,3020.1 921.046,3015.82 931.806,3011.37 940.704,3006.76 947.683,3002.03 952.7,2997.2 955.723,2992.32 956.733,2987.4 
  
  "/>
<polygon clip-path="url(#clip0902)" points="
1179.93,3024.99 1178.97,3020.07 1176.12,3015.19 1171.4,3010.36 1164.82,3005.63 1156.43,3001.02 1146.29,2996.56 1134.46,2992.28 1121.01,2988.21 1106.04,2984.38 
  1089.62,2980.79 1071.87,2977.49 1052.91,2974.49 1032.84,2971.81 1011.8,2969.46 989.919,2967.46 967.336,2965.83 944.193,2964.57 920.637,2963.7 896.818,2963.21 
  872.885,2963.11 848.99,2963.4 825.283,2964.09 801.916,2965.16 779.035,2966.6 756.785,2968.42 735.307,2970.59 714.737,2973.11 695.204,2975.95 676.833,2979.11 
  659.739,2982.55 644.03,2986.26 629.806,2990.22 617.157,2994.4 606.162,2998.77 596.892,3003.31 589.404,3007.98 583.747,3012.76 579.955,3017.62 578.053,3022.53 
  578.053,3027.45 579.955,3032.35 583.747,3037.21 589.404,3041.99 596.892,3046.67 606.162,3051.21 617.157,3055.58 629.806,3059.75 644.03,3063.71 659.739,3067.43 
  676.833,3070.87 695.204,3074.03 714.737,3076.87 735.307,3079.39 756.785,3081.56 779.035,3083.37 801.916,3084.82 825.283,3085.89 848.99,3086.57 872.885,3086.86 
  896.818,3086.77 920.637,3086.28 944.193,3085.4 967.336,3084.14 989.919,3082.51 1011.8,3080.52 1032.84,3078.17 1052.91,3075.49 1071.87,3072.49 1089.62,3069.18 
  1106.04,3065.6 1121.01,3061.76 1134.46,3057.69 1146.29,3053.41 1156.43,3048.96 1164.82,3044.35 1171.4,3039.62 1176.12,3034.79 1178.97,3029.91 1179.93,3024.99 
  1179.93,3024.99 
  " fill="#66ffcc" fill-rule="evenodd" fill-opacity="1"/>
<polyline clip-path="url(#clip0902)" style="stroke:#808080; stroke-width:0; stroke-opacity:0; fill:none" points="
  1179.93,3024.99 1178.97,3020.07 1176.12,3015.19 1171.4,3010.36 1164.82,3005.63 1156.43,3001.02 1146.29,2996.56 1134.46,2992.28 1121.01,2988.21 1106.04,2984.38 
  1089.62,2980.79 1071.87,2977.49 1052.91,2974.49 1032.84,2971.81 1011.8,2969.46 989.919,2967.46 967.336,2965.83 944.193,2964.57 920.637,2963.7 896.818,2963.21 
  872.885,2963.11 848.99,2963.4 825.283,2964.09 801.916,2965.16 779.035,2966.6 756.785,2968.42 735.307,2970.59 714.737,2973.11 695.204,2975.95 676.833,2979.11 
  659.739,2982.55 644.03,2986.26 629.806,2990.22 617.157,2994.4 606.162,2998.77 596.892,3003.31 589.404,3007.98 583.747,3012.76 579.955,3017.62 578.053,3022.53 
  578.053,3027.45 579.955,3032.35 583.747,3037.21 589.404,3041.99 596.892,3046.67 606.162,3051.21 617.157,3055.58 629.806,3059.75 644.03,3063.71 659.739,3067.43 
  676.833,3070.87 695.204,3074.03 714.737,3076.87 735.307,3079.39 756.785,3081.56 779.035,3083.37 801.916,3084.82 825.283,3085.89 848.99,3086.57 872.885,3086.86 
  896.818,3086.77 920.637,3086.28 944.193,3085.4 967.336,3084.14 989.919,3082.51 1011.8,3080.52 1032.84,3078.17 1052.91,3075.49 1071.87,3072.49 1089.62,3069.18 
  1106.04,3065.6 1121.01,3061.76 1134.46,3057.69 1146.29,3053.41 1156.43,3048.96 1164.82,3044.35 1171.4,3039.62 1176.12,3034.79 1178.97,3029.91 1179.93,3024.99 
  
  "/>
<polygon clip-path="url(#clip0902)" points="
1594.24,3324.48 1593.29,3319.57 1590.44,3314.68 1585.71,3309.86 1579.14,3305.13 1570.75,3300.52 1560.61,3296.06 1548.78,3291.78 1535.33,3287.71 1520.35,3283.87 
  1503.94,3280.29 1486.19,3276.99 1467.22,3273.99 1447.16,3271.3 1426.12,3268.96 1404.24,3266.96 1381.65,3265.33 1358.51,3264.07 1334.95,3263.19 1311.13,3262.71 
  1287.2,3262.61 1263.31,3262.9 1239.6,3263.58 1216.23,3264.65 1193.35,3266.1 1171.1,3267.91 1149.62,3270.09 1129.05,3272.6 1109.52,3275.45 1091.15,3278.6 
  1074.06,3282.05 1058.35,3285.76 1044.12,3289.72 1031.47,3293.9 1020.48,3298.27 1011.21,3302.8 1003.72,3307.48 998.064,3312.26 994.272,3317.12 992.37,3322.02 
  992.37,3326.95 994.272,3331.85 998.064,3336.71 1003.72,3341.49 1011.21,3346.16 1020.48,3350.7 1031.47,3355.07 1044.12,3359.25 1058.35,3363.21 1074.06,3366.92 
  1091.15,3370.37 1109.52,3373.52 1129.05,3376.37 1149.62,3378.88 1171.1,3381.06 1193.35,3382.87 1216.23,3384.32 1239.6,3385.38 1263.31,3386.07 1287.2,3386.36 
  1311.13,3386.26 1334.95,3385.77 1358.51,3384.9 1381.65,3383.64 1404.24,3382.01 1426.12,3380.01 1447.16,3377.67 1467.22,3374.98 1486.19,3371.98 1503.94,3368.68 
  1520.35,3365.1 1535.33,3361.26 1548.78,3357.19 1560.61,3352.91 1570.75,3348.45 1579.14,3343.84 1585.71,3339.11 1590.44,3334.29 1593.29,3329.4 1594.24,3324.48 
  1594.24,3324.48 
  " fill="#66ffcc" fill-rule="evenodd" fill-opacity="1"/>
<polyline clip-path="url(#clip0902)" style="stroke:#808080; stroke-width:0; stroke-opacity:0; fill:none" points="
  1594.24,3324.48 1593.29,3319.57 1590.44,3314.68 1585.71,3309.86 1579.14,3305.13 1570.75,3300.52 1560.61,3296.06 1548.78,3291.78 1535.33,3287.71 1520.35,3283.87 
  1503.94,3280.29 1486.19,3276.99 1467.22,3273.99 1447.16,3271.3 1426.12,3268.96 1404.24,3266.96 1381.65,3265.33 1358.51,3264.07 1334.95,3263.19 1311.13,3262.71 
  1287.2,3262.61 1263.31,3262.9 1239.6,3263.58 1216.23,3264.65 1193.35,3266.1 1171.1,3267.91 1149.62,3270.09 1129.05,3272.6 1109.52,3275.45 1091.15,3278.6 
  1074.06,3282.05 1058.35,3285.76 1044.12,3289.72 1031.47,3293.9 1020.48,3298.27 1011.21,3302.8 1003.72,3307.48 998.064,3312.26 994.272,3317.12 992.37,3322.02 
  992.37,3326.95 994.272,3331.85 998.064,3336.71 1003.72,3341.49 1011.21,3346.16 1020.48,3350.7 1031.47,3355.07 1044.12,3359.25 1058.35,3363.21 1074.06,3366.92 
  1091.15,3370.37 1109.52,3373.52 1129.05,3376.37 1149.62,3378.88 1171.1,3381.06 1193.35,3382.87 1216.23,3384.32 1239.6,3385.38 1263.31,3386.07 1287.2,3386.36 
  1311.13,3386.26 1334.95,3385.77 1358.51,3384.9 1381.65,3383.64 1404.24,3382.01 1426.12,3380.01 1447.16,3377.67 1467.22,3374.98 1486.19,3371.98 1503.94,3368.68 
  1520.35,3365.1 1535.33,3361.26 1548.78,3357.19 1560.61,3352.91 1570.75,3348.45 1579.14,3343.84 1585.71,3339.11 1590.44,3334.29 1593.29,3329.4 1594.24,3324.48 
  
  "/>
<polygon clip-path="url(#clip0902)" points="
1980.15,3201.19 1979.2,3196.27 1976.35,3191.39 1971.62,3186.56 1965.04,3181.83 1956.66,3177.22 1946.52,3172.76 1934.69,3168.49 1921.24,3164.41 1906.26,3160.58 
  1889.85,3156.99 1872.1,3153.69 1853.13,3150.69 1833.07,3148.01 1812.03,3145.66 1790.14,3143.66 1767.56,3142.03 1744.42,3140.77 1720.86,3139.9 1697.04,3139.41 
  1673.11,3139.31 1649.22,3139.61 1625.51,3140.29 1602.14,3141.36 1579.26,3142.8 1557.01,3144.62 1535.53,3146.79 1514.96,3149.31 1495.43,3152.15 1477.06,3155.31 
  1459.96,3158.75 1444.26,3162.46 1430.03,3166.42 1417.38,3170.6 1406.39,3174.97 1397.12,3179.51 1389.63,3184.18 1383.97,3188.96 1380.18,3193.82 1378.28,3198.73 
  1378.28,3203.65 1380.18,3208.55 1383.97,3213.41 1389.63,3218.19 1397.12,3222.87 1406.39,3227.41 1417.38,3231.78 1430.03,3235.95 1444.26,3239.91 1459.96,3243.63 
  1477.06,3247.07 1495.43,3250.23 1514.96,3253.07 1535.53,3255.59 1557.01,3257.76 1579.26,3259.58 1602.14,3261.02 1625.51,3262.09 1649.22,3262.77 1673.11,3263.07 
  1697.04,3262.97 1720.86,3262.48 1744.42,3261.6 1767.56,3260.35 1790.14,3258.71 1812.03,3256.72 1833.07,3254.37 1853.13,3251.69 1872.1,3248.69 1889.85,3245.38 
  1906.26,3241.8 1921.24,3237.96 1934.69,3233.89 1946.52,3229.61 1956.66,3225.16 1965.04,3220.55 1971.62,3215.82 1976.35,3210.99 1979.2,3206.11 1980.15,3201.19 
  1980.15,3201.19 
  " fill="#66ffcc" fill-rule="evenodd" fill-opacity="1"/>
<polyline clip-path="url(#clip0902)" style="stroke:#808080; stroke-width:0; stroke-opacity:0; fill:none" points="
  1980.15,3201.19 1979.2,3196.27 1976.35,3191.39 1971.62,3186.56 1965.04,3181.83 1956.66,3177.22 1946.52,3172.76 1934.69,3168.49 1921.24,3164.41 1906.26,3160.58 
  1889.85,3156.99 1872.1,3153.69 1853.13,3150.69 1833.07,3148.01 1812.03,3145.66 1790.14,3143.66 1767.56,3142.03 1744.42,3140.77 1720.86,3139.9 1697.04,3139.41 
  1673.11,3139.31 1649.22,3139.61 1625.51,3140.29 1602.14,3141.36 1579.26,3142.8 1557.01,3144.62 1535.53,3146.79 1514.96,3149.31 1495.43,3152.15 1477.06,3155.31 
  1459.96,3158.75 1444.26,3162.46 1430.03,3166.42 1417.38,3170.6 1406.39,3174.97 1397.12,3179.51 1389.63,3184.18 1383.97,3188.96 1380.18,3193.82 1378.28,3198.73 
  1378.28,3203.65 1380.18,3208.55 1383.97,3213.41 1389.63,3218.19 1397.12,3222.87 1406.39,3227.41 1417.38,3231.78 1430.03,3235.95 1444.26,3239.91 1459.96,3243.63 
  1477.06,3247.07 1495.43,3250.23 1514.96,3253.07 1535.53,3255.59 1557.01,3257.76 1579.26,3259.58 1602.14,3261.02 1625.51,3262.09 1649.22,3262.77 1673.11,3263.07 
  1697.04,3262.97 1720.86,3262.48 1744.42,3261.6 1767.56,3260.35 1790.14,3258.71 1812.03,3256.72 1833.07,3254.37 1853.13,3251.69 1872.1,3248.69 1889.85,3245.38 
  1906.26,3241.8 1921.24,3237.96 1934.69,3233.89 1946.52,3229.61 1956.66,3225.16 1965.04,3220.55 1971.62,3215.82 1976.35,3210.99 1979.2,3206.11 1980.15,3201.19 
  
  "/>
<circle clip-path="url(#clip0902)" style="fill:#000000; stroke:none; fill-opacity:0" cx="2015.7" cy="599.822" r="3"/>
<circle clip-path="url(#clip0902)" style="fill:#6b9e32; stroke:none; fill-opacity:0" cx="2015.7" cy="599.822" r="2"/>
<circle clip-path="url(#clip0902)" style="fill:#000000; stroke:none; fill-opacity:0" cx="2468.97" cy="1718.42" r="3"/>
<circle clip-path="url(#clip0902)" style="fill:#6b9e32; stroke:none; fill-opacity:0" cx="2468.97" cy="1718.42" r="2"/>
<circle clip-path="url(#clip0902)" style="fill:#000000; stroke:none; fill-opacity:0" cx="1553.33" cy="1678.84" r="3"/>
<circle clip-path="url(#clip0902)" style="fill:#6b9e32; stroke:none; fill-opacity:0" cx="1553.33" cy="1678.84" r="2"/>
<circle clip-path="url(#clip0902)" style="fill:#000000; stroke:none; fill-opacity:0" cx="2972.44" cy="2354" r="3"/>
<circle clip-path="url(#clip0902)" style="fill:#6b9e32; stroke:none; fill-opacity:0" cx="2972.44" cy="2354" r="2"/>
<circle clip-path="url(#clip0902)" style="fill:#000000; stroke:none; fill-opacity:0" cx="2516.39" cy="2261.6" r="3"/>
<circle clip-path="url(#clip0902)" style="fill:#6b9e32; stroke:none; fill-opacity:0" cx="2516.39" cy="2261.6" r="2"/>
<circle clip-path="url(#clip0902)" style="fill:#000000; stroke:none; fill-opacity:0" cx="1060.41" cy="2282.07" r="3"/>
<circle clip-path="url(#clip0902)" style="fill:#6b9e32; stroke:none; fill-opacity:0" cx="1060.41" cy="2282.07" r="2"/>
<circle clip-path="url(#clip0902)" style="fill:#000000; stroke:none; fill-opacity:0" cx="1513.98" cy="2349.82" r="3"/>
<circle clip-path="url(#clip0902)" style="fill:#6b9e32; stroke:none; fill-opacity:0" cx="1513.98" cy="2349.82" r="2"/>
<circle clip-path="url(#clip0902)" style="fill:#000000; stroke:none; fill-opacity:0" cx="3400.18" cy="3002.43" r="3"/>
<circle clip-path="url(#clip0902)" style="fill:#6b9e32; stroke:none; fill-opacity:0" cx="3400.18" cy="3002.43" r="2"/>
<circle clip-path="url(#clip0902)" style="fill:#000000; stroke:none; fill-opacity:0" cx="3148.75" cy="3136.86" r="3"/>
<circle clip-path="url(#clip0902)" style="fill:#6b9e32; stroke:none; fill-opacity:0" cx="3148.75" cy="3136.86" r="2"/>
<circle clip-path="url(#clip0902)" style="fill:#000000; stroke:none; fill-opacity:0" cx="2408.53" cy="3362.71" r="3"/>
<circle clip-path="url(#clip0902)" style="fill:#6b9e32; stroke:none; fill-opacity:0" cx="2408.53" cy="3362.71" r="2"/>
<circle clip-path="url(#clip0902)" style="fill:#000000; stroke:none; fill-opacity:0" cx="2776.29" cy="3035.79" r="3"/>
<circle clip-path="url(#clip0902)" style="fill:#6b9e32; stroke:none; fill-opacity:0" cx="2776.29" cy="3035.79" r="2"/>
<circle clip-path="url(#clip0902)" style="fill:#000000; stroke:none; fill-opacity:0" cx="637.29" cy="2987.4" r="3"/>
<circle clip-path="url(#clip0902)" style="fill:#6b9e32; stroke:none; fill-opacity:0" cx="637.29" cy="2987.4" r="2"/>
<circle clip-path="url(#clip0902)" style="fill:#000000; stroke:none; fill-opacity:0" cx="878.87" cy="3024.99" r="3"/>
<circle clip-path="url(#clip0902)" style="fill:#6b9e32; stroke:none; fill-opacity:0" cx="878.87" cy="3024.99" r="2"/>
<circle clip-path="url(#clip0902)" style="fill:#000000; stroke:none; fill-opacity:0" cx="1293.19" cy="3324.48" r="3"/>
<circle clip-path="url(#clip0902)" style="fill:#6b9e32; stroke:none; fill-opacity:0" cx="1293.19" cy="3324.48" r="2"/>
<circle clip-path="url(#clip0902)" style="fill:#000000; stroke:none; fill-opacity:0" cx="1679.1" cy="3201.19" r="3"/>
<circle clip-path="url(#clip0902)" style="fill:#6b9e32; stroke:none; fill-opacity:0" cx="1679.1" cy="3201.19" r="2"/>
<g clip-path="url(#clip0900)">
<text style="fill:#000000; fill-opacity:1; font-family:Arial,Helvetica Neue,Helvetica,sans-serif; font-size:41px; text-anchor:middle;" transform="rotate(0, 2015.7, 592.142)" x="2015.7" y="592.142">feat: 1</text>
</g>
<g clip-path="url(#clip0900)">
<text style="fill:#000000; fill-opacity:1; font-family:Arial,Helvetica Neue,Helvetica,sans-serif; font-size:41px; text-anchor:middle;" transform="rotate(0, 2015.7, 637.502)" x="2015.7" y="637.502">&lt; 3.11</text>
</g>
<g clip-path="url(#clip0900)">
<text style="fill:#000000; fill-opacity:1; font-family:Arial,Helvetica Neue,Helvetica,sans-serif; font-size:41px; text-anchor:middle;" transform="rotate(0, 2468.97, 1710.74)" x="2468.97" y="1710.74">feat: 1</text>
</g>
<g clip-path="url(#clip0900)">
<text style="fill:#000000; fill-opacity:1; font-family:Arial,Helvetica Neue,Helvetica,sans-serif; font-size:41px; text-anchor:middle;" transform="rotate(0, 2468.97, 1756.1)" x="2468.97" y="1756.1">&lt; 0.601</text>
</g>
<g clip-path="url(#clip0900)">
<text style="fill:#000000; fill-opacity:1; font-family:Arial,Helvetica Neue,Helvetica,sans-serif; font-size:41px; text-anchor:middle;" transform="rotate(0, 1553.33, 1671.16)" x="1553.33" y="1671.16">feat: 1</text>
</g>
<g clip-path="url(#clip0900)">
<text style="fill:#000000; fill-opacity:1; font-family:Arial,Helvetica Neue,Helvetica,sans-serif; font-size:41px; text-anchor:middle;" transform="rotate(0, 1553.33, 1716.52)" x="1553.33" y="1716.52">&lt; 3.9</text>
</g>
<g clip-path="url(#clip0900)">
<text style="fill:#000000; fill-opacity:1; font-family:Arial,Helvetica Neue,Helvetica,sans-serif; font-size:41px; text-anchor:middle;" transform="rotate(0, 2972.44, 2346.32)" x="2972.44" y="2346.32">feat: 1</text>
</g>
<g clip-path="url(#clip0900)">
<text style="fill:#000000; fill-opacity:1; font-family:Arial,Helvetica Neue,Helvetica,sans-serif; font-size:41px; text-anchor:middle;" transform="rotate(0, 2972.44, 2391.68)" x="2972.44" y="2391.68">&lt; 0.307</text>
</g>
<g clip-path="url(#clip0900)">
<text style="fill:#000000; fill-opacity:1; font-family:Arial,Helvetica Neue,Helvetica,sans-serif; font-size:41px; text-anchor:middle;" transform="rotate(0, 2516.39, 2253.92)" x="2516.39" y="2253.92">feat: 1</text>
</g>
<g clip-path="url(#clip0900)">
<text style="fill:#000000; fill-opacity:1; font-family:Arial,Helvetica Neue,Helvetica,sans-serif; font-size:41px; text-anchor:middle;" transform="rotate(0, 2516.39, 2299.28)" x="2516.39" y="2299.28">&lt; 2.48</text>
</g>
<g clip-path="url(#clip0900)">
<text style="fill:#000000; fill-opacity:1; font-family:Arial,Helvetica Neue,Helvetica,sans-serif; font-size:41px; text-anchor:middle;" transform="rotate(0, 1060.41, 2274.39)" x="1060.41" y="2274.39">feat: 1</text>
</g>
<g clip-path="url(#clip0900)">
<text style="fill:#000000; fill-opacity:1; font-family:Arial,Helvetica Neue,Helvetica,sans-serif; font-size:41px; text-anchor:middle;" transform="rotate(0, 1060.41, 2319.75)" x="1060.41" y="2319.75">&lt; 3.46</text>
</g>
<g clip-path="url(#clip0900)">
<text style="fill:#000000; fill-opacity:1; font-family:Arial,Helvetica Neue,Helvetica,sans-serif; font-size:41px; text-anchor:middle;" transform="rotate(0, 1513.98, 2342.14)" x="1513.98" y="2342.14">feat: 1</text>
</g>
<g clip-path="url(#clip0900)">
<text style="fill:#000000; fill-opacity:1; font-family:Arial,Helvetica Neue,Helvetica,sans-serif; font-size:41px; text-anchor:middle;" transform="rotate(0, 1513.98, 2387.5)" x="1513.98" y="2387.5">&lt; 4.29</text>
</g>
<g clip-path="url(#clip0900)">
<text style="fill:#000000; fill-opacity:1; font-family:Arial,Helvetica Neue,Helvetica,sans-serif; font-size:41px; text-anchor:middle;" transform="rotate(0, 3400.18, 3017.43)" x="3400.18" y="3017.43">pred: -0.000571</text>
</g>
<g clip-path="url(#clip0900)">
<text style="fill:#000000; fill-opacity:1; font-family:Arial,Helvetica Neue,Helvetica,sans-serif; font-size:41px; text-anchor:middle;" transform="rotate(0, 3148.75, 3151.86)" x="3148.75" y="3151.86">pred: 0.00501</text>
</g>
<g clip-path="url(#clip0900)">
<text style="fill:#000000; fill-opacity:1; font-family:Arial,Helvetica Neue,Helvetica,sans-serif; font-size:41px; text-anchor:middle;" transform="rotate(0, 2408.53, 3377.71)" x="2408.53" y="3377.71">pred: 0.0137</text>
</g>
<g clip-path="url(#clip0900)">
<text style="fill:#000000; fill-opacity:1; font-family:Arial,Helvetica Neue,Helvetica,sans-serif; font-size:41px; text-anchor:middle;" transform="rotate(0, 2776.29, 3050.79)" x="2776.29" y="3050.79">pred: 0.00268</text>
</g>
<g clip-path="url(#clip0900)">
<text style="fill:#000000; fill-opacity:1; font-family:Arial,Helvetica Neue,Helvetica,sans-serif; font-size:41px; text-anchor:middle;" transform="rotate(0, 637.29, 3002.4)" x="637.29" y="3002.4">pred: -0.00581</text>
</g>
<g clip-path="url(#clip0900)">
<text style="fill:#000000; fill-opacity:1; font-family:Arial,Helvetica Neue,Helvetica,sans-serif; font-size:41px; text-anchor:middle;" transform="rotate(0, 878.87, 3039.99)" x="878.87" y="3039.99">pred: -0.0119</text>
</g>
<g clip-path="url(#clip0900)">
<text style="fill:#000000; fill-opacity:1; font-family:Arial,Helvetica Neue,Helvetica,sans-serif; font-size:41px; text-anchor:middle;" transform="rotate(0, 1293.19, 3339.48)" x="1293.19" y="3339.48">pred: -0.0174</text>
</g>
<g clip-path="url(#clip0900)">
<text style="fill:#000000; fill-opacity:1; font-family:Arial,Helvetica Neue,Helvetica,sans-serif; font-size:41px; text-anchor:middle;" transform="rotate(0, 1679.1, 3216.19)" x="1679.1" y="3216.19">pred: -0.0218</text>
</g>
</svg>
