<?xml version="1.0" encoding="utf-8"?>
<svg xmlns="http://www.w3.org/2000/svg" xmlns:xlink="http://www.w3.org/1999/xlink" width="512" height="288" viewBox="0 0 2048 1152">
<defs>
  <clipPath id="clip450">
    <rect x="0" y="0" width="2048" height="1152"/>
  </clipPath>
</defs>
<path clip-path="url(#clip450)" d="M0 1152 L2048 1152 L2048 0 L0 0  Z" fill="#ffffff" fill-rule="evenodd" fill-opacity="1"/>
<defs>
  <clipPath id="clip451">
    <rect x="409" y="0" width="1435" height="1152"/>
  </clipPath>
</defs>
<path clip-path="url(#clip450)" d="M47.2441 1104.76 L2000.76 1104.76 L2000.76 47.2441 L47.2441 47.2441  Z" fill="#ffffff" fill-rule="evenodd" fill-opacity="1"/>
<defs>
  <clipPath id="clip452">
    <rect x="47" y="47" width="1955" height="1059"/>
  </clipPath>
</defs>
<path clip-path="url(#clip452)" d="M811.354 77.1737 L1236.65 77.1737 L1236.65 260.416 L811.354 260.416 L811.354 77.1737  Z" fill="#e6ebf1" fill-rule="evenodd" fill-opacity="1"/>
<polyline clip-path="url(#clip452)" style="stroke:#000000; stroke-linecap:round; stroke-linejoin:round; stroke-width:0; stroke-opacity:1; fill:none" points="811.354,77.1737 1236.65,77.1737 1236.65,260.416 811.354,260.416 811.354,77.1737 "/>
<path clip-path="url(#clip452)" d="M338.806 484.379 L764.099 484.379 L764.099 667.621 L338.806 667.621 L338.806 484.379  Z" fill="#e6ebf1" fill-rule="evenodd" fill-opacity="1"/>
<polyline clip-path="url(#clip452)" style="stroke:#000000; stroke-linecap:round; stroke-linejoin:round; stroke-width:0; stroke-opacity:1; fill:none" points="338.806,484.379 764.099,484.379 764.099,667.621 338.806,667.621 338.806,484.379 "/>
<path clip-path="url(#clip452)" d="M1283.9 484.379 L1709.19 484.379 L1709.19 667.621 L1283.9 667.621 L1283.9 484.379  Z" fill="#e6ebf1" fill-rule="evenodd" fill-opacity="1"/>
<polyline clip-path="url(#clip452)" style="stroke:#000000; stroke-linecap:round; stroke-linejoin:round; stroke-width:0; stroke-opacity:1; fill:none" points="1283.9,484.379 1709.19,484.379 1709.19,667.621 1283.9,667.621 1283.9,484.379 "/>
<path clip-path="url(#clip452)" d="M102.532 891.584 L527.825 891.584 L527.825 1074.83 L102.532 1074.83 L102.532 891.584  Z" fill="#26a671" fill-rule="evenodd" fill-opacity="1"/>
<polyline clip-path="url(#clip452)" style="stroke:#000000; stroke-linecap:round; stroke-linejoin:round; stroke-width:0; stroke-opacity:1; fill:none" points="102.532,891.584 527.825,891.584 527.825,1074.83 102.532,1074.83 102.532,891.584 "/>
<path clip-path="url(#clip452)" d="M575.08 891.584 L1000.37 891.584 L1000.37 1074.83 L575.08 1074.83 L575.08 891.584  Z" fill="#26a671" fill-rule="evenodd" fill-opacity="1"/>
<polyline clip-path="url(#clip452)" style="stroke:#000000; stroke-linecap:round; stroke-linejoin:round; stroke-width:0; stroke-opacity:1; fill:none" points="575.08,891.584 1000.37,891.584 1000.37,1074.83 575.08,1074.83 575.08,891.584 "/>
<path clip-path="url(#clip452)" d="M1047.63 891.584 L1472.92 891.584 L1472.92 1074.83 L1047.63 1074.83 L1047.63 891.584  Z" fill="#26a671" fill-rule="evenodd" fill-opacity="1"/>
<polyline clip-path="url(#clip452)" style="stroke:#000000; stroke-linecap:round; stroke-linejoin:round; stroke-width:0; stroke-opacity:1; fill:none" points="1047.63,891.584 1472.92,891.584 1472.92,1074.83 1047.63,1074.83 1047.63,891.584 "/>
<path clip-path="url(#clip452)" d="M1520.17 891.584 L1945.47 891.584 L1945.47 1074.83 L1520.17 1074.83 L1520.17 891.584  Z" fill="#26a671" fill-rule="evenodd" fill-opacity="1"/>
<polyline clip-path="url(#clip452)" style="stroke:#000000; stroke-linecap:round; stroke-linejoin:round; stroke-width:0; stroke-opacity:1; fill:none" points="1520.17,891.584 1945.47,891.584 1945.47,1074.83 1520.17,1074.83 1520.17,891.584 "/>
<polyline clip-path="url(#clip452)" style="stroke:#000000; stroke-linecap:round; stroke-linejoin:round; stroke-width:4; stroke-opacity:1; fill:none" points="1024,260.416 1007.71,268.139 991.411,275.862 975.116,283.585 958.821,291.307 942.526,299.03 926.232,306.753 909.937,314.476 893.642,322.199 877.347,329.922 861.053,337.645 844.758,345.367 828.463,353.09 812.168,360.813 795.874,368.536 779.579,376.259 763.284,383.982 746.989,391.705 730.695,399.427 714.4,407.15 698.105,414.873 681.81,422.596 665.516,430.319 649.221,438.042 632.926,445.765 616.631,453.487 600.337,461.21 584.042,468.933 567.747,476.656 551.452,484.379 "/>
<polyline clip-path="url(#clip452)" style="stroke:#000000; stroke-linecap:round; stroke-linejoin:round; stroke-width:4; stroke-opacity:1; fill:none" points="1024,260.416 1040.29,268.139 1056.59,275.862 1072.88,283.585 1089.18,291.307 1105.47,299.03 1121.77,306.753 1138.06,314.476 1154.36,322.199 1170.65,329.922 1186.95,337.645 1203.24,345.367 1219.54,353.09 1235.83,360.813 1252.13,368.536 1268.42,376.259 1284.72,383.982 1301.01,391.705 1317.31,399.427 1333.6,407.15 1349.89,414.873 1366.19,422.596 1382.48,430.319 1398.78,438.042 1415.07,445.765 1431.37,453.487 1447.66,461.21 1463.96,468.933 1480.25,476.656 1496.55,484.379 "/>
<polyline clip-path="url(#clip452)" style="stroke:#000000; stroke-linecap:round; stroke-linejoin:round; stroke-width:4; stroke-opacity:1; fill:none" points="551.452,667.621 543.305,675.344 535.158,683.067 527.01,690.79 518.863,698.513 510.716,706.235 502.568,713.958 494.421,721.681 486.273,729.404 478.126,737.127 469.979,744.85 461.831,752.573 453.684,760.295 445.537,768.018 437.389,775.741 429.242,783.464 421.094,791.187 412.947,798.91 404.8,806.633 396.652,814.355 388.505,822.078 380.358,829.801 372.21,837.524 364.063,845.247 355.915,852.97 347.768,860.693 339.621,868.415 331.473,876.138 323.326,883.861 315.179,891.584 "/>
<polyline clip-path="url(#clip452)" style="stroke:#000000; stroke-linecap:round; stroke-linejoin:round; stroke-width:4; stroke-opacity:1; fill:none" points="551.452,667.621 559.6,675.344 567.747,683.067 575.895,690.79 584.042,698.513 592.189,706.235 600.337,713.958 608.484,721.681 616.631,729.404 624.779,737.127 632.926,744.85 641.073,752.573 649.221,760.295 657.368,768.018 665.516,775.741 673.663,783.464 681.81,791.187 689.958,798.91 698.105,806.633 706.252,814.355 714.4,822.078 722.547,829.801 730.695,837.524 738.842,845.247 746.989,852.97 755.137,860.693 763.284,868.415 771.431,876.138 779.579,883.861 787.726,891.584 "/>
<polyline clip-path="url(#clip452)" style="stroke:#000000; stroke-linecap:round; stroke-linejoin:round; stroke-width:4; stroke-opacity:1; fill:none" points="1496.55,667.621 1488.4,675.344 1480.25,683.067 1472.11,690.79 1463.96,698.513 1455.81,706.235 1447.66,713.958 1439.52,721.681 1431.37,729.404 1423.22,737.127 1415.07,744.85 1406.93,752.573 1398.78,760.295 1390.63,768.018 1382.48,775.741 1374.34,783.464 1366.19,791.187 1358.04,798.91 1349.89,806.633 1341.75,814.355 1333.6,822.078 1325.45,829.801 1317.31,837.524 1309.16,845.247 1301.01,852.97 1292.86,860.693 1284.72,868.415 1276.57,876.138 1268.42,883.861 1260.27,891.584 "/>
<polyline clip-path="url(#clip452)" style="stroke:#000000; stroke-linecap:round; stroke-linejoin:round; stroke-width:4; stroke-opacity:1; fill:none" points="1496.55,667.621 1504.69,675.344 1512.84,683.067 1520.99,690.79 1529.14,698.513 1537.28,706.235 1545.43,713.958 1553.58,721.681 1561.73,729.404 1569.87,737.127 1578.02,744.85 1586.17,752.573 1594.32,760.295 1602.46,768.018 1610.61,775.741 1618.76,783.464 1626.91,791.187 1635.05,798.91 1643.2,806.633 1651.35,814.355 1659.5,822.078 1667.64,829.801 1675.79,837.524 1683.94,845.247 1692.08,852.97 1700.23,860.693 1708.38,868.415 1716.53,876.138 1724.67,883.861 1732.82,891.584 "/>
<path clip-path="url(#clip450)" d="M955.945 112.972 L955.945 117.399 L950.852 117.399 Q947.988 117.399 946.859 118.556 Q945.76 119.714 945.76 122.723 L945.76 125.588 L954.527 125.588 L954.527 129.725 L945.76 129.725 L945.76 157.995 L940.407 157.995 L940.407 129.725 L935.314 129.725 L935.314 125.588 L940.407 125.588 L940.407 123.331 Q940.407 117.92 942.924 115.46 Q945.441 112.972 950.91 112.972 L955.945 112.972 Z" fill="#000000" fill-rule="nonzero" fill-opacity="1" /><path clip-path="url(#clip450)" d="M988.121 140.46 L988.121 143.064 L963.642 143.064 Q963.989 148.562 966.94 151.456 Q969.92 154.32 975.216 154.32 Q978.283 154.32 981.147 153.568 Q984.041 152.815 986.876 151.311 L986.876 156.346 Q984.012 157.561 981.003 158.197 Q977.993 158.834 974.897 158.834 Q967.143 158.834 962.6 154.32 Q958.086 149.806 958.086 142.11 Q958.086 134.152 962.368 129.494 Q966.68 124.806 973.971 124.806 Q980.511 124.806 984.301 129.031 Q988.121 133.226 988.121 140.46 M982.797 138.898 Q982.739 134.529 980.337 131.924 Q977.964 129.32 974.029 129.32 Q969.573 129.32 966.882 131.838 Q964.22 134.355 963.815 138.927 L982.797 138.898 Z" fill="#000000" fill-rule="nonzero" fill-opacity="1" /><path clip-path="url(#clip450)" d="M1011.59 141.704 Q1005.13 141.704 1002.65 143.18 Q1000.16 144.656 1000.16 148.215 Q1000.16 151.05 1002.01 152.729 Q1003.89 154.378 1007.1 154.378 Q1011.53 154.378 1014.19 151.253 Q1016.88 148.099 1016.88 142.891 L1016.88 141.704 L1011.59 141.704 M1022.21 139.505 L1022.21 157.995 L1016.88 157.995 L1016.88 153.076 Q1015.06 156.027 1012.34 157.445 Q1009.62 158.834 1005.68 158.834 Q1000.71 158.834 997.756 156.056 Q994.833 153.249 994.833 148.562 Q994.833 143.093 998.479 140.316 Q1002.15 137.538 1009.42 137.538 L1016.88 137.538 L1016.88 137.017 Q1016.88 133.342 1014.45 131.346 Q1012.05 129.32 1007.68 129.32 Q1004.9 129.32 1002.27 129.986 Q999.637 130.651 997.206 131.982 L997.206 127.063 Q1000.13 125.935 1002.88 125.385 Q1005.63 124.806 1008.23 124.806 Q1015.26 124.806 1018.73 128.452 Q1022.21 132.098 1022.21 139.505 Z" fill="#000000" fill-rule="nonzero" fill-opacity="1" /><path clip-path="url(#clip450)" d="M1038.44 116.386 L1038.44 125.588 L1049.4 125.588 L1049.4 129.725 L1038.44 129.725 L1038.44 147.318 Q1038.44 151.282 1039.51 152.41 Q1040.61 153.539 1043.94 153.539 L1049.4 153.539 L1049.4 157.995 L1043.94 157.995 Q1037.77 157.995 1035.43 155.709 Q1033.09 153.394 1033.09 147.318 L1033.09 129.725 L1029.18 129.725 L1029.18 125.588 L1033.09 125.588 L1033.09 116.386 L1038.44 116.386 Z" fill="#000000" fill-rule="nonzero" fill-opacity="1" /><path clip-path="url(#clip450)" d="M1081.03 167.833 L1081.03 171.97 L1050.24 171.97 L1050.24 167.833 L1081.03 167.833 Z" fill="#000000" fill-rule="nonzero" fill-opacity="1" /><path clip-path="url(#clip450)" d="M1087.8 153.076 L1097.35 153.076 L1097.35 120.119 L1086.96 122.202 L1086.96 116.878 L1097.29 114.795 L1103.14 114.795 L1103.14 153.076 L1112.69 153.076 L1112.69 157.995 L1087.8 157.995 L1087.8 153.076 Z" fill="#000000" fill-rule="nonzero" fill-opacity="1" /><path clip-path="url(#clip450)" d="M932.305 204.19 L947.901 204.19 L947.901 208.935 L932.305 208.935 L932.305 204.19 Z" fill="#000000" fill-rule="nonzero" fill-opacity="1" /><path clip-path="url(#clip450)" d="M969.631 183.443 Q965.117 183.443 962.831 187.899 Q960.574 192.326 960.574 201.238 Q960.574 210.121 962.831 214.577 Q965.117 219.004 969.631 219.004 Q974.174 219.004 976.431 214.577 Q978.717 210.121 978.717 201.238 Q978.717 192.326 976.431 187.899 Q974.174 183.443 969.631 183.443 M969.631 178.814 Q976.894 178.814 980.713 184.572 Q984.562 190.301 984.562 201.238 Q984.562 212.147 980.713 217.905 Q976.894 223.634 969.631 223.634 Q962.368 223.634 958.52 217.905 Q954.701 212.147 954.701 201.238 Q954.701 190.301 958.52 184.572 Q962.368 178.814 969.631 178.814 Z" fill="#000000" fill-rule="nonzero" fill-opacity="1" /><path clip-path="url(#clip450)" d="M994.833 215.445 L1000.94 215.445 L1000.94 222.795 L994.833 222.795 L994.833 215.445 Z" fill="#000000" fill-rule="nonzero" fill-opacity="1" /><path clip-path="url(#clip450)" d="M1026.17 183.443 Q1021.66 183.443 1019.37 187.899 Q1017.11 192.326 1017.11 201.238 Q1017.11 210.121 1019.37 214.577 Q1021.66 219.004 1026.17 219.004 Q1030.71 219.004 1032.97 214.577 Q1035.26 210.121 1035.26 201.238 Q1035.26 192.326 1032.97 187.899 Q1030.71 183.443 1026.17 183.443 M1026.17 178.814 Q1033.43 178.814 1037.25 184.572 Q1041.1 190.301 1041.1 201.238 Q1041.1 212.147 1037.25 217.905 Q1033.43 223.634 1026.17 223.634 Q1018.91 223.634 1015.06 217.905 Q1011.24 212.147 1011.24 201.238 Q1011.24 190.301 1015.06 184.572 Q1018.91 178.814 1026.17 178.814 Z" fill="#000000" fill-rule="nonzero" fill-opacity="1" /><path clip-path="url(#clip450)" d="M1052.39 217.876 L1061.93 217.876 L1061.93 184.919 L1051.55 187.002 L1051.55 181.678 L1061.88 179.595 L1067.72 179.595 L1067.72 217.876 L1077.27 217.876 L1077.27 222.795 L1052.39 222.795 L1052.39 217.876 Z" fill="#000000" fill-rule="nonzero" fill-opacity="1" /><path clip-path="url(#clip450)" d="M1106.78 199.502 Q1110.98 200.399 1113.32 203.235 Q1115.7 206.07 1115.7 210.237 Q1115.7 216.632 1111.3 220.133 Q1106.9 223.634 1098.8 223.634 Q1096.08 223.634 1093.18 223.084 Q1090.32 222.563 1087.25 221.493 L1087.25 215.85 Q1089.68 217.268 1092.58 217.992 Q1095.47 218.715 1098.62 218.715 Q1104.12 218.715 1106.99 216.545 Q1109.88 214.375 1109.88 210.237 Q1109.88 206.418 1107.19 204.276 Q1104.53 202.106 1099.75 202.106 L1094.72 202.106 L1094.72 197.303 L1099.98 197.303 Q1104.29 197.303 1106.58 195.596 Q1108.87 193.86 1108.87 190.619 Q1108.87 187.292 1106.49 185.527 Q1104.15 183.733 1099.75 183.733 Q1097.35 183.733 1094.6 184.253 Q1091.85 184.774 1088.55 185.874 L1088.55 180.665 Q1091.88 179.74 1094.78 179.277 Q1097.7 178.814 1100.27 178.814 Q1106.93 178.814 1110.81 181.852 Q1114.68 184.861 1114.68 190.011 Q1114.68 193.599 1112.63 196.088 Q1110.57 198.547 1106.78 199.502 Z" fill="#000000" fill-rule="nonzero" fill-opacity="1" /><path clip-path="url(#clip450)" d="M483.397 520.177 L483.397 524.604 L478.305 524.604 Q475.44 524.604 474.312 525.762 Q473.212 526.919 473.212 529.928 L473.212 532.793 L481.979 532.793 L481.979 536.93 L473.212 536.93 L473.212 565.2 L467.859 565.2 L467.859 536.93 L462.767 536.93 L462.767 532.793 L467.859 532.793 L467.859 530.536 Q467.859 525.125 470.376 522.666 Q472.894 520.177 478.363 520.177 L483.397 520.177 Z" fill="#000000" fill-rule="nonzero" fill-opacity="1" /><path clip-path="url(#clip450)" d="M515.573 547.665 L515.573 550.27 L491.094 550.27 Q491.441 555.767 494.393 558.661 Q497.373 561.525 502.668 561.525 Q505.735 561.525 508.6 560.773 Q511.493 560.021 514.329 558.516 L514.329 563.551 Q511.464 564.766 508.455 565.403 Q505.446 566.039 502.35 566.039 Q494.595 566.039 490.052 561.525 Q485.538 557.011 485.538 549.315 Q485.538 541.358 489.821 536.699 Q494.132 532.012 501.424 532.012 Q507.963 532.012 511.754 536.236 Q515.573 540.432 515.573 547.665 M510.249 546.103 Q510.191 541.734 507.789 539.13 Q505.417 536.525 501.482 536.525 Q497.026 536.525 494.335 539.043 Q491.673 541.56 491.268 546.132 L510.249 546.103 Z" fill="#000000" fill-rule="nonzero" fill-opacity="1" /><path clip-path="url(#clip450)" d="M539.039 548.91 Q532.587 548.91 530.098 550.385 Q527.61 551.861 527.61 555.42 Q527.61 558.256 529.462 559.934 Q531.343 561.583 534.554 561.583 Q538.981 561.583 541.643 558.458 Q544.334 555.304 544.334 550.096 L544.334 548.91 L539.039 548.91 M549.658 546.711 L549.658 565.2 L544.334 565.2 L544.334 560.281 Q542.511 563.232 539.792 564.65 Q537.072 566.039 533.137 566.039 Q528.16 566.039 525.208 563.261 Q522.286 560.455 522.286 555.767 Q522.286 550.298 525.932 547.521 Q529.606 544.743 536.869 544.743 L544.334 544.743 L544.334 544.222 Q544.334 540.547 541.904 538.551 Q539.502 536.525 535.133 536.525 Q532.355 536.525 529.722 537.191 Q527.089 537.856 524.659 539.187 L524.659 534.268 Q527.581 533.14 530.33 532.59 Q533.079 532.012 535.683 532.012 Q542.714 532.012 546.186 535.657 Q549.658 539.303 549.658 546.711 Z" fill="#000000" fill-rule="nonzero" fill-opacity="1" /><path clip-path="url(#clip450)" d="M565.891 523.591 L565.891 532.793 L576.857 532.793 L576.857 536.93 L565.891 536.93 L565.891 554.523 Q565.891 558.487 566.962 559.616 Q568.061 560.744 571.389 560.744 L576.857 560.744 L576.857 565.2 L571.389 565.2 Q565.225 565.2 562.882 562.914 Q560.538 560.599 560.538 554.523 L560.538 536.93 L556.632 536.93 L556.632 532.793 L560.538 532.793 L560.538 523.591 L565.891 523.591 Z" fill="#000000" fill-rule="nonzero" fill-opacity="1" /><path clip-path="url(#clip450)" d="M608.483 575.038 L608.483 579.176 L577.696 579.176 L577.696 575.038 L608.483 575.038 Z" fill="#000000" fill-rule="nonzero" fill-opacity="1" /><path clip-path="url(#clip450)" d="M615.254 560.281 L624.803 560.281 L624.803 527.324 L614.415 529.407 L614.415 524.083 L624.745 522 L630.59 522 L630.59 560.281 L640.138 560.281 L640.138 565.2 L615.254 565.2 L615.254 560.281 Z" fill="#000000" fill-rule="nonzero" fill-opacity="1" /><path clip-path="url(#clip450)" d="M459.41 611.395 L475.006 611.395 L475.006 616.14 L459.41 616.14 L459.41 611.395 Z" fill="#000000" fill-rule="nonzero" fill-opacity="1" /><path clip-path="url(#clip450)" d="M496.736 590.648 Q492.222 590.648 489.937 595.104 Q487.68 599.531 487.68 608.443 Q487.68 617.326 489.937 621.782 Q492.222 626.21 496.736 626.21 Q501.279 626.21 503.536 621.782 Q505.822 617.326 505.822 608.443 Q505.822 599.531 503.536 595.104 Q501.279 590.648 496.736 590.648 M496.736 586.019 Q503.999 586.019 507.818 591.777 Q511.667 597.506 511.667 608.443 Q511.667 619.352 507.818 625.11 Q503.999 630.839 496.736 630.839 Q489.474 630.839 485.625 625.11 Q481.806 619.352 481.806 608.443 Q481.806 597.506 485.625 591.777 Q489.474 586.019 496.736 586.019 Z" fill="#000000" fill-rule="nonzero" fill-opacity="1" /><path clip-path="url(#clip450)" d="M521.939 622.651 L528.044 622.651 L528.044 630 L521.939 630 L521.939 622.651 Z" fill="#000000" fill-rule="nonzero" fill-opacity="1" /><path clip-path="url(#clip450)" d="M540.833 586.8 L563.779 586.8 L563.779 591.719 L546.186 591.719 L546.186 602.309 Q547.459 601.875 548.732 601.673 Q550.006 601.441 551.279 601.441 Q558.513 601.441 562.737 605.405 Q566.962 609.369 566.962 616.14 Q566.962 623.113 562.621 626.991 Q558.281 630.839 550.382 630.839 Q547.662 630.839 544.826 630.376 Q542.02 629.913 539.01 628.987 L539.01 623.113 Q541.614 624.531 544.392 625.226 Q547.17 625.92 550.266 625.92 Q555.272 625.92 558.194 623.287 Q561.117 620.654 561.117 616.14 Q561.117 611.626 558.194 608.993 Q555.272 606.36 550.266 606.36 Q547.922 606.36 545.579 606.881 Q543.264 607.402 540.833 608.501 L540.833 586.8 Z" fill="#000000" fill-rule="nonzero" fill-opacity="1" /><path clip-path="url(#clip450)" d="M579.49 625.081 L589.039 625.081 L589.039 592.124 L578.651 594.207 L578.651 588.883 L588.981 586.8 L594.826 586.8 L594.826 625.081 L604.375 625.081 L604.375 630 L579.49 630 L579.49 625.081 Z" fill="#000000" fill-rule="nonzero" fill-opacity="1" /><path clip-path="url(#clip450)" d="M628.68 609.485 Q624.513 609.485 622.112 611.713 Q619.739 613.941 619.739 617.847 Q619.739 621.754 622.112 623.982 Q624.513 626.21 628.68 626.21 Q632.847 626.21 635.248 623.982 Q637.65 621.725 637.65 617.847 Q637.65 613.941 635.248 611.713 Q632.876 609.485 628.68 609.485 M622.835 606.997 Q619.074 606.071 616.961 603.496 Q614.878 600.92 614.878 597.217 Q614.878 592.037 618.553 589.028 Q622.256 586.019 628.68 586.019 Q635.132 586.019 638.807 589.028 Q642.482 592.037 642.482 597.217 Q642.482 600.92 640.37 603.496 Q638.286 606.071 634.554 606.997 Q638.778 607.98 641.122 610.845 Q643.495 613.71 643.495 617.847 Q643.495 624.126 639.646 627.483 Q635.827 630.839 628.68 630.839 Q621.533 630.839 617.685 627.483 Q613.865 624.126 613.865 617.847 Q613.865 613.71 616.238 610.845 Q618.611 607.98 622.835 606.997 M620.694 597.766 Q620.694 601.123 622.777 603.004 Q624.889 604.884 628.68 604.884 Q632.442 604.884 634.554 603.004 Q636.695 601.123 636.695 597.766 Q636.695 594.41 634.554 592.529 Q632.442 590.648 628.68 590.648 Q624.889 590.648 622.777 592.529 Q620.694 594.41 620.694 597.766 Z" fill="#000000" fill-rule="nonzero" fill-opacity="1" /><path clip-path="url(#clip450)" d="M1428.49 520.177 L1428.49 524.604 L1423.4 524.604 Q1420.54 524.604 1419.41 525.762 Q1418.31 526.919 1418.31 529.928 L1418.31 532.793 L1427.07 532.793 L1427.07 536.93 L1418.31 536.93 L1418.31 565.2 L1412.95 565.2 L1412.95 536.93 L1407.86 536.93 L1407.86 532.793 L1412.95 532.793 L1412.95 530.536 Q1412.95 525.125 1415.47 522.666 Q1417.99 520.177 1423.46 520.177 L1428.49 520.177 Z" fill="#000000" fill-rule="nonzero" fill-opacity="1" /><path clip-path="url(#clip450)" d="M1460.67 547.665 L1460.67 550.27 L1436.19 550.27 Q1436.54 555.767 1439.49 558.661 Q1442.47 561.525 1447.76 561.525 Q1450.83 561.525 1453.69 560.773 Q1456.59 560.021 1459.42 558.516 L1459.42 563.551 Q1456.56 564.766 1453.55 565.403 Q1450.54 566.039 1447.44 566.039 Q1439.69 566.039 1435.15 561.525 Q1430.63 557.011 1430.63 549.315 Q1430.63 541.358 1434.92 536.699 Q1439.23 532.012 1446.52 532.012 Q1453.06 532.012 1456.85 536.236 Q1460.67 540.432 1460.67 547.665 M1455.34 546.103 Q1455.29 541.734 1452.88 539.13 Q1450.51 536.525 1446.58 536.525 Q1442.12 536.525 1439.43 539.043 Q1436.77 541.56 1436.36 546.132 L1455.34 546.103 Z" fill="#000000" fill-rule="nonzero" fill-opacity="1" /><path clip-path="url(#clip450)" d="M1484.13 548.91 Q1477.68 548.91 1475.19 550.385 Q1472.71 551.861 1472.71 555.42 Q1472.71 558.256 1474.56 559.934 Q1476.44 561.583 1479.65 561.583 Q1484.08 561.583 1486.74 558.458 Q1489.43 555.304 1489.43 550.096 L1489.43 548.91 L1484.13 548.91 M1494.75 546.711 L1494.75 565.2 L1489.43 565.2 L1489.43 560.281 Q1487.61 563.232 1484.89 564.65 Q1482.17 566.039 1478.23 566.039 Q1473.25 566.039 1470.3 563.261 Q1467.38 560.455 1467.38 555.767 Q1467.38 550.298 1471.03 547.521 Q1474.7 544.743 1481.96 544.743 L1489.43 544.743 L1489.43 544.222 Q1489.43 540.547 1487 538.551 Q1484.6 536.525 1480.23 536.525 Q1477.45 536.525 1474.82 537.191 Q1472.18 537.856 1469.75 539.187 L1469.75 534.268 Q1472.68 533.14 1475.43 532.59 Q1478.17 532.012 1480.78 532.012 Q1487.81 532.012 1491.28 535.657 Q1494.75 539.303 1494.75 546.711 Z" fill="#000000" fill-rule="nonzero" fill-opacity="1" /><path clip-path="url(#clip450)" d="M1510.99 523.591 L1510.99 532.793 L1521.95 532.793 L1521.95 536.93 L1510.99 536.93 L1510.99 554.523 Q1510.99 558.487 1512.06 559.616 Q1513.16 560.744 1516.48 560.744 L1521.95 560.744 L1521.95 565.2 L1516.48 565.2 Q1510.32 565.2 1507.98 562.914 Q1505.63 560.599 1505.63 554.523 L1505.63 536.93 L1501.73 536.93 L1501.73 532.793 L1505.63 532.793 L1505.63 523.591 L1510.99 523.591 Z" fill="#000000" fill-rule="nonzero" fill-opacity="1" /><path clip-path="url(#clip450)" d="M1553.58 575.038 L1553.58 579.176 L1522.79 579.176 L1522.79 575.038 L1553.58 575.038 Z" fill="#000000" fill-rule="nonzero" fill-opacity="1" /><path clip-path="url(#clip450)" d="M1560.35 560.281 L1569.9 560.281 L1569.9 527.324 L1559.51 529.407 L1559.51 524.083 L1569.84 522 L1575.68 522 L1575.68 560.281 L1585.23 560.281 L1585.23 565.2 L1560.35 565.2 L1560.35 560.281 Z" fill="#000000" fill-rule="nonzero" fill-opacity="1" /><path clip-path="url(#clip450)" d="M1430.69 590.648 Q1426.18 590.648 1423.89 595.104 Q1421.63 599.531 1421.63 608.443 Q1421.63 617.326 1423.89 621.782 Q1426.18 626.21 1430.69 626.21 Q1435.23 626.21 1437.49 621.782 Q1439.78 617.326 1439.78 608.443 Q1439.78 599.531 1437.49 595.104 Q1435.23 590.648 1430.69 590.648 M1430.69 586.019 Q1437.95 586.019 1441.77 591.777 Q1445.62 597.506 1445.62 608.443 Q1445.62 619.352 1441.77 625.11 Q1437.95 630.839 1430.69 630.839 Q1423.43 630.839 1419.58 625.11 Q1415.76 619.352 1415.76 608.443 Q1415.76 597.506 1419.58 591.777 Q1423.43 586.019 1430.69 586.019 Z" fill="#000000" fill-rule="nonzero" fill-opacity="1" /><path clip-path="url(#clip450)" d="M1455.89 622.651 L1462 622.651 L1462 630 L1455.89 630 L1455.89 622.651 Z" fill="#000000" fill-rule="nonzero" fill-opacity="1" /><path clip-path="url(#clip450)" d="M1490.79 591.893 L1476.03 614.954 L1490.79 614.954 L1490.79 591.893 M1489.26 586.8 L1496.61 586.8 L1496.61 614.954 L1502.77 614.954 L1502.77 619.815 L1496.61 619.815 L1496.61 630 L1490.79 630 L1490.79 619.815 L1471.29 619.815 L1471.29 614.173 L1489.26 586.8 Z" fill="#000000" fill-rule="nonzero" fill-opacity="1" /><path clip-path="url(#clip450)" d="M1510.96 586.8 L1538.73 586.8 L1538.73 589.288 L1523.05 630 L1516.95 630 L1531.7 591.719 L1510.96 591.719 L1510.96 586.8 Z" fill="#000000" fill-rule="nonzero" fill-opacity="1" /><path clip-path="url(#clip450)" d="M1550.31 629.103 L1550.31 623.779 Q1552.51 624.821 1554.76 625.37 Q1557.02 625.92 1559.19 625.92 Q1564.98 625.92 1568.02 622.043 Q1571.08 618.137 1571.52 610.208 Q1569.84 612.697 1567.26 614.028 Q1564.69 615.359 1561.56 615.359 Q1555.08 615.359 1551.29 611.453 Q1547.53 607.517 1547.53 600.718 Q1547.53 594.063 1551.47 590.041 Q1555.4 586.019 1561.94 586.019 Q1569.43 586.019 1573.37 591.777 Q1577.33 597.506 1577.33 608.443 Q1577.33 618.657 1572.47 624.763 Q1567.64 630.839 1559.45 630.839 Q1557.25 630.839 1555 630.405 Q1552.74 629.971 1550.31 629.103 M1561.94 610.787 Q1565.88 610.787 1568.16 608.096 Q1570.48 605.405 1570.48 600.718 Q1570.48 596.059 1568.16 593.368 Q1565.88 590.648 1561.94 590.648 Q1558.01 590.648 1555.69 593.368 Q1553.4 596.059 1553.4 600.718 Q1553.4 605.405 1555.69 608.096 Q1558.01 610.787 1561.94 610.787 Z" fill="#000000" fill-rule="nonzero" fill-opacity="1" /><path clip-path="url(#clip450)" d="M223.7 986.2 L239.296 986.2 L239.296 990.945 L223.7 990.945 L223.7 986.2 Z" fill="#000000" fill-rule="nonzero" fill-opacity="1" /><path clip-path="url(#clip450)" d="M261.027 965.454 Q256.513 965.454 254.227 969.91 Q251.97 974.337 251.97 983.249 Q251.97 992.132 254.227 996.588 Q256.513 1001.01 261.027 1001.01 Q265.569 1001.01 267.826 996.588 Q270.112 992.132 270.112 983.249 Q270.112 974.337 267.826 969.91 Q265.569 965.454 261.027 965.454 M261.027 960.824 Q268.289 960.824 272.109 966.582 Q275.957 972.311 275.957 983.249 Q275.957 994.157 272.109 999.915 Q268.289 1005.64 261.027 1005.64 Q253.764 1005.64 249.916 999.915 Q246.096 994.157 246.096 983.249 Q246.096 972.311 249.916 966.582 Q253.764 960.824 261.027 960.824 Z" fill="#000000" fill-rule="nonzero" fill-opacity="1" /><path clip-path="url(#clip450)" d="M286.229 997.456 L292.334 997.456 L292.334 1004.81 L286.229 1004.81 L286.229 997.456 Z" fill="#000000" fill-rule="nonzero" fill-opacity="1" /><path clip-path="url(#clip450)" d="M322.774 981.512 Q326.97 982.409 329.313 985.245 Q331.686 988.081 331.686 992.247 Q331.686 998.642 327.288 1002.14 Q322.89 1005.64 314.788 1005.64 Q312.068 1005.64 309.175 1005.09 Q306.31 1004.57 303.243 1003.5 L303.243 997.861 Q305.673 999.279 308.567 1000 Q311.46 1000.73 314.614 1000.73 Q320.112 1000.73 322.977 998.555 Q325.87 996.385 325.87 992.247 Q325.87 988.428 323.179 986.287 Q320.517 984.117 315.743 984.117 L310.708 984.117 L310.708 979.313 L315.974 979.313 Q320.286 979.313 322.571 977.606 Q324.857 975.87 324.857 972.629 Q324.857 969.302 322.485 967.537 Q320.141 965.743 315.743 965.743 Q313.341 965.743 310.592 966.264 Q307.844 966.785 304.545 967.884 L304.545 962.676 Q307.872 961.75 310.766 961.287 Q313.688 960.824 316.264 960.824 Q322.919 960.824 326.796 963.862 Q330.673 966.871 330.673 972.022 Q330.673 975.61 328.619 978.098 Q326.565 980.558 322.774 981.512 Z" fill="#000000" fill-rule="nonzero" fill-opacity="1" /><path clip-path="url(#clip450)" d="M355.991 980.876 Q352.056 980.876 349.741 983.567 Q347.456 986.258 347.456 990.945 Q347.456 995.604 349.741 998.324 Q352.056 1001.01 355.991 1001.01 Q359.927 1001.01 362.212 998.324 Q364.527 995.604 364.527 990.945 Q364.527 986.258 362.212 983.567 Q359.927 980.876 355.991 980.876 M367.594 962.56 L367.594 967.884 Q365.395 966.842 363.138 966.293 Q360.91 965.743 358.711 965.743 Q352.924 965.743 349.857 969.649 Q346.819 973.555 346.385 981.455 Q348.092 978.937 350.667 977.606 Q353.243 976.246 356.339 976.246 Q362.849 976.246 366.611 980.21 Q370.401 984.146 370.401 990.945 Q370.401 997.6 366.466 1001.62 Q362.531 1005.64 355.991 1005.64 Q348.497 1005.64 344.533 999.915 Q340.569 994.157 340.569 983.249 Q340.569 973.006 345.43 966.929 Q350.291 960.824 358.48 960.824 Q360.679 960.824 362.907 961.258 Q365.164 961.692 367.594 962.56 Z" fill="#000000" fill-rule="nonzero" fill-opacity="1" /><path clip-path="url(#clip450)" d="M380.528 961.605 L403.474 961.605 L403.474 966.524 L385.881 966.524 L385.881 977.114 Q387.154 976.68 388.428 976.478 Q389.701 976.246 390.974 976.246 Q398.208 976.246 402.432 980.21 Q406.657 984.174 406.657 990.945 Q406.657 997.919 402.316 1001.8 Q397.976 1005.64 390.077 1005.64 Q387.357 1005.64 384.521 1005.18 Q381.715 1004.72 378.705 1003.79 L378.705 997.919 Q381.31 999.336 384.087 1000.03 Q386.865 1000.73 389.961 1000.73 Q394.967 1000.73 397.889 998.092 Q400.812 995.459 400.812 990.945 Q400.812 986.431 397.889 983.798 Q394.967 981.165 389.961 981.165 Q387.617 981.165 385.274 981.686 Q382.959 982.207 380.528 983.306 L380.528 961.605 Z" fill="#000000" fill-rule="nonzero" fill-opacity="1" /><path clip-path="url(#clip450)" d="M696.031 986.2 L711.627 986.2 L711.627 990.945 L696.031 990.945 L696.031 986.2 Z" fill="#000000" fill-rule="nonzero" fill-opacity="1" /><path clip-path="url(#clip450)" d="M733.357 965.454 Q728.843 965.454 726.558 969.91 Q724.301 974.337 724.301 983.249 Q724.301 992.132 726.558 996.588 Q728.843 1001.01 733.357 1001.01 Q737.9 1001.01 740.157 996.588 Q742.443 992.132 742.443 983.249 Q742.443 974.337 740.157 969.91 Q737.9 965.454 733.357 965.454 M733.357 960.824 Q740.62 960.824 744.439 966.582 Q748.288 972.311 748.288 983.249 Q748.288 994.157 744.439 999.915 Q740.62 1005.64 733.357 1005.64 Q726.095 1005.64 722.246 999.915 Q718.427 994.157 718.427 983.249 Q718.427 972.311 722.246 966.582 Q726.095 960.824 733.357 960.824 Z" fill="#000000" fill-rule="nonzero" fill-opacity="1" /><path clip-path="url(#clip450)" d="M758.56 997.456 L764.665 997.456 L764.665 1004.81 L758.56 1004.81 L758.56 997.456 Z" fill="#000000" fill-rule="nonzero" fill-opacity="1" /><path clip-path="url(#clip450)" d="M782.431 999.886 L802.83 999.886 L802.83 1004.81 L775.4 1004.81 L775.4 999.886 Q778.727 996.443 784.457 990.656 Q790.215 984.84 791.69 983.162 Q794.497 980.008 795.597 977.838 Q796.725 975.639 796.725 973.526 Q796.725 970.083 794.294 967.913 Q791.893 965.743 788.016 965.743 Q785.267 965.743 782.2 966.698 Q779.161 967.653 775.689 969.591 L775.689 963.688 Q779.219 962.271 782.286 961.547 Q785.354 960.824 787.9 960.824 Q794.613 960.824 798.606 964.18 Q802.599 967.537 802.599 973.15 Q802.599 975.812 801.586 978.214 Q800.602 980.587 797.969 983.827 Q797.246 984.666 793.369 988.688 Q789.491 992.681 782.431 999.886 Z" fill="#000000" fill-rule="nonzero" fill-opacity="1" /><path clip-path="url(#clip450)" d="M827.599 965.454 Q823.085 965.454 820.799 969.91 Q818.542 974.337 818.542 983.249 Q818.542 992.132 820.799 996.588 Q823.085 1001.01 827.599 1001.01 Q832.141 1001.01 834.398 996.588 Q836.684 992.132 836.684 983.249 Q836.684 974.337 834.398 969.91 Q832.141 965.454 827.599 965.454 M827.599 960.824 Q834.861 960.824 838.681 966.582 Q842.529 972.311 842.529 983.249 Q842.529 994.157 838.681 999.915 Q834.861 1005.64 827.599 1005.64 Q820.336 1005.64 816.488 999.915 Q812.668 994.157 812.668 983.249 Q812.668 972.311 816.488 966.582 Q820.336 960.824 827.599 960.824 Z" fill="#000000" fill-rule="nonzero" fill-opacity="1" /><path clip-path="url(#clip450)" d="M870.509 981.512 Q874.705 982.409 877.049 985.245 Q879.421 988.081 879.421 992.247 Q879.421 998.642 875.023 1002.14 Q870.625 1005.64 862.523 1005.64 Q859.803 1005.64 856.91 1005.09 Q854.045 1004.57 850.978 1003.5 L850.978 997.861 Q853.409 999.279 856.302 1000 Q859.196 1000.73 862.35 1000.73 Q867.847 1000.73 870.712 998.555 Q873.605 996.385 873.605 992.247 Q873.605 988.428 870.914 986.287 Q868.252 984.117 863.478 984.117 L858.443 984.117 L858.443 979.313 L863.71 979.313 Q868.021 979.313 870.307 977.606 Q872.593 975.87 872.593 972.629 Q872.593 969.302 870.22 967.537 Q867.876 965.743 863.478 965.743 Q861.076 965.743 858.328 966.264 Q855.579 966.785 852.28 967.884 L852.28 962.676 Q855.608 961.75 858.501 961.287 Q861.424 960.824 863.999 960.824 Q870.654 960.824 874.531 963.862 Q878.409 966.871 878.409 972.022 Q878.409 975.61 876.354 978.098 Q874.3 980.558 870.509 981.512 Z" fill="#000000" fill-rule="nonzero" fill-opacity="1" /><path clip-path="url(#clip450)" d="M1149.94 986.2 L1165.54 986.2 L1165.54 990.945 L1149.94 990.945 L1149.94 986.2 Z" fill="#000000" fill-rule="nonzero" fill-opacity="1" /><path clip-path="url(#clip450)" d="M1187.27 965.454 Q1182.76 965.454 1180.47 969.91 Q1178.21 974.337 1178.21 983.249 Q1178.21 992.132 1180.47 996.588 Q1182.76 1001.01 1187.27 1001.01 Q1191.81 1001.01 1194.07 996.588 Q1196.36 992.132 1196.36 983.249 Q1196.36 974.337 1194.07 969.91 Q1191.81 965.454 1187.27 965.454 M1187.27 960.824 Q1194.53 960.824 1198.35 966.582 Q1202.2 972.311 1202.2 983.249 Q1202.2 994.157 1198.35 999.915 Q1194.53 1005.64 1187.27 1005.64 Q1180.01 1005.64 1176.16 999.915 Q1172.34 994.157 1172.34 983.249 Q1172.34 972.311 1176.16 966.582 Q1180.01 960.824 1187.27 960.824 Z" fill="#000000" fill-rule="nonzero" fill-opacity="1" /><path clip-path="url(#clip450)" d="M1212.47 997.456 L1218.58 997.456 L1218.58 1004.81 L1212.47 1004.81 L1212.47 997.456 Z" fill="#000000" fill-rule="nonzero" fill-opacity="1" /><path clip-path="url(#clip450)" d="M1243.81 965.454 Q1239.3 965.454 1237.01 969.91 Q1234.75 974.337 1234.75 983.249 Q1234.75 992.132 1237.01 996.588 Q1239.3 1001.01 1243.81 1001.01 Q1248.35 1001.01 1250.61 996.588 Q1252.9 992.132 1252.9 983.249 Q1252.9 974.337 1250.61 969.91 Q1248.35 965.454 1243.81 965.454 M1243.81 960.824 Q1251.07 960.824 1254.89 966.582 Q1258.74 972.311 1258.74 983.249 Q1258.74 994.157 1254.89 999.915 Q1251.07 1005.64 1243.81 1005.64 Q1236.55 1005.64 1232.7 999.915 Q1228.88 994.157 1228.88 983.249 Q1228.88 972.311 1232.7 966.582 Q1236.55 960.824 1243.81 960.824 Z" fill="#000000" fill-rule="nonzero" fill-opacity="1" /><path clip-path="url(#clip450)" d="M1285.07 966.698 L1270.31 989.759 L1285.07 989.759 L1285.07 966.698 M1283.54 961.605 L1290.89 961.605 L1290.89 989.759 L1297.05 989.759 L1297.05 994.62 L1290.89 994.62 L1290.89 1004.81 L1285.07 1004.81 L1285.07 994.62 L1265.57 994.62 L1265.57 988.978 L1283.54 961.605 Z" fill="#000000" fill-rule="nonzero" fill-opacity="1" /><path clip-path="url(#clip450)" d="M1319.21 984.29 Q1315.05 984.29 1312.65 986.518 Q1310.27 988.746 1310.27 992.652 Q1310.27 996.559 1312.65 998.787 Q1315.05 1001.01 1319.21 1001.01 Q1323.38 1001.01 1325.78 998.787 Q1328.18 996.53 1328.18 992.652 Q1328.18 988.746 1325.78 986.518 Q1323.41 984.29 1319.21 984.29 M1313.37 981.802 Q1309.61 980.876 1307.5 978.301 Q1305.41 975.725 1305.41 972.022 Q1305.41 966.842 1309.09 963.833 Q1312.79 960.824 1319.21 960.824 Q1325.67 960.824 1329.34 963.833 Q1333.02 966.842 1333.02 972.022 Q1333.02 975.725 1330.9 978.301 Q1328.82 980.876 1325.09 981.802 Q1329.31 982.786 1331.66 985.65 Q1334.03 988.515 1334.03 992.652 Q1334.03 998.931 1330.18 1002.29 Q1326.36 1005.64 1319.21 1005.64 Q1312.07 1005.64 1308.22 1002.29 Q1304.4 998.931 1304.4 992.652 Q1304.4 988.515 1306.77 985.65 Q1309.15 982.786 1313.37 981.802 M1311.23 972.572 Q1311.23 975.928 1313.31 977.809 Q1315.42 979.69 1319.21 979.69 Q1322.98 979.69 1325.09 977.809 Q1327.23 975.928 1327.23 972.572 Q1327.23 969.215 1325.09 967.334 Q1322.98 965.454 1319.21 965.454 Q1315.42 965.454 1313.31 967.334 Q1311.23 969.215 1311.23 972.572 Z" fill="#000000" fill-rule="nonzero" fill-opacity="1" /><path clip-path="url(#clip450)" d="M1344.47 961.605 L1367.42 961.605 L1367.42 966.524 L1349.83 966.524 L1349.83 977.114 Q1351.1 976.68 1352.37 976.478 Q1353.65 976.246 1354.92 976.246 Q1362.15 976.246 1366.38 980.21 Q1370.6 984.174 1370.6 990.945 Q1370.6 997.919 1366.26 1001.8 Q1361.92 1005.64 1354.02 1005.64 Q1351.3 1005.64 1348.47 1005.18 Q1345.66 1004.72 1342.65 1003.79 L1342.65 997.919 Q1345.26 999.336 1348.03 1000.03 Q1350.81 1000.73 1353.91 1000.73 Q1358.91 1000.73 1361.84 998.092 Q1364.76 995.459 1364.76 990.945 Q1364.76 986.431 1361.84 983.798 Q1358.91 981.165 1353.91 981.165 Q1351.56 981.165 1349.22 981.686 Q1346.91 982.207 1344.47 983.306 L1344.47 961.605 Z" fill="#000000" fill-rule="nonzero" fill-opacity="1" /><path clip-path="url(#clip450)" d="M1667.25 965.454 Q1662.74 965.454 1660.45 969.91 Q1658.2 974.337 1658.2 983.249 Q1658.2 992.132 1660.45 996.588 Q1662.74 1001.01 1667.25 1001.01 Q1671.8 1001.01 1674.05 996.588 Q1676.34 992.132 1676.34 983.249 Q1676.34 974.337 1674.05 969.91 Q1671.8 965.454 1667.25 965.454 M1667.25 960.824 Q1674.52 960.824 1678.34 966.582 Q1682.19 972.311 1682.19 983.249 Q1682.19 994.157 1678.34 999.915 Q1674.52 1005.64 1667.25 1005.64 Q1659.99 1005.64 1656.14 999.915 Q1652.32 994.157 1652.32 983.249 Q1652.32 972.311 1656.14 966.582 Q1659.99 960.824 1667.25 960.824 Z" fill="#000000" fill-rule="nonzero" fill-opacity="1" /><path clip-path="url(#clip450)" d="M1692.46 997.456 L1698.56 997.456 L1698.56 1004.81 L1692.46 1004.81 L1692.46 997.456 Z" fill="#000000" fill-rule="nonzero" fill-opacity="1" /><path clip-path="url(#clip450)" d="M1712.31 999.886 L1721.86 999.886 L1721.86 966.929 L1711.47 969.013 L1711.47 963.688 L1721.8 961.605 L1727.64 961.605 L1727.64 999.886 L1737.19 999.886 L1737.19 1004.81 L1712.31 1004.81 L1712.31 999.886 Z" fill="#000000" fill-rule="nonzero" fill-opacity="1" /><path clip-path="url(#clip450)" d="M1754.03 999.886 L1774.43 999.886 L1774.43 1004.81 L1747 1004.81 L1747 999.886 Q1750.33 996.443 1756.06 990.656 Q1761.81 984.84 1763.29 983.162 Q1766.1 980.008 1767.2 977.838 Q1768.32 975.639 1768.32 973.526 Q1768.32 970.083 1765.89 967.913 Q1763.49 965.743 1759.62 965.743 Q1756.87 965.743 1753.8 966.698 Q1750.76 967.653 1747.29 969.591 L1747.29 963.688 Q1750.82 962.271 1753.89 961.547 Q1756.95 960.824 1759.5 960.824 Q1766.21 960.824 1770.21 964.18 Q1774.2 967.537 1774.2 973.15 Q1774.2 975.812 1773.19 978.214 Q1772.2 980.587 1769.57 983.827 Q1768.85 984.666 1764.97 988.688 Q1761.09 992.681 1754.03 999.886 Z" fill="#000000" fill-rule="nonzero" fill-opacity="1" /><path clip-path="url(#clip450)" d="M1804.41 981.512 Q1808.6 982.409 1810.95 985.245 Q1813.32 988.081 1813.32 992.247 Q1813.32 998.642 1808.92 1002.14 Q1804.52 1005.64 1796.42 1005.64 Q1793.7 1005.64 1790.81 1005.09 Q1787.94 1004.57 1784.88 1003.5 L1784.88 997.861 Q1787.31 999.279 1790.2 1000 Q1793.09 1000.73 1796.25 1000.73 Q1801.74 1000.73 1804.61 998.555 Q1807.5 996.385 1807.5 992.247 Q1807.5 988.428 1804.81 986.287 Q1802.15 984.117 1797.38 984.117 L1792.34 984.117 L1792.34 979.313 L1797.61 979.313 Q1801.92 979.313 1804.2 977.606 Q1806.49 975.87 1806.49 972.629 Q1806.49 969.302 1804.12 967.537 Q1801.77 965.743 1797.38 965.743 Q1794.97 965.743 1792.23 966.264 Q1789.48 966.785 1786.18 967.884 L1786.18 962.676 Q1789.51 961.75 1792.4 961.287 Q1795.32 960.824 1797.9 960.824 Q1804.55 960.824 1808.43 963.862 Q1812.31 966.871 1812.31 972.022 Q1812.31 975.61 1810.25 978.098 Q1808.2 980.558 1804.41 981.512 Z" fill="#000000" fill-rule="nonzero" fill-opacity="1" /></svg>
