<?xml version="1.0" encoding="utf-8"?>
<svg xmlns="http://www.w3.org/2000/svg" xmlns:xlink="http://www.w3.org/1999/xlink" width="512" height="288" viewBox="0 0 2048 1152">
<defs>
  <clipPath id="clip510">
    <rect x="0" y="0" width="2048" height="1152"/>
  </clipPath>
</defs>
<path clip-path="url(#clip510)" d="M0 1152 L2048 1152 L2048 0 L0 0  Z" fill="#ffffff" fill-rule="evenodd" fill-opacity="1"/>
<defs>
  <clipPath id="clip511">
    <rect x="409" y="0" width="1435" height="1152"/>
  </clipPath>
</defs>
<path clip-path="url(#clip510)" d="M47.2441 1104.76 L2000.76 1104.76 L2000.76 47.2441 L47.2441 47.2441  Z" fill="#ffffff" fill-rule="evenodd" fill-opacity="1"/>
<defs>
  <clipPath id="clip512">
    <rect x="47" y="47" width="1955" height="1059"/>
  </clipPath>
</defs>
<path clip-path="url(#clip512)" d="M811.354 77.1737 L1236.65 77.1737 L1236.65 260.416 L811.354 260.416 L811.354 77.1737  Z" fill="#e6ebf1" fill-rule="evenodd" fill-opacity="1"/>
<polyline clip-path="url(#clip512)" style="stroke:#000000; stroke-linecap:round; stroke-linejoin:round; stroke-width:0; stroke-opacity:1; fill:none" points="811.354,77.1737 1236.65,77.1737 1236.65,260.416 811.354,260.416 811.354,77.1737 "/>
<path clip-path="url(#clip512)" d="M338.806 484.379 L764.099 484.379 L764.099 667.621 L338.806 667.621 L338.806 484.379  Z" fill="#e6ebf1" fill-rule="evenodd" fill-opacity="1"/>
<polyline clip-path="url(#clip512)" style="stroke:#000000; stroke-linecap:round; stroke-linejoin:round; stroke-width:0; stroke-opacity:1; fill:none" points="338.806,484.379 764.099,484.379 764.099,667.621 338.806,667.621 338.806,484.379 "/>
<path clip-path="url(#clip512)" d="M1283.9 484.379 L1709.19 484.379 L1709.19 667.621 L1283.9 667.621 L1283.9 484.379  Z" fill="#e6ebf1" fill-rule="evenodd" fill-opacity="1"/>
<polyline clip-path="url(#clip512)" style="stroke:#000000; stroke-linecap:round; stroke-linejoin:round; stroke-width:0; stroke-opacity:1; fill:none" points="1283.9,484.379 1709.19,484.379 1709.19,667.621 1283.9,667.621 1283.9,484.379 "/>
<path clip-path="url(#clip512)" d="M102.532 891.584 L527.825 891.584 L527.825 1074.83 L102.532 1074.83 L102.532 891.584  Z" fill="#26a671" fill-rule="evenodd" fill-opacity="1"/>
<polyline clip-path="url(#clip512)" style="stroke:#000000; stroke-linecap:round; stroke-linejoin:round; stroke-width:0; stroke-opacity:1; fill:none" points="102.532,891.584 527.825,891.584 527.825,1074.83 102.532,1074.83 102.532,891.584 "/>
<path clip-path="url(#clip512)" d="M575.08 891.584 L1000.37 891.584 L1000.37 1074.83 L575.08 1074.83 L575.08 891.584  Z" fill="#26a671" fill-rule="evenodd" fill-opacity="1"/>
<polyline clip-path="url(#clip512)" style="stroke:#000000; stroke-linecap:round; stroke-linejoin:round; stroke-width:0; stroke-opacity:1; fill:none" points="575.08,891.584 1000.37,891.584 1000.37,1074.83 575.08,1074.83 575.08,891.584 "/>
<path clip-path="url(#clip512)" d="M1047.63 891.584 L1472.92 891.584 L1472.92 1074.83 L1047.63 1074.83 L1047.63 891.584  Z" fill="#26a671" fill-rule="evenodd" fill-opacity="1"/>
<polyline clip-path="url(#clip512)" style="stroke:#000000; stroke-linecap:round; stroke-linejoin:round; stroke-width:0; stroke-opacity:1; fill:none" points="1047.63,891.584 1472.92,891.584 1472.92,1074.83 1047.63,1074.83 1047.63,891.584 "/>
<path clip-path="url(#clip512)" d="M1520.17 891.584 L1945.47 891.584 L1945.47 1074.83 L1520.17 1074.83 L1520.17 891.584  Z" fill="#26a671" fill-rule="evenodd" fill-opacity="1"/>
<polyline clip-path="url(#clip512)" style="stroke:#000000; stroke-linecap:round; stroke-linejoin:round; stroke-width:0; stroke-opacity:1; fill:none" points="1520.17,891.584 1945.47,891.584 1945.47,1074.83 1520.17,1074.83 1520.17,891.584 "/>
<polyline clip-path="url(#clip512)" style="stroke:#000000; stroke-linecap:round; stroke-linejoin:round; stroke-width:4; stroke-opacity:1; fill:none" points="1024,260.416 1007.71,268.139 991.411,275.862 975.116,283.585 958.821,291.307 942.526,299.03 926.232,306.753 909.937,314.476 893.642,322.199 877.347,329.922 861.053,337.645 844.758,345.367 828.463,353.09 812.168,360.813 795.874,368.536 779.579,376.259 763.284,383.982 746.989,391.705 730.695,399.427 714.4,407.15 698.105,414.873 681.81,422.596 665.516,430.319 649.221,438.042 632.926,445.765 616.631,453.487 600.337,461.21 584.042,468.933 567.747,476.656 551.452,484.379 "/>
<polyline clip-path="url(#clip512)" style="stroke:#000000; stroke-linecap:round; stroke-linejoin:round; stroke-width:4; stroke-opacity:1; fill:none" points="1024,260.416 1040.29,268.139 1056.59,275.862 1072.88,283.585 1089.18,291.307 1105.47,299.03 1121.77,306.753 1138.06,314.476 1154.36,322.199 1170.65,329.922 1186.95,337.645 1203.24,345.367 1219.54,353.09 1235.83,360.813 1252.13,368.536 1268.42,376.259 1284.72,383.982 1301.01,391.705 1317.31,399.427 1333.6,407.15 1349.89,414.873 1366.19,422.596 1382.48,430.319 1398.78,438.042 1415.07,445.765 1431.37,453.487 1447.66,461.21 1463.96,468.933 1480.25,476.656 1496.55,484.379 "/>
<polyline clip-path="url(#clip512)" style="stroke:#000000; stroke-linecap:round; stroke-linejoin:round; stroke-width:4; stroke-opacity:1; fill:none" points="551.452,667.621 543.305,675.344 535.158,683.067 527.01,690.79 518.863,698.513 510.716,706.235 502.568,713.958 494.421,721.681 486.273,729.404 478.126,737.127 469.979,744.85 461.831,752.573 453.684,760.295 445.537,768.018 437.389,775.741 429.242,783.464 421.094,791.187 412.947,798.91 404.8,806.633 396.652,814.355 388.505,822.078 380.358,829.801 372.21,837.524 364.063,845.247 355.915,852.97 347.768,860.693 339.621,868.415 331.473,876.138 323.326,883.861 315.179,891.584 "/>
<polyline clip-path="url(#clip512)" style="stroke:#000000; stroke-linecap:round; stroke-linejoin:round; stroke-width:4; stroke-opacity:1; fill:none" points="551.452,667.621 559.6,675.344 567.747,683.067 575.895,690.79 584.042,698.513 592.189,706.235 600.337,713.958 608.484,721.681 616.631,729.404 624.779,737.127 632.926,744.85 641.073,752.573 649.221,760.295 657.368,768.018 665.516,775.741 673.663,783.464 681.81,791.187 689.958,798.91 698.105,806.633 706.252,814.355 714.4,822.078 722.547,829.801 730.695,837.524 738.842,845.247 746.989,852.97 755.137,860.693 763.284,868.415 771.431,876.138 779.579,883.861 787.726,891.584 "/>
<polyline clip-path="url(#clip512)" style="stroke:#000000; stroke-linecap:round; stroke-linejoin:round; stroke-width:4; stroke-opacity:1; fill:none" points="1496.55,667.621 1488.4,675.344 1480.25,683.067 1472.11,690.79 1463.96,698.513 1455.81,706.235 1447.66,713.958 1439.52,721.681 1431.37,729.404 1423.22,737.127 1415.07,744.85 1406.93,752.573 1398.78,760.295 1390.63,768.018 1382.48,775.741 1374.34,783.464 1366.19,791.187 1358.04,798.91 1349.89,806.633 1341.75,814.355 1333.6,822.078 1325.45,829.801 1317.31,837.524 1309.16,845.247 1301.01,852.97 1292.86,860.693 1284.72,868.415 1276.57,876.138 1268.42,883.861 1260.27,891.584 "/>
<polyline clip-path="url(#clip512)" style="stroke:#000000; stroke-linecap:round; stroke-linejoin:round; stroke-width:4; stroke-opacity:1; fill:none" points="1496.55,667.621 1504.69,675.344 1512.84,683.067 1520.99,690.79 1529.14,698.513 1537.28,706.235 1545.43,713.958 1553.58,721.681 1561.73,729.404 1569.87,737.127 1578.02,744.85 1586.17,752.573 1594.32,760.295 1602.46,768.018 1610.61,775.741 1618.76,783.464 1626.91,791.187 1635.05,798.91 1643.2,806.633 1651.35,814.355 1659.5,822.078 1667.64,829.801 1675.79,837.524 1683.94,845.247 1692.08,852.97 1700.23,860.693 1708.38,868.415 1716.53,876.138 1724.67,883.861 1732.82,891.584 "/>
<path clip-path="url(#clip510)" d="M955.945 112.972 L955.945 117.399 L950.852 117.399 Q947.988 117.399 946.859 118.556 Q945.76 119.714 945.76 122.723 L945.76 125.588 L954.527 125.588 L954.527 129.725 L945.76 129.725 L945.76 157.995 L940.407 157.995 L940.407 129.725 L935.314 129.725 L935.314 125.588 L940.407 125.588 L940.407 123.331 Q940.407 117.92 942.924 115.46 Q945.441 112.972 950.91 112.972 L955.945 112.972 Z" fill="#000000" fill-rule="nonzero" fill-opacity="1" /><path clip-path="url(#clip510)" d="M988.121 140.46 L988.121 143.064 L963.642 143.064 Q963.989 148.562 966.94 151.456 Q969.92 154.32 975.216 154.32 Q978.283 154.32 981.147 153.568 Q984.041 152.815 986.876 151.311 L986.876 156.346 Q984.012 157.561 981.003 158.197 Q977.993 158.834 974.897 158.834 Q967.143 158.834 962.6 154.32 Q958.086 149.806 958.086 142.11 Q958.086 134.152 962.368 129.494 Q966.68 124.806 973.971 124.806 Q980.511 124.806 984.301 129.031 Q988.121 133.226 988.121 140.46 M982.797 138.898 Q982.739 134.529 980.337 131.924 Q977.964 129.32 974.029 129.32 Q969.573 129.32 966.882 131.838 Q964.22 134.355 963.815 138.927 L982.797 138.898 Z" fill="#000000" fill-rule="nonzero" fill-opacity="1" /><path clip-path="url(#clip510)" d="M1011.59 141.704 Q1005.13 141.704 1002.65 143.18 Q1000.16 144.656 1000.16 148.215 Q1000.16 151.05 1002.01 152.729 Q1003.89 154.378 1007.1 154.378 Q1011.53 154.378 1014.19 151.253 Q1016.88 148.099 1016.88 142.891 L1016.88 141.704 L1011.59 141.704 M1022.21 139.505 L1022.21 157.995 L1016.88 157.995 L1016.88 153.076 Q1015.06 156.027 1012.34 157.445 Q1009.62 158.834 1005.68 158.834 Q1000.71 158.834 997.756 156.056 Q994.833 153.249 994.833 148.562 Q994.833 143.093 998.479 140.316 Q1002.15 137.538 1009.42 137.538 L1016.88 137.538 L1016.88 137.017 Q1016.88 133.342 1014.45 131.346 Q1012.05 129.32 1007.68 129.32 Q1004.9 129.32 1002.27 129.986 Q999.637 130.651 997.206 131.982 L997.206 127.063 Q1000.13 125.935 1002.88 125.385 Q1005.63 124.806 1008.23 124.806 Q1015.26 124.806 1018.73 128.452 Q1022.21 132.098 1022.21 139.505 Z" fill="#000000" fill-rule="nonzero" fill-opacity="1" /><path clip-path="url(#clip510)" d="M1038.44 116.386 L1038.44 125.588 L1049.4 125.588 L1049.4 129.725 L1038.44 129.725 L1038.44 147.318 Q1038.44 151.282 1039.51 152.41 Q1040.61 153.539 1043.94 153.539 L1049.4 153.539 L1049.4 157.995 L1043.94 157.995 Q1037.77 157.995 1035.43 155.709 Q1033.09 153.394 1033.09 147.318 L1033.09 129.725 L1029.18 129.725 L1029.18 125.588 L1033.09 125.588 L1033.09 116.386 L1038.44 116.386 Z" fill="#000000" fill-rule="nonzero" fill-opacity="1" /><path clip-path="url(#clip510)" d="M1081.03 167.833 L1081.03 171.97 L1050.24 171.97 L1050.24 167.833 L1081.03 167.833 Z" fill="#000000" fill-rule="nonzero" fill-opacity="1" /><path clip-path="url(#clip510)" d="M1087.8 153.076 L1097.35 153.076 L1097.35 120.119 L1086.96 122.202 L1086.96 116.878 L1097.29 114.795 L1103.14 114.795 L1103.14 153.076 L1112.69 153.076 L1112.69 157.995 L1087.8 157.995 L1087.8 153.076 Z" fill="#000000" fill-rule="nonzero" fill-opacity="1" /><path clip-path="url(#clip510)" d="M957.724 183.443 Q953.21 183.443 950.925 187.899 Q948.668 192.326 948.668 201.238 Q948.668 210.121 950.925 214.577 Q953.21 219.004 957.724 219.004 Q962.267 219.004 964.524 214.577 Q966.81 210.121 966.81 201.238 Q966.81 192.326 964.524 187.899 Q962.267 183.443 957.724 183.443 M957.724 178.814 Q964.987 178.814 968.806 184.572 Q972.655 190.301 972.655 201.238 Q972.655 212.147 968.806 217.905 Q964.987 223.634 957.724 223.634 Q950.462 223.634 946.613 217.905 Q942.794 212.147 942.794 201.238 Q942.794 190.301 946.613 184.572 Q950.462 178.814 957.724 178.814 Z" fill="#000000" fill-rule="nonzero" fill-opacity="1" /><path clip-path="url(#clip510)" d="M982.927 215.445 L989.032 215.445 L989.032 222.795 L982.927 222.795 L982.927 215.445 Z" fill="#000000" fill-rule="nonzero" fill-opacity="1" /><path clip-path="url(#clip510)" d="M1001.94 221.898 L1001.94 216.574 Q1004.14 217.615 1006.39 218.165 Q1008.65 218.715 1010.82 218.715 Q1016.61 218.715 1019.65 214.838 Q1022.71 210.931 1023.15 203.003 Q1021.47 205.492 1018.89 206.823 Q1016.32 208.154 1013.19 208.154 Q1006.71 208.154 1002.92 204.247 Q999.159 200.312 999.159 193.513 Q999.159 186.858 1003.09 182.836 Q1007.03 178.814 1013.57 178.814 Q1021.06 178.814 1025 184.572 Q1028.96 190.301 1028.96 201.238 Q1028.96 211.452 1024.1 217.558 Q1019.27 223.634 1011.08 223.634 Q1008.88 223.634 1006.62 223.2 Q1004.37 222.766 1001.94 221.898 M1013.57 203.582 Q1017.5 203.582 1019.79 200.891 Q1022.1 198.2 1022.1 193.513 Q1022.1 188.854 1019.79 186.163 Q1017.5 183.443 1013.57 183.443 Q1009.63 183.443 1007.32 186.163 Q1005.03 188.854 1005.03 193.513 Q1005.03 198.2 1007.32 200.891 Q1009.63 203.582 1013.57 203.582 Z" fill="#000000" fill-rule="nonzero" fill-opacity="1" /><path clip-path="url(#clip510)" d="M1055.52 184.687 L1040.77 207.749 L1055.52 207.749 L1055.52 184.687 M1053.99 179.595 L1061.34 179.595 L1061.34 207.749 L1067.5 207.749 L1067.5 212.61 L1061.34 212.61 L1061.34 222.795 L1055.52 222.795 L1055.52 212.61 L1036.02 212.61 L1036.02 206.967 L1053.99 179.595 Z" fill="#000000" fill-rule="nonzero" fill-opacity="1" /><path clip-path="url(#clip510)" d="M1093.23 184.687 L1078.47 207.749 L1093.23 207.749 L1093.23 184.687 M1091.69 179.595 L1099.04 179.595 L1099.04 207.749 L1105.21 207.749 L1105.21 212.61 L1099.04 212.61 L1099.04 222.795 L1093.23 222.795 L1093.23 212.61 L1073.72 212.61 L1073.72 206.967 L1091.69 179.595 Z" fill="#000000" fill-rule="nonzero" fill-opacity="1" /><path clip-path="url(#clip510)" d="M483.397 520.177 L483.397 524.604 L478.305 524.604 Q475.44 524.604 474.312 525.762 Q473.212 526.919 473.212 529.928 L473.212 532.793 L481.979 532.793 L481.979 536.93 L473.212 536.93 L473.212 565.2 L467.859 565.2 L467.859 536.93 L462.767 536.93 L462.767 532.793 L467.859 532.793 L467.859 530.536 Q467.859 525.125 470.376 522.666 Q472.894 520.177 478.363 520.177 L483.397 520.177 Z" fill="#000000" fill-rule="nonzero" fill-opacity="1" /><path clip-path="url(#clip510)" d="M515.573 547.665 L515.573 550.27 L491.094 550.27 Q491.441 555.767 494.393 558.661 Q497.373 561.525 502.668 561.525 Q505.735 561.525 508.6 560.773 Q511.493 560.021 514.329 558.516 L514.329 563.551 Q511.464 564.766 508.455 565.403 Q505.446 566.039 502.35 566.039 Q494.595 566.039 490.052 561.525 Q485.538 557.011 485.538 549.315 Q485.538 541.358 489.821 536.699 Q494.132 532.012 501.424 532.012 Q507.963 532.012 511.754 536.236 Q515.573 540.432 515.573 547.665 M510.249 546.103 Q510.191 541.734 507.789 539.13 Q505.417 536.525 501.482 536.525 Q497.026 536.525 494.335 539.043 Q491.673 541.56 491.268 546.132 L510.249 546.103 Z" fill="#000000" fill-rule="nonzero" fill-opacity="1" /><path clip-path="url(#clip510)" d="M539.039 548.91 Q532.587 548.91 530.098 550.385 Q527.61 551.861 527.61 555.42 Q527.61 558.256 529.462 559.934 Q531.343 561.583 534.554 561.583 Q538.981 561.583 541.643 558.458 Q544.334 555.304 544.334 550.096 L544.334 548.91 L539.039 548.91 M549.658 546.711 L549.658 565.2 L544.334 565.2 L544.334 560.281 Q542.511 563.232 539.792 564.65 Q537.072 566.039 533.137 566.039 Q528.16 566.039 525.208 563.261 Q522.286 560.455 522.286 555.767 Q522.286 550.298 525.932 547.521 Q529.606 544.743 536.869 544.743 L544.334 544.743 L544.334 544.222 Q544.334 540.547 541.904 538.551 Q539.502 536.525 535.133 536.525 Q532.355 536.525 529.722 537.191 Q527.089 537.856 524.659 539.187 L524.659 534.268 Q527.581 533.14 530.33 532.59 Q533.079 532.012 535.683 532.012 Q542.714 532.012 546.186 535.657 Q549.658 539.303 549.658 546.711 Z" fill="#000000" fill-rule="nonzero" fill-opacity="1" /><path clip-path="url(#clip510)" d="M565.891 523.591 L565.891 532.793 L576.857 532.793 L576.857 536.93 L565.891 536.93 L565.891 554.523 Q565.891 558.487 566.962 559.616 Q568.061 560.744 571.389 560.744 L576.857 560.744 L576.857 565.2 L571.389 565.2 Q565.225 565.2 562.882 562.914 Q560.538 560.599 560.538 554.523 L560.538 536.93 L556.632 536.93 L556.632 532.793 L560.538 532.793 L560.538 523.591 L565.891 523.591 Z" fill="#000000" fill-rule="nonzero" fill-opacity="1" /><path clip-path="url(#clip510)" d="M608.483 575.038 L608.483 579.176 L577.696 579.176 L577.696 575.038 L608.483 575.038 Z" fill="#000000" fill-rule="nonzero" fill-opacity="1" /><path clip-path="url(#clip510)" d="M615.254 560.281 L624.803 560.281 L624.803 527.324 L614.415 529.407 L614.415 524.083 L624.745 522 L630.59 522 L630.59 560.281 L640.138 560.281 L640.138 565.2 L615.254 565.2 L615.254 560.281 Z" fill="#000000" fill-rule="nonzero" fill-opacity="1" /><path clip-path="url(#clip510)" d="M459.757 611.395 L475.353 611.395 L475.353 616.14 L459.757 616.14 L459.757 611.395 Z" fill="#000000" fill-rule="nonzero" fill-opacity="1" /><path clip-path="url(#clip510)" d="M497.083 590.648 Q492.57 590.648 490.284 595.104 Q488.027 599.531 488.027 608.443 Q488.027 617.326 490.284 621.782 Q492.57 626.21 497.083 626.21 Q501.626 626.21 503.883 621.782 Q506.169 617.326 506.169 608.443 Q506.169 599.531 503.883 595.104 Q501.626 590.648 497.083 590.648 M497.083 586.019 Q504.346 586.019 508.166 591.777 Q512.014 597.506 512.014 608.443 Q512.014 619.352 508.166 625.11 Q504.346 630.839 497.083 630.839 Q489.821 630.839 485.972 625.11 Q482.153 619.352 482.153 608.443 Q482.153 597.506 485.972 591.777 Q489.821 586.019 497.083 586.019 Z" fill="#000000" fill-rule="nonzero" fill-opacity="1" /><path clip-path="url(#clip510)" d="M522.286 622.651 L528.391 622.651 L528.391 630 L522.286 630 L522.286 622.651 Z" fill="#000000" fill-rule="nonzero" fill-opacity="1" /><path clip-path="url(#clip510)" d="M553.623 590.648 Q549.109 590.648 546.823 595.104 Q544.566 599.531 544.566 608.443 Q544.566 617.326 546.823 621.782 Q549.109 626.21 553.623 626.21 Q558.165 626.21 560.422 621.782 Q562.708 617.326 562.708 608.443 Q562.708 599.531 560.422 595.104 Q558.165 590.648 553.623 590.648 M553.623 586.019 Q560.885 586.019 564.705 591.777 Q568.553 597.506 568.553 608.443 Q568.553 619.352 564.705 625.11 Q560.885 630.839 553.623 630.839 Q546.36 630.839 542.511 625.11 Q538.692 619.352 538.692 608.443 Q538.692 597.506 542.511 591.777 Q546.36 586.019 553.623 586.019 Z" fill="#000000" fill-rule="nonzero" fill-opacity="1" /><path clip-path="url(#clip510)" d="M579.838 625.081 L589.386 625.081 L589.386 592.124 L578.999 594.207 L578.999 588.883 L589.328 586.8 L595.173 586.8 L595.173 625.081 L604.722 625.081 L604.722 630 L579.838 630 L579.838 625.081 Z" fill="#000000" fill-rule="nonzero" fill-opacity="1" /><path clip-path="url(#clip510)" d="M634.236 606.707 Q638.431 607.604 640.775 610.44 Q643.148 613.276 643.148 617.442 Q643.148 623.837 638.749 627.338 Q634.351 630.839 626.249 630.839 Q623.53 630.839 620.636 630.289 Q617.771 629.769 614.704 628.698 L614.704 623.056 Q617.135 624.473 620.028 625.197 Q622.922 625.92 626.076 625.92 Q631.573 625.92 634.438 623.75 Q637.332 621.58 637.332 617.442 Q637.332 613.623 634.641 611.482 Q631.979 609.311 627.204 609.311 L622.17 609.311 L622.17 604.508 L627.436 604.508 Q631.747 604.508 634.033 602.801 Q636.319 601.065 636.319 597.824 Q636.319 594.497 633.946 592.732 Q631.602 590.938 627.204 590.938 Q624.803 590.938 622.054 591.459 Q619.305 591.979 616.006 593.079 L616.006 587.871 Q619.334 586.945 622.227 586.482 Q625.15 586.019 627.725 586.019 Q634.38 586.019 638.257 589.057 Q642.135 592.066 642.135 597.217 Q642.135 600.805 640.08 603.293 Q638.026 605.752 634.236 606.707 Z" fill="#000000" fill-rule="nonzero" fill-opacity="1" /><path clip-path="url(#clip510)" d="M1428.49 520.177 L1428.49 524.604 L1423.4 524.604 Q1420.54 524.604 1419.41 525.762 Q1418.31 526.919 1418.31 529.928 L1418.31 532.793 L1427.07 532.793 L1427.07 536.93 L1418.31 536.93 L1418.31 565.2 L1412.95 565.2 L1412.95 536.93 L1407.86 536.93 L1407.86 532.793 L1412.95 532.793 L1412.95 530.536 Q1412.95 525.125 1415.47 522.666 Q1417.99 520.177 1423.46 520.177 L1428.49 520.177 Z" fill="#000000" fill-rule="nonzero" fill-opacity="1" /><path clip-path="url(#clip510)" d="M1460.67 547.665 L1460.67 550.27 L1436.19 550.27 Q1436.54 555.767 1439.49 558.661 Q1442.47 561.525 1447.76 561.525 Q1450.83 561.525 1453.69 560.773 Q1456.59 560.021 1459.42 558.516 L1459.42 563.551 Q1456.56 564.766 1453.55 565.403 Q1450.54 566.039 1447.44 566.039 Q1439.69 566.039 1435.15 561.525 Q1430.63 557.011 1430.63 549.315 Q1430.63 541.358 1434.92 536.699 Q1439.23 532.012 1446.52 532.012 Q1453.06 532.012 1456.85 536.236 Q1460.67 540.432 1460.67 547.665 M1455.34 546.103 Q1455.29 541.734 1452.88 539.13 Q1450.51 536.525 1446.58 536.525 Q1442.12 536.525 1439.43 539.043 Q1436.77 541.56 1436.36 546.132 L1455.34 546.103 Z" fill="#000000" fill-rule="nonzero" fill-opacity="1" /><path clip-path="url(#clip510)" d="M1484.13 548.91 Q1477.68 548.91 1475.19 550.385 Q1472.71 551.861 1472.71 555.42 Q1472.71 558.256 1474.56 559.934 Q1476.44 561.583 1479.65 561.583 Q1484.08 561.583 1486.74 558.458 Q1489.43 555.304 1489.43 550.096 L1489.43 548.91 L1484.13 548.91 M1494.75 546.711 L1494.75 565.2 L1489.43 565.2 L1489.43 560.281 Q1487.61 563.232 1484.89 564.65 Q1482.17 566.039 1478.23 566.039 Q1473.25 566.039 1470.3 563.261 Q1467.38 560.455 1467.38 555.767 Q1467.38 550.298 1471.03 547.521 Q1474.7 544.743 1481.96 544.743 L1489.43 544.743 L1489.43 544.222 Q1489.43 540.547 1487 538.551 Q1484.6 536.525 1480.23 536.525 Q1477.45 536.525 1474.82 537.191 Q1472.18 537.856 1469.75 539.187 L1469.75 534.268 Q1472.68 533.14 1475.43 532.59 Q1478.17 532.012 1480.78 532.012 Q1487.81 532.012 1491.28 535.657 Q1494.75 539.303 1494.75 546.711 Z" fill="#000000" fill-rule="nonzero" fill-opacity="1" /><path clip-path="url(#clip510)" d="M1510.99 523.591 L1510.99 532.793 L1521.95 532.793 L1521.95 536.93 L1510.99 536.93 L1510.99 554.523 Q1510.99 558.487 1512.06 559.616 Q1513.16 560.744 1516.48 560.744 L1521.95 560.744 L1521.95 565.2 L1516.48 565.2 Q1510.32 565.2 1507.98 562.914 Q1505.63 560.599 1505.63 554.523 L1505.63 536.93 L1501.73 536.93 L1501.73 532.793 L1505.63 532.793 L1505.63 523.591 L1510.99 523.591 Z" fill="#000000" fill-rule="nonzero" fill-opacity="1" /><path clip-path="url(#clip510)" d="M1553.58 575.038 L1553.58 579.176 L1522.79 579.176 L1522.79 575.038 L1553.58 575.038 Z" fill="#000000" fill-rule="nonzero" fill-opacity="1" /><path clip-path="url(#clip510)" d="M1560.35 560.281 L1569.9 560.281 L1569.9 527.324 L1559.51 529.407 L1559.51 524.083 L1569.84 522 L1575.68 522 L1575.68 560.281 L1585.23 560.281 L1585.23 565.2 L1560.35 565.2 L1560.35 560.281 Z" fill="#000000" fill-rule="nonzero" fill-opacity="1" /><path clip-path="url(#clip510)" d="M1437.64 625.081 L1447.18 625.081 L1447.18 592.124 L1436.8 594.207 L1436.8 588.883 L1447.13 586.8 L1452.97 586.8 L1452.97 625.081 L1462.52 625.081 L1462.52 630 L1437.64 630 L1437.64 625.081 Z" fill="#000000" fill-rule="nonzero" fill-opacity="1" /><path clip-path="url(#clip510)" d="M1474.33 622.651 L1480.43 622.651 L1480.43 630 L1474.33 630 L1474.33 622.651 Z" fill="#000000" fill-rule="nonzero" fill-opacity="1" /><path clip-path="url(#clip510)" d="M1493.34 629.103 L1493.34 623.779 Q1495.53 624.821 1497.79 625.37 Q1500.05 625.92 1502.22 625.92 Q1508.01 625.92 1511.04 622.043 Q1514.11 618.137 1514.55 610.208 Q1512.87 612.697 1510.29 614.028 Q1507.72 615.359 1504.59 615.359 Q1498.11 615.359 1494.32 611.453 Q1490.56 607.517 1490.56 600.718 Q1490.56 594.063 1494.49 590.041 Q1498.43 586.019 1504.97 586.019 Q1512.46 586.019 1516.4 591.777 Q1520.36 597.506 1520.36 608.443 Q1520.36 618.657 1515.5 624.763 Q1510.67 630.839 1502.48 630.839 Q1500.28 630.839 1498.02 630.405 Q1495.77 629.971 1493.34 629.103 M1504.97 610.787 Q1508.9 610.787 1511.19 608.096 Q1513.5 605.405 1513.5 600.718 Q1513.5 596.059 1511.19 593.368 Q1508.9 590.648 1504.97 590.648 Q1501.03 590.648 1498.72 593.368 Q1496.43 596.059 1496.43 600.718 Q1496.43 605.405 1498.72 608.096 Q1501.03 610.787 1504.97 610.787 Z" fill="#000000" fill-rule="nonzero" fill-opacity="1" /><path clip-path="url(#clip510)" d="M1535.9 625.081 L1556.3 625.081 L1556.3 630 L1528.87 630 L1528.87 625.081 Q1532.2 621.638 1537.92 615.851 Q1543.68 610.035 1545.16 608.357 Q1547.97 605.203 1549.06 603.033 Q1550.19 600.833 1550.19 598.721 Q1550.19 595.278 1547.76 593.108 Q1545.36 590.938 1541.48 590.938 Q1538.73 590.938 1535.67 591.893 Q1532.63 592.847 1529.16 594.786 L1529.16 588.883 Q1532.69 587.466 1535.75 586.742 Q1538.82 586.019 1541.37 586.019 Q1548.08 586.019 1552.07 589.375 Q1556.07 592.732 1556.07 598.345 Q1556.07 601.007 1555.05 603.409 Q1554.07 605.781 1551.44 609.022 Q1550.71 609.861 1546.84 613.883 Q1542.96 617.876 1535.9 625.081 Z" fill="#000000" fill-rule="nonzero" fill-opacity="1" /><path clip-path="url(#clip510)" d="M204.126 986.2 L219.722 986.2 L219.722 990.945 L204.126 990.945 L204.126 986.2 Z" fill="#000000" fill-rule="nonzero" fill-opacity="1" /><path clip-path="url(#clip510)" d="M241.452 965.454 Q236.938 965.454 234.652 969.91 Q232.395 974.337 232.395 983.249 Q232.395 992.132 234.652 996.588 Q236.938 1001.01 241.452 1001.01 Q245.995 1001.01 248.252 996.588 Q250.538 992.132 250.538 983.249 Q250.538 974.337 248.252 969.91 Q245.995 965.454 241.452 965.454 M241.452 960.824 Q248.715 960.824 252.534 966.582 Q256.383 972.311 256.383 983.249 Q256.383 994.157 252.534 999.915 Q248.715 1005.64 241.452 1005.64 Q234.189 1005.64 230.341 999.915 Q226.522 994.157 226.522 983.249 Q226.522 972.311 230.341 966.582 Q234.189 960.824 241.452 960.824 Z" fill="#000000" fill-rule="nonzero" fill-opacity="1" /><path clip-path="url(#clip510)" d="M266.655 997.456 L272.76 997.456 L272.76 1004.81 L266.655 1004.81 L266.655 997.456 Z" fill="#000000" fill-rule="nonzero" fill-opacity="1" /><path clip-path="url(#clip510)" d="M297.991 965.454 Q293.477 965.454 291.191 969.91 Q288.935 974.337 288.935 983.249 Q288.935 992.132 291.191 996.588 Q293.477 1001.01 297.991 1001.01 Q302.534 1001.01 304.791 996.588 Q307.077 992.132 307.077 983.249 Q307.077 974.337 304.791 969.91 Q302.534 965.454 297.991 965.454 M297.991 960.824 Q305.254 960.824 309.073 966.582 Q312.922 972.311 312.922 983.249 Q312.922 994.157 309.073 999.915 Q305.254 1005.64 297.991 1005.64 Q290.728 1005.64 286.88 999.915 Q283.061 994.157 283.061 983.249 Q283.061 972.311 286.88 966.582 Q290.728 960.824 297.991 960.824 Z" fill="#000000" fill-rule="nonzero" fill-opacity="1" /><path clip-path="url(#clip510)" d="M328.228 999.886 L348.627 999.886 L348.627 1004.81 L321.197 1004.81 L321.197 999.886 Q324.525 996.443 330.254 990.656 Q336.012 984.84 337.487 983.162 Q340.294 980.008 341.394 977.838 Q342.522 975.639 342.522 973.526 Q342.522 970.083 340.092 967.913 Q337.69 965.743 333.813 965.743 Q331.064 965.743 327.997 966.698 Q324.959 967.653 321.486 969.591 L321.486 963.688 Q325.016 962.271 328.084 961.547 Q331.151 960.824 333.697 960.824 Q340.41 960.824 344.403 964.18 Q348.396 967.537 348.396 973.15 Q348.396 975.812 347.383 978.214 Q346.399 980.587 343.766 983.827 Q343.043 984.666 339.166 988.688 Q335.288 992.681 328.228 999.886 Z" fill="#000000" fill-rule="nonzero" fill-opacity="1" /><path clip-path="url(#clip510)" d="M360.954 961.605 L383.899 961.605 L383.899 966.524 L366.307 966.524 L366.307 977.114 Q367.58 976.68 368.853 976.478 Q370.126 976.246 371.399 976.246 Q378.633 976.246 382.858 980.21 Q387.082 984.174 387.082 990.945 Q387.082 997.919 382.742 1001.8 Q378.402 1005.64 370.502 1005.64 Q367.782 1005.64 364.947 1005.18 Q362.14 1004.72 359.131 1003.79 L359.131 997.919 Q361.735 999.336 364.513 1000.03 Q367.291 1000.73 370.387 1000.73 Q375.392 1000.73 378.315 998.092 Q381.237 995.459 381.237 990.945 Q381.237 986.431 378.315 983.798 Q375.392 981.165 370.387 981.165 Q368.043 981.165 365.699 981.686 Q363.384 982.207 360.954 983.306 L360.954 961.605 Z" fill="#000000" fill-rule="nonzero" fill-opacity="1" /><path clip-path="url(#clip510)" d="M411.822 980.876 Q407.886 980.876 405.572 983.567 Q403.286 986.258 403.286 990.945 Q403.286 995.604 405.572 998.324 Q407.886 1001.01 411.822 1001.01 Q415.757 1001.01 418.043 998.324 Q420.357 995.604 420.357 990.945 Q420.357 986.258 418.043 983.567 Q415.757 980.876 411.822 980.876 M423.425 962.56 L423.425 967.884 Q421.225 966.842 418.969 966.293 Q416.741 965.743 414.541 965.743 Q408.754 965.743 405.687 969.649 Q402.649 973.555 402.215 981.455 Q403.922 978.937 406.498 977.606 Q409.073 976.246 412.169 976.246 Q418.679 976.246 422.441 980.21 Q426.231 984.146 426.231 990.945 Q426.231 997.6 422.296 1001.62 Q418.361 1005.64 411.822 1005.64 Q404.327 1005.64 400.363 999.915 Q396.399 994.157 396.399 983.249 Q396.399 973.006 401.26 966.929 Q406.121 960.824 414.31 960.824 Q416.509 960.824 418.737 961.258 Q420.994 961.692 423.425 962.56 Z" fill="#000000" fill-rule="nonzero" fill-opacity="1" /><path clip-path="url(#clip510)" d="M677.339 986.2 L692.935 986.2 L692.935 990.945 L677.339 990.945 L677.339 986.2 Z" fill="#000000" fill-rule="nonzero" fill-opacity="1" /><path clip-path="url(#clip510)" d="M714.665 965.454 Q710.151 965.454 707.866 969.91 Q705.609 974.337 705.609 983.249 Q705.609 992.132 707.866 996.588 Q710.151 1001.01 714.665 1001.01 Q719.208 1001.01 721.465 996.588 Q723.751 992.132 723.751 983.249 Q723.751 974.337 721.465 969.91 Q719.208 965.454 714.665 965.454 M714.665 960.824 Q721.928 960.824 725.747 966.582 Q729.596 972.311 729.596 983.249 Q729.596 994.157 725.747 999.915 Q721.928 1005.64 714.665 1005.64 Q707.403 1005.64 703.554 999.915 Q699.735 994.157 699.735 983.249 Q699.735 972.311 703.554 966.582 Q707.403 960.824 714.665 960.824 Z" fill="#000000" fill-rule="nonzero" fill-opacity="1" /><path clip-path="url(#clip510)" d="M739.868 997.456 L745.973 997.456 L745.973 1004.81 L739.868 1004.81 L739.868 997.456 Z" fill="#000000" fill-rule="nonzero" fill-opacity="1" /><path clip-path="url(#clip510)" d="M771.204 965.454 Q766.69 965.454 764.405 969.91 Q762.148 974.337 762.148 983.249 Q762.148 992.132 764.405 996.588 Q766.69 1001.01 771.204 1001.01 Q775.747 1001.01 778.004 996.588 Q780.29 992.132 780.29 983.249 Q780.29 974.337 778.004 969.91 Q775.747 965.454 771.204 965.454 M771.204 960.824 Q778.467 960.824 782.286 966.582 Q786.135 972.311 786.135 983.249 Q786.135 994.157 782.286 999.915 Q778.467 1005.64 771.204 1005.64 Q763.942 1005.64 760.093 999.915 Q756.274 994.157 756.274 983.249 Q756.274 972.311 760.093 966.582 Q763.942 960.824 771.204 960.824 Z" fill="#000000" fill-rule="nonzero" fill-opacity="1" /><path clip-path="url(#clip510)" d="M812.466 966.698 L797.709 989.759 L812.466 989.759 L812.466 966.698 M810.932 961.605 L818.282 961.605 L818.282 989.759 L824.445 989.759 L824.445 994.62 L818.282 994.62 L818.282 1004.81 L812.466 1004.81 L812.466 994.62 L792.963 994.62 L792.963 988.978 L810.932 961.605 Z" fill="#000000" fill-rule="nonzero" fill-opacity="1" /><path clip-path="url(#clip510)" d="M835.122 999.886 L844.67 999.886 L844.67 966.929 L834.283 969.013 L834.283 963.688 L844.612 961.605 L850.457 961.605 L850.457 999.886 L860.006 999.886 L860.006 1004.81 L835.122 1004.81 L835.122 999.886 Z" fill="#000000" fill-rule="nonzero" fill-opacity="1" /><path clip-path="url(#clip510)" d="M870.336 961.605 L898.113 961.605 L898.113 964.094 L882.431 1004.81 L876.325 1004.81 L891.082 966.524 L870.336 966.524 L870.336 961.605 Z" fill="#000000" fill-rule="nonzero" fill-opacity="1" /><path clip-path="url(#clip510)" d="M1176.01 965.454 Q1171.5 965.454 1169.22 969.91 Q1166.96 974.337 1166.96 983.249 Q1166.96 992.132 1169.22 996.588 Q1171.5 1001.01 1176.01 1001.01 Q1180.56 1001.01 1182.81 996.588 Q1185.1 992.132 1185.1 983.249 Q1185.1 974.337 1182.81 969.91 Q1180.56 965.454 1176.01 965.454 M1176.01 960.824 Q1183.28 960.824 1187.1 966.582 Q1190.95 972.311 1190.95 983.249 Q1190.95 994.157 1187.1 999.915 Q1183.28 1005.64 1176.01 1005.64 Q1168.75 1005.64 1164.9 999.915 Q1161.08 994.157 1161.08 983.249 Q1161.08 972.311 1164.9 966.582 Q1168.75 960.824 1176.01 960.824 Z" fill="#000000" fill-rule="nonzero" fill-opacity="1" /><path clip-path="url(#clip510)" d="M1201.22 997.456 L1207.32 997.456 L1207.32 1004.81 L1201.22 1004.81 L1201.22 997.456 Z" fill="#000000" fill-rule="nonzero" fill-opacity="1" /><path clip-path="url(#clip510)" d="M1232.55 965.454 Q1228.04 965.454 1225.75 969.91 Q1223.5 974.337 1223.5 983.249 Q1223.5 992.132 1225.75 996.588 Q1228.04 1001.01 1232.55 1001.01 Q1237.1 1001.01 1239.35 996.588 Q1241.64 992.132 1241.64 983.249 Q1241.64 974.337 1239.35 969.91 Q1237.1 965.454 1232.55 965.454 M1232.55 960.824 Q1239.82 960.824 1243.64 966.582 Q1247.48 972.311 1247.48 983.249 Q1247.48 994.157 1243.64 999.915 Q1239.82 1005.64 1232.55 1005.64 Q1225.29 1005.64 1221.44 999.915 Q1217.62 994.157 1217.62 983.249 Q1217.62 972.311 1221.44 966.582 Q1225.29 960.824 1232.55 960.824 Z" fill="#000000" fill-rule="nonzero" fill-opacity="1" /><path clip-path="url(#clip510)" d="M1256.28 961.605 L1284.06 961.605 L1284.06 964.094 L1268.38 1004.81 L1262.27 1004.81 L1277.03 966.524 L1256.28 966.524 L1256.28 961.605 Z" fill="#000000" fill-rule="nonzero" fill-opacity="1" /><path clip-path="url(#clip510)" d="M1313.17 981.512 Q1317.36 982.409 1319.71 985.245 Q1322.08 988.081 1322.08 992.247 Q1322.08 998.642 1317.68 1002.14 Q1313.28 1005.64 1305.18 1005.64 Q1302.46 1005.64 1299.57 1005.09 Q1296.7 1004.57 1293.64 1003.5 L1293.64 997.861 Q1296.07 999.279 1298.96 1000 Q1301.85 1000.73 1305.01 1000.73 Q1310.51 1000.73 1313.37 998.555 Q1316.26 996.385 1316.26 992.247 Q1316.26 988.428 1313.57 986.287 Q1310.91 984.117 1306.14 984.117 L1301.1 984.117 L1301.1 979.313 L1306.37 979.313 Q1310.68 979.313 1312.96 977.606 Q1315.25 975.87 1315.25 972.629 Q1315.25 969.302 1312.88 967.537 Q1310.53 965.743 1306.14 965.743 Q1303.73 965.743 1300.99 966.264 Q1298.24 966.785 1294.94 967.884 L1294.94 962.676 Q1298.27 961.75 1301.16 961.287 Q1304.08 960.824 1306.66 960.824 Q1313.31 960.824 1317.19 963.862 Q1321.07 966.871 1321.07 972.022 Q1321.07 975.61 1319.01 978.098 Q1316.96 980.558 1313.17 981.512 Z" fill="#000000" fill-rule="nonzero" fill-opacity="1" /><path clip-path="url(#clip510)" d="M1331.69 961.605 L1359.46 961.605 L1359.46 964.094 L1343.78 1004.81 L1337.68 1004.81 L1352.43 966.524 L1331.69 966.524 L1331.69 961.605 Z" fill="#000000" fill-rule="nonzero" fill-opacity="1" /><path clip-path="url(#clip510)" d="M1603.42 986.2 L1619.02 986.2 L1619.02 990.945 L1603.42 990.945 L1603.42 986.2 Z" fill="#000000" fill-rule="nonzero" fill-opacity="1" /><path clip-path="url(#clip510)" d="M1640.75 965.454 Q1636.24 965.454 1633.95 969.91 Q1631.69 974.337 1631.69 983.249 Q1631.69 992.132 1633.95 996.588 Q1636.24 1001.01 1640.75 1001.01 Q1645.29 1001.01 1647.55 996.588 Q1649.84 992.132 1649.84 983.249 Q1649.84 974.337 1647.55 969.91 Q1645.29 965.454 1640.75 965.454 M1640.75 960.824 Q1648.01 960.824 1651.83 966.582 Q1655.68 972.311 1655.68 983.249 Q1655.68 994.157 1651.83 999.915 Q1648.01 1005.64 1640.75 1005.64 Q1633.49 1005.64 1629.64 999.915 Q1625.82 994.157 1625.82 983.249 Q1625.82 972.311 1629.64 966.582 Q1633.49 960.824 1640.75 960.824 Z" fill="#000000" fill-rule="nonzero" fill-opacity="1" /><path clip-path="url(#clip510)" d="M1665.95 997.456 L1672.06 997.456 L1672.06 1004.81 L1665.95 1004.81 L1665.95 997.456 Z" fill="#000000" fill-rule="nonzero" fill-opacity="1" /><path clip-path="url(#clip510)" d="M1697.29 965.454 Q1692.78 965.454 1690.49 969.91 Q1688.23 974.337 1688.23 983.249 Q1688.23 992.132 1690.49 996.588 Q1692.78 1001.01 1697.29 1001.01 Q1701.83 1001.01 1704.09 996.588 Q1706.37 992.132 1706.37 983.249 Q1706.37 974.337 1704.09 969.91 Q1701.83 965.454 1697.29 965.454 M1697.29 960.824 Q1704.55 960.824 1708.37 966.582 Q1712.22 972.311 1712.22 983.249 Q1712.22 994.157 1708.37 999.915 Q1704.55 1005.64 1697.29 1005.64 Q1690.03 1005.64 1686.18 999.915 Q1682.36 994.157 1682.36 983.249 Q1682.36 972.311 1686.18 966.582 Q1690.03 960.824 1697.29 960.824 Z" fill="#000000" fill-rule="nonzero" fill-opacity="1" /><path clip-path="url(#clip510)" d="M1734.99 965.454 Q1730.48 965.454 1728.19 969.91 Q1725.93 974.337 1725.93 983.249 Q1725.93 992.132 1728.19 996.588 Q1730.48 1001.01 1734.99 1001.01 Q1739.53 1001.01 1741.79 996.588 Q1744.08 992.132 1744.08 983.249 Q1744.08 974.337 1741.79 969.91 Q1739.53 965.454 1734.99 965.454 M1734.99 960.824 Q1742.25 960.824 1746.07 966.582 Q1749.92 972.311 1749.92 983.249 Q1749.92 994.157 1746.07 999.915 Q1742.25 1005.64 1734.99 1005.64 Q1727.73 1005.64 1723.88 999.915 Q1720.06 994.157 1720.06 983.249 Q1720.06 972.311 1723.88 966.582 Q1727.73 960.824 1734.99 960.824 Z" fill="#000000" fill-rule="nonzero" fill-opacity="1" /><path clip-path="url(#clip510)" d="M1773.42 980.876 Q1769.48 980.876 1767.17 983.567 Q1764.88 986.258 1764.88 990.945 Q1764.88 995.604 1767.17 998.324 Q1769.48 1001.01 1773.42 1001.01 Q1777.35 1001.01 1779.64 998.324 Q1781.95 995.604 1781.95 990.945 Q1781.95 986.258 1779.64 983.567 Q1777.35 980.876 1773.42 980.876 M1785.02 962.56 L1785.02 967.884 Q1782.82 966.842 1780.56 966.293 Q1778.34 965.743 1776.14 965.743 Q1770.35 965.743 1767.28 969.649 Q1764.24 973.555 1763.81 981.455 Q1765.52 978.937 1768.09 977.606 Q1770.67 976.246 1773.76 976.246 Q1780.27 976.246 1784.04 980.21 Q1787.83 984.146 1787.83 990.945 Q1787.83 997.6 1783.89 1001.62 Q1779.96 1005.64 1773.42 1005.64 Q1765.92 1005.64 1761.96 999.915 Q1757.99 994.157 1757.99 983.249 Q1757.99 973.006 1762.86 966.929 Q1767.72 960.824 1775.91 960.824 Q1778.1 960.824 1780.33 961.258 Q1782.59 961.692 1785.02 962.56 Z" fill="#000000" fill-rule="nonzero" fill-opacity="1" /><path clip-path="url(#clip510)" d="M1813.96 966.698 L1799.2 989.759 L1813.96 989.759 L1813.96 966.698 M1812.42 961.605 L1819.77 961.605 L1819.77 989.759 L1825.93 989.759 L1825.93 994.62 L1819.77 994.62 L1819.77 1004.81 L1813.96 1004.81 L1813.96 994.62 L1794.45 994.62 L1794.45 988.978 L1812.42 961.605 Z" fill="#000000" fill-rule="nonzero" fill-opacity="1" /><path clip-path="url(#clip510)" d="M1853.31 981.512 Q1857.5 982.409 1859.85 985.245 Q1862.22 988.081 1862.22 992.247 Q1862.22 998.642 1857.82 1002.14 Q1853.42 1005.64 1845.32 1005.64 Q1842.6 1005.64 1839.71 1005.09 Q1836.84 1004.57 1833.78 1003.5 L1833.78 997.861 Q1836.21 999.279 1839.1 1000 Q1841.99 1000.73 1845.15 1000.73 Q1850.64 1000.73 1853.51 998.555 Q1856.4 996.385 1856.4 992.247 Q1856.4 988.428 1853.71 986.287 Q1851.05 984.117 1846.28 984.117 L1841.24 984.117 L1841.24 979.313 L1846.51 979.313 Q1850.82 979.313 1853.1 977.606 Q1855.39 975.87 1855.39 972.629 Q1855.39 969.302 1853.02 967.537 Q1850.67 965.743 1846.28 965.743 Q1843.87 965.743 1841.13 966.264 Q1838.38 966.785 1835.08 967.884 L1835.08 962.676 Q1838.41 961.75 1841.3 961.287 Q1844.22 960.824 1846.8 960.824 Q1853.45 960.824 1857.33 963.862 Q1861.21 966.871 1861.21 972.022 Q1861.21 975.61 1859.15 978.098 Q1857.1 980.558 1853.31 981.512 Z" fill="#000000" fill-rule="nonzero" fill-opacity="1" /></svg>
