<?xml version="1.0" encoding="utf-8"?>
<svg xmlns="http://www.w3.org/2000/svg" xmlns:xlink="http://www.w3.org/1999/xlink" width="128" height="96" viewBox="0 0 512 384">
<defs>
  <clipPath id="clip420">
    <rect x="0" y="0" width="512" height="384"/>
  </clipPath>
</defs>
<path clip-path="url(#clip420)" d="M0 384 L512 384 L512 0 L0 0  Z" fill="#ffffff" fill-rule="evenodd" fill-opacity="1"/>
<defs>
  <clipPath id="clip421">
    <rect x="102" y="0" width="359" height="359"/>
  </clipPath>
</defs>
<path clip-path="url(#clip420)" d="M47.2441 336.756 L464.756 336.756 L464.756 47.2441 L47.2441 47.2441  Z" fill="#ffffff" fill-rule="evenodd" fill-opacity="1"/>
<defs>
  <clipPath id="clip422">
    <rect x="47" y="47" width="419" height="291"/>
  </clipPath>
</defs>
<path clip-path="url(#clip422)" d="M59.0605 55.4378 L452.94 55.4378 L452.94 328.562 L59.0605 328.562 L59.0605 55.4378  Z" fill="#26a671" fill-rule="evenodd" fill-opacity="1"/>
<polyline clip-path="url(#clip422)" style="stroke:#000000; stroke-linecap:round; stroke-linejoin:round; stroke-width:0; stroke-opacity:1; fill:none" points="59.0605,55.4378 452.94,55.4378 452.94,328.562 59.0605,328.562 59.0605,55.4378 "/>
<path clip-path="url(#clip420)" d="M191.026 174.248 Q186.513 174.248 184.227 178.704 Q181.97 183.131 181.97 192.043 Q181.97 200.926 184.227 205.382 Q186.513 209.81 191.026 209.81 Q195.569 209.81 197.826 205.382 Q200.112 200.926 200.112 192.043 Q200.112 183.131 197.826 178.704 Q195.569 174.248 191.026 174.248 M191.026 169.619 Q198.289 169.619 202.109 175.377 Q205.957 181.106 205.957 192.043 Q205.957 202.952 202.109 208.71 Q198.289 214.439 191.026 214.439 Q183.764 214.439 179.915 208.71 Q176.096 202.952 176.096 192.043 Q176.096 181.106 179.915 175.377 Q183.764 169.619 191.026 169.619 Z" fill="#000000" fill-rule="nonzero" fill-opacity="1" /><path clip-path="url(#clip420)" d="M216.229 206.251 L222.334 206.251 L222.334 213.6 L216.229 213.6 L216.229 206.251 Z" fill="#000000" fill-rule="nonzero" fill-opacity="1" /><path clip-path="url(#clip420)" d="M248.289 189.671 Q244.354 189.671 242.039 192.362 Q239.753 195.053 239.753 199.74 Q239.753 204.399 242.039 207.119 Q244.354 209.81 248.289 209.81 Q252.224 209.81 254.51 207.119 Q256.825 204.399 256.825 199.74 Q256.825 195.053 254.51 192.362 Q252.224 189.671 248.289 189.671 M259.892 171.355 L259.892 176.679 Q257.693 175.637 255.436 175.087 Q253.208 174.538 251.009 174.538 Q245.222 174.538 242.155 178.444 Q239.116 182.35 238.682 190.249 Q240.39 187.732 242.965 186.401 Q245.54 185.041 248.636 185.041 Q255.146 185.041 258.908 189.005 Q262.698 192.94 262.698 199.74 Q262.698 206.395 258.763 210.417 Q254.828 214.439 248.289 214.439 Q240.795 214.439 236.831 208.71 Q232.866 202.952 232.866 192.043 Q232.866 181.8 237.728 175.724 Q242.589 169.619 250.777 169.619 Q252.976 169.619 255.204 170.053 Q257.461 170.487 259.892 171.355 Z" fill="#000000" fill-rule="nonzero" fill-opacity="1" /><path clip-path="url(#clip420)" d="M272.941 212.703 L272.941 207.379 Q275.141 208.421 277.397 208.97 Q279.654 209.52 281.825 209.52 Q287.612 209.52 290.65 205.643 Q293.717 201.737 294.151 193.808 Q292.473 196.297 289.897 197.628 Q287.322 198.959 284.197 198.959 Q277.716 198.959 273.925 195.053 Q270.164 191.117 270.164 184.318 Q270.164 177.663 274.099 173.641 Q278.034 169.619 284.573 169.619 Q292.068 169.619 296.003 175.377 Q299.967 181.106 299.967 192.043 Q299.967 202.257 295.106 208.363 Q290.274 214.439 282.085 214.439 Q279.886 214.439 277.629 214.005 Q275.372 213.571 272.941 212.703 M284.573 194.387 Q288.509 194.387 290.794 191.696 Q293.109 189.005 293.109 184.318 Q293.109 179.659 290.794 176.968 Q288.509 174.248 284.573 174.248 Q280.638 174.248 278.323 176.968 Q276.038 179.659 276.038 184.318 Q276.038 189.005 278.323 191.696 Q280.638 194.387 284.573 194.387 Z" fill="#000000" fill-rule="nonzero" fill-opacity="1" /><path clip-path="url(#clip420)" d="M315.505 208.681 L335.904 208.681 L335.904 213.6 L308.474 213.6 L308.474 208.681 Q311.801 205.238 317.53 199.451 Q323.288 193.635 324.764 191.957 Q327.571 188.803 328.67 186.633 Q329.799 184.433 329.799 182.321 Q329.799 178.878 327.368 176.708 Q324.967 174.538 321.089 174.538 Q318.341 174.538 315.273 175.493 Q312.235 176.447 308.763 178.386 L308.763 172.483 Q312.293 171.066 315.36 170.342 Q318.427 169.619 320.974 169.619 Q327.687 169.619 331.68 172.975 Q335.673 176.332 335.673 181.945 Q335.673 184.607 334.66 187.009 Q333.676 189.381 331.043 192.622 Q330.32 193.461 326.442 197.483 Q322.565 201.476 315.505 208.681 Z" fill="#000000" fill-rule="nonzero" fill-opacity="1" /></svg>
