<?xml version="1.0" encoding="utf-8"?>
<svg xmlns="http://www.w3.org/2000/svg" xmlns:xlink="http://www.w3.org/1999/xlink" width="600" height="400" viewBox="0 0 2400 1600">
<defs>
  <clipPath id="clip4500">
    <rect x="0" y="0" width="2400" height="1600"/>
  </clipPath>
</defs>
<path clip-path="url(#clip4500)" d="
M0 1600 L2400 1600 L2400 0 L0 0  Z
  " fill="#ffffff" fill-rule="evenodd" fill-opacity="1"/>
<defs>
  <clipPath id="clip4501">
    <rect x="480" y="0" width="1681" height="1600"/>
  </clipPath>
</defs>
<path clip-path="url(#clip4500)" d="
M482.992 1521.01 L1956.76 1521.01 L1956.76 47.2441 L482.992 47.2441  Z
  " fill="#ffffff" fill-rule="evenodd" fill-opacity="1"/>
<defs>
  <clipPath id="clip4502">
    <rect x="482" y="47" width="1475" height="1475"/>
  </clipPath>
</defs>
<polyline clip-path="url(#clip4502)" style="stroke:#a52a2a; stroke-width:4; stroke-opacity:1; fill:none" points="
  1202.54,257.782 1201.62,274.207 1198.92,290.511 1194.59,306.704 1188.76,322.793 1181.55,338.789 1173.11,354.699 1163.54,370.533 1153,386.3 1141.61,402.009 
  1129.5,417.669 1116.79,433.289 1103.63,448.877 1090.15,464.442 1076.47,479.995 1062.72,495.542 1049.03,511.095 1035.55,526.66 1022.39,542.248 1009.69,557.868 
  997.575,573.528 986.182,589.237 975.639,605.004 966.077,620.838 957.628,636.748 950.421,652.744 944.588,668.833 940.26,685.026 937.567,701.33 936.64,717.755 
  
  "/>
<polyline clip-path="url(#clip4502)" style="stroke:#a52a2a; stroke-width:4; stroke-opacity:1; fill:none" points="
  1202.54,257.782 1203.46,274.465 1206.14,291.047 1210.45,307.533 1216.25,323.932 1223.42,340.252 1231.83,356.499 1241.34,372.682 1251.83,388.809 1263.17,404.885 
  1275.22,420.92 1287.86,436.921 1300.95,452.896 1314.37,468.851 1327.98,484.795 1341.66,500.735 1355.28,516.679 1368.7,532.635 1381.79,548.609 1394.43,564.61 
  1406.48,580.645 1417.81,596.722 1428.3,612.848 1437.82,629.031 1446.22,645.279 1453.39,661.598 1459.2,677.997 1463.5,694.484 1466.18,711.065 1467.11,727.749 
  
  "/>
<polyline clip-path="url(#clip4502)" style="stroke:#a52a2a; stroke-width:4; stroke-opacity:1; fill:none" points="
  936.64,717.755 936.701,736.363 936.875,755.364 937.156,774.727 937.535,794.425 938.002,814.428 938.55,834.706 939.171,855.232 939.855,875.975 940.594,896.908 
  941.38,918 942.204,939.223 943.057,960.547 943.932,981.944 944.82,1003.39 945.712,1024.84 946.6,1046.28 947.475,1067.68 948.328,1089 949.152,1110.23 
  949.938,1131.32 950.677,1152.25 951.361,1172.99 951.982,1193.52 952.53,1213.8 952.998,1233.8 953.376,1253.5 953.657,1272.86 953.831,1291.86 953.892,1310.47 
  
  "/>
<polyline clip-path="url(#clip4502)" style="stroke:#a52a2a; stroke-width:4; stroke-opacity:1; fill:none" points="
  936.64,717.755 935.793,733.61 933.331,749.397 929.374,765.122 924.041,780.789 917.452,796.403 909.727,811.969 900.985,827.493 891.346,842.98 880.929,858.433 
  869.855,873.859 858.242,889.263 846.21,904.649 833.88,920.022 821.37,935.388 808.8,950.752 796.29,966.118 783.96,981.491 771.928,996.877 760.316,1012.28 
  749.241,1027.71 738.825,1043.16 729.186,1058.65 720.444,1074.17 712.718,1089.74 706.129,1105.35 700.797,1121.02 696.839,1136.74 694.377,1152.53 693.53,1168.38 
  
  "/>
<polyline clip-path="url(#clip4502)" style="stroke:#a52a2a; stroke-width:4; stroke-opacity:1; fill:none" points="
  1467.11,727.749 1467.2,744.171 1467.46,760.936 1467.88,778.019 1468.45,795.394 1469.15,813.037 1469.97,830.921 1470.9,849.022 1471.93,867.313 1473.04,885.77 
  1474.22,904.366 1475.45,923.077 1476.74,941.877 1478.05,960.741 1479.38,979.642 1480.72,998.557 1482.05,1017.46 1483.37,1036.32 1484.65,1055.12 1485.88,1073.83 
  1487.06,1092.43 1488.17,1110.89 1489.2,1129.18 1490.13,1147.28 1490.95,1165.16 1491.65,1182.8 1492.22,1200.18 1492.64,1217.26 1492.91,1234.03 1493,1250.45 
  
  "/>
<polyline clip-path="url(#clip4502)" style="stroke:#a52a2a; stroke-width:4; stroke-opacity:1; fill:none" points="
  1467.11,727.749 1468.08,740.314 1470.9,752.431 1475.45,764.133 1481.57,775.452 1489.14,786.423 1498,797.078 1508.04,807.45 1519.11,817.574 1531.07,827.481 
  1543.78,837.206 1557.11,846.781 1570.93,856.239 1585.08,865.615 1599.45,874.941 1613.88,884.25 1628.24,893.576 1642.4,902.952 1656.21,912.411 1669.54,921.986 
  1682.26,931.71 1694.22,941.617 1705.28,951.741 1715.32,962.113 1724.19,972.768 1731.75,983.739 1737.88,995.058 1742.42,1006.76 1745.25,1018.88 1746.22,1031.44 
  
  "/>
<path clip-path="url(#clip4502)" d="
M1416.73 257.782 L1309.64 72.2896 L1095.45 72.2896 L988.354 257.782 L1095.45 443.274 L1309.64 443.274 L1416.73 257.782 L1416.73 257.782  Z
  " fill="#66ffcc" fill-rule="evenodd" fill-opacity="1"/>
<polyline clip-path="url(#clip4502)" style="stroke:#a52a2a; stroke-width:0; stroke-opacity:0; fill:none" points="
  1416.73,257.782 1309.64,72.2896 1095.45,72.2896 988.354,257.782 1095.45,443.274 1309.64,443.274 1416.73,257.782 
  "/>
<path clip-path="url(#clip4502)" d="
M1139.33 717.755 L1037.98 542.224 L835.297 542.224 L733.954 717.755 L835.297 893.287 L1037.98 893.287 L1139.33 717.755 L1139.33 717.755  Z
  " fill="#66ffcc" fill-rule="evenodd" fill-opacity="1"/>
<polyline clip-path="url(#clip4502)" style="stroke:#a52a2a; stroke-width:0; stroke-opacity:0; fill:none" points="
  1139.33,717.755 1037.98,542.224 835.297,542.224 733.954,717.755 835.297,893.287 1037.98,893.287 1139.33,717.755 
  "/>
<path clip-path="url(#clip4502)" d="
M1658.12 727.749 L1562.61 562.321 L1371.6 562.321 L1276.09 727.749 L1371.6 893.176 L1562.61 893.176 L1658.12 727.749 L1658.12 727.749  Z
  " fill="#66ffcc" fill-rule="evenodd" fill-opacity="1"/>
<polyline clip-path="url(#clip4502)" style="stroke:#a52a2a; stroke-width:0; stroke-opacity:0; fill:none" points="
  1658.12,727.749 1562.61,562.321 1371.6,562.321 1276.09,727.749 1371.6,893.176 1562.61,893.176 1658.12,727.749 1658.12,727.749 
  "/>
<path clip-path="url(#clip4502)" d="
M1133.06 1310.47 L1043.48 1155.3 L864.306 1155.3 L774.721 1310.47 L864.306 1465.64 L1043.48 1465.64 L1133.06 1310.47 L1133.06 1310.47  Z
  " fill="#66ffcc" fill-rule="evenodd" fill-opacity="1"/>
<polyline clip-path="url(#clip4502)" style="stroke:#a52a2a; stroke-width:0; stroke-opacity:0; fill:none" points="
  1133.06,1310.47 1043.48,1155.3 864.306,1155.3 774.721,1310.47 864.306,1465.64 1043.48,1465.64 1133.06,1310.47 1133.06,1310.47 
  "/>
<path clip-path="url(#clip4502)" d="
M872.7 1168.38 L783.115 1013.22 L603.944 1013.22 L514.359 1168.38 L603.944 1323.55 L783.115 1323.55 L872.7 1168.38 L872.7 1168.38  Z
  " fill="#66ffcc" fill-rule="evenodd" fill-opacity="1"/>
<polyline clip-path="url(#clip4502)" style="stroke:#a52a2a; stroke-width:0; stroke-opacity:0; fill:none" points="
  872.7,1168.38 783.115,1013.22 603.944,1013.22 514.359,1168.38 603.944,1323.55 783.115,1323.55 872.7,1168.38 
  "/>
<path clip-path="url(#clip4502)" d="
M1684.01 1250.45 L1588.51 1085.02 L1397.49 1085.02 L1301.98 1250.45 L1397.49 1415.88 L1588.51 1415.88 L1684.01 1250.45 L1684.01 1250.45  Z
  " fill="#66ffcc" fill-rule="evenodd" fill-opacity="1"/>
<polyline clip-path="url(#clip4502)" style="stroke:#a52a2a; stroke-width:0; stroke-opacity:0; fill:none" points="
  1684.01,1250.45 1588.51,1085.02 1397.49,1085.02 1301.98,1250.45 1397.49,1415.88 1588.51,1415.88 1684.01,1250.45 
  "/>
<path clip-path="url(#clip4502)" d="
M1948.9 1031.44 L1847.56 855.911 L1644.88 855.911 L1543.53 1031.44 L1644.88 1206.97 L1847.56 1206.97 L1948.9 1031.44 L1948.9 1031.44  Z
  " fill="#66ffcc" fill-rule="evenodd" fill-opacity="1"/>
<polyline clip-path="url(#clip4502)" style="stroke:#a52a2a; stroke-width:0; stroke-opacity:0; fill:none" points="
  1948.9,1031.44 1847.56,855.911 1644.88,855.911 1543.53,1031.44 1644.88,1206.97 1847.56,1206.97 1948.9,1031.44 1948.9,1031.44 
  "/>
<circle clip-path="url(#clip4502)" style="fill:#c68125; stroke:none; fill-opacity:0" cx="1202.54" cy="257.782" r="2"/>
<circle clip-path="url(#clip4502)" style="fill:#c68125; stroke:none; fill-opacity:0" cx="936.64" cy="717.755" r="2"/>
<circle clip-path="url(#clip4502)" style="fill:#c68125; stroke:none; fill-opacity:0" cx="1467.11" cy="727.749" r="2"/>
<circle clip-path="url(#clip4502)" style="fill:#c68125; stroke:none; fill-opacity:0" cx="953.892" cy="1310.47" r="2"/>
<circle clip-path="url(#clip4502)" style="fill:#c68125; stroke:none; fill-opacity:0" cx="693.53" cy="1168.38" r="2"/>
<circle clip-path="url(#clip4502)" style="fill:#c68125; stroke:none; fill-opacity:0" cx="1493" cy="1250.45" r="2"/>
<circle clip-path="url(#clip4502)" style="fill:#c68125; stroke:none; fill-opacity:0" cx="1746.22" cy="1031.44" r="2"/>
<g clip-path="url(#clip4500)">
<text style="fill:#000000; fill-opacity:1; font-family:Arial,Helvetica Neue,Helvetica,sans-serif; font-size:48px; text-anchor:middle;" transform="rotate(0, 1202.54, 249.362)" x="1202.54" y="249.362">feat: 1</text>
</g>
<g clip-path="url(#clip4500)">
<text style="fill:#000000; fill-opacity:1; font-family:Arial,Helvetica Neue,Helvetica,sans-serif; font-size:48px; text-anchor:middle;" transform="rotate(0, 1202.54, 301.202)" x="1202.54" y="301.202">&lt; 0.996</text>
</g>
<g clip-path="url(#clip4500)">
<text style="fill:#000000; fill-opacity:1; font-family:Arial,Helvetica Neue,Helvetica,sans-serif; font-size:48px; text-anchor:middle;" transform="rotate(0, 936.64, 709.335)" x="936.64" y="709.335">feat: 2</text>
</g>
<g clip-path="url(#clip4500)">
<text style="fill:#000000; fill-opacity:1; font-family:Arial,Helvetica Neue,Helvetica,sans-serif; font-size:48px; text-anchor:middle;" transform="rotate(0, 936.64, 761.175)" x="936.64" y="761.175">&lt; 1.12</text>
</g>
<g clip-path="url(#clip4500)">
<text style="fill:#000000; fill-opacity:1; font-family:Arial,Helvetica Neue,Helvetica,sans-serif; font-size:48px; text-anchor:middle;" transform="rotate(0, 1467.11, 719.329)" x="1467.11" y="719.329">feat: 2</text>
</g>
<g clip-path="url(#clip4500)">
<text style="fill:#000000; fill-opacity:1; font-family:Arial,Helvetica Neue,Helvetica,sans-serif; font-size:48px; text-anchor:middle;" transform="rotate(0, 1467.11, 771.169)" x="1467.11" y="771.169">&lt; 1.0</text>
</g>
<g clip-path="url(#clip4500)">
<text style="fill:#000000; fill-opacity:1; font-family:Arial,Helvetica Neue,Helvetica,sans-serif; font-size:48px; text-anchor:middle;" transform="rotate(0, 953.892, 1302.05)" x="953.892" y="1302.05">pred:</text>
</g>
<g clip-path="url(#clip4500)">
<text style="fill:#000000; fill-opacity:1; font-family:Arial,Helvetica Neue,Helvetica,sans-serif; font-size:48px; text-anchor:middle;" transform="rotate(0, 953.892, 1353.89)" x="953.892" y="1353.89">0.0126</text>
</g>
<g clip-path="url(#clip4500)">
<text style="fill:#000000; fill-opacity:1; font-family:Arial,Helvetica Neue,Helvetica,sans-serif; font-size:48px; text-anchor:middle;" transform="rotate(0, 693.53, 1159.96)" x="693.53" y="1159.96">pred:</text>
</g>
<g clip-path="url(#clip4500)">
<text style="fill:#000000; fill-opacity:1; font-family:Arial,Helvetica Neue,Helvetica,sans-serif; font-size:48px; text-anchor:middle;" transform="rotate(0, 693.53, 1211.8)" x="693.53" y="1211.8">0.0597</text>
</g>
<g clip-path="url(#clip4500)">
<text style="fill:#000000; fill-opacity:1; font-family:Arial,Helvetica Neue,Helvetica,sans-serif; font-size:48px; text-anchor:middle;" transform="rotate(0, 1493, 1242.03)" x="1493" y="1242.03">pred:</text>
</g>
<g clip-path="url(#clip4500)">
<text style="fill:#000000; fill-opacity:1; font-family:Arial,Helvetica Neue,Helvetica,sans-serif; font-size:48px; text-anchor:middle;" transform="rotate(0, 1493, 1293.87)" x="1493" y="1293.87">-0.0576</text>
</g>
<g clip-path="url(#clip4500)">
<text style="fill:#000000; fill-opacity:1; font-family:Arial,Helvetica Neue,Helvetica,sans-serif; font-size:48px; text-anchor:middle;" transform="rotate(0, 1746.22, 1023.02)" x="1746.22" y="1023.02">pred:</text>
</g>
<g clip-path="url(#clip4500)">
<text style="fill:#000000; fill-opacity:1; font-family:Arial,Helvetica Neue,Helvetica,sans-serif; font-size:48px; text-anchor:middle;" transform="rotate(0, 1746.22, 1074.86)" x="1746.22" y="1074.86">-0.00511</text>
</g>
</svg>
