<?xml version="1.0" encoding="utf-8"?>
<svg xmlns="http://www.w3.org/2000/svg" xmlns:xlink="http://www.w3.org/1999/xlink" width="512" height="288" viewBox="0 0 2048 1152">
<defs>
  <clipPath id="clip480">
    <rect x="0" y="0" width="2048" height="1152"/>
  </clipPath>
</defs>
<path clip-path="url(#clip480)" d="M0 1152 L2048 1152 L2048 0 L0 0  Z" fill="#ffffff" fill-rule="evenodd" fill-opacity="1"/>
<defs>
  <clipPath id="clip481">
    <rect x="409" y="0" width="1435" height="1152"/>
  </clipPath>
</defs>
<path clip-path="url(#clip480)" d="M47.2441 1104.76 L2000.76 1104.76 L2000.76 47.2441 L47.2441 47.2441  Z" fill="#ffffff" fill-rule="evenodd" fill-opacity="1"/>
<defs>
  <clipPath id="clip482">
    <rect x="47" y="47" width="1955" height="1059"/>
  </clipPath>
</defs>
<path clip-path="url(#clip482)" d="M811.354 77.1737 L1236.65 77.1737 L1236.65 260.416 L811.354 260.416 L811.354 77.1737  Z" fill="#e6ebf1" fill-rule="evenodd" fill-opacity="1"/>
<polyline clip-path="url(#clip482)" style="stroke:#000000; stroke-linecap:round; stroke-linejoin:round; stroke-width:0; stroke-opacity:1; fill:none" points="811.354,77.1737 1236.65,77.1737 1236.65,260.416 811.354,260.416 811.354,77.1737 "/>
<path clip-path="url(#clip482)" d="M338.806 484.379 L764.099 484.379 L764.099 667.621 L338.806 667.621 L338.806 484.379  Z" fill="#e6ebf1" fill-rule="evenodd" fill-opacity="1"/>
<polyline clip-path="url(#clip482)" style="stroke:#000000; stroke-linecap:round; stroke-linejoin:round; stroke-width:0; stroke-opacity:1; fill:none" points="338.806,484.379 764.099,484.379 764.099,667.621 338.806,667.621 338.806,484.379 "/>
<path clip-path="url(#clip482)" d="M1283.9 484.379 L1709.19 484.379 L1709.19 667.621 L1283.9 667.621 L1283.9 484.379  Z" fill="#e6ebf1" fill-rule="evenodd" fill-opacity="1"/>
<polyline clip-path="url(#clip482)" style="stroke:#000000; stroke-linecap:round; stroke-linejoin:round; stroke-width:0; stroke-opacity:1; fill:none" points="1283.9,484.379 1709.19,484.379 1709.19,667.621 1283.9,667.621 1283.9,484.379 "/>
<path clip-path="url(#clip482)" d="M102.532 891.584 L527.825 891.584 L527.825 1074.83 L102.532 1074.83 L102.532 891.584  Z" fill="#26a671" fill-rule="evenodd" fill-opacity="1"/>
<polyline clip-path="url(#clip482)" style="stroke:#000000; stroke-linecap:round; stroke-linejoin:round; stroke-width:0; stroke-opacity:1; fill:none" points="102.532,891.584 527.825,891.584 527.825,1074.83 102.532,1074.83 102.532,891.584 "/>
<path clip-path="url(#clip482)" d="M575.08 891.584 L1000.37 891.584 L1000.37 1074.83 L575.08 1074.83 L575.08 891.584  Z" fill="#26a671" fill-rule="evenodd" fill-opacity="1"/>
<polyline clip-path="url(#clip482)" style="stroke:#000000; stroke-linecap:round; stroke-linejoin:round; stroke-width:0; stroke-opacity:1; fill:none" points="575.08,891.584 1000.37,891.584 1000.37,1074.83 575.08,1074.83 575.08,891.584 "/>
<path clip-path="url(#clip482)" d="M1047.63 891.584 L1472.92 891.584 L1472.92 1074.83 L1047.63 1074.83 L1047.63 891.584  Z" fill="#26a671" fill-rule="evenodd" fill-opacity="1"/>
<polyline clip-path="url(#clip482)" style="stroke:#000000; stroke-linecap:round; stroke-linejoin:round; stroke-width:0; stroke-opacity:1; fill:none" points="1047.63,891.584 1472.92,891.584 1472.92,1074.83 1047.63,1074.83 1047.63,891.584 "/>
<path clip-path="url(#clip482)" d="M1520.17 891.584 L1945.47 891.584 L1945.47 1074.83 L1520.17 1074.83 L1520.17 891.584  Z" fill="#26a671" fill-rule="evenodd" fill-opacity="1"/>
<polyline clip-path="url(#clip482)" style="stroke:#000000; stroke-linecap:round; stroke-linejoin:round; stroke-width:0; stroke-opacity:1; fill:none" points="1520.17,891.584 1945.47,891.584 1945.47,1074.83 1520.17,1074.83 1520.17,891.584 "/>
<polyline clip-path="url(#clip482)" style="stroke:#000000; stroke-linecap:round; stroke-linejoin:round; stroke-width:4; stroke-opacity:1; fill:none" points="1024,260.416 1007.71,268.139 991.411,275.862 975.116,283.585 958.821,291.307 942.526,299.03 926.232,306.753 909.937,314.476 893.642,322.199 877.347,329.922 861.053,337.645 844.758,345.367 828.463,353.09 812.168,360.813 795.874,368.536 779.579,376.259 763.284,383.982 746.989,391.705 730.695,399.427 714.4,407.15 698.105,414.873 681.81,422.596 665.516,430.319 649.221,438.042 632.926,445.765 616.631,453.487 600.337,461.21 584.042,468.933 567.747,476.656 551.452,484.379 "/>
<polyline clip-path="url(#clip482)" style="stroke:#000000; stroke-linecap:round; stroke-linejoin:round; stroke-width:4; stroke-opacity:1; fill:none" points="1024,260.416 1040.29,268.139 1056.59,275.862 1072.88,283.585 1089.18,291.307 1105.47,299.03 1121.77,306.753 1138.06,314.476 1154.36,322.199 1170.65,329.922 1186.95,337.645 1203.24,345.367 1219.54,353.09 1235.83,360.813 1252.13,368.536 1268.42,376.259 1284.72,383.982 1301.01,391.705 1317.31,399.427 1333.6,407.15 1349.89,414.873 1366.19,422.596 1382.48,430.319 1398.78,438.042 1415.07,445.765 1431.37,453.487 1447.66,461.21 1463.96,468.933 1480.25,476.656 1496.55,484.379 "/>
<polyline clip-path="url(#clip482)" style="stroke:#000000; stroke-linecap:round; stroke-linejoin:round; stroke-width:4; stroke-opacity:1; fill:none" points="551.452,667.621 543.305,675.344 535.158,683.067 527.01,690.79 518.863,698.513 510.716,706.235 502.568,713.958 494.421,721.681 486.273,729.404 478.126,737.127 469.979,744.85 461.831,752.573 453.684,760.295 445.537,768.018 437.389,775.741 429.242,783.464 421.094,791.187 412.947,798.91 404.8,806.633 396.652,814.355 388.505,822.078 380.358,829.801 372.21,837.524 364.063,845.247 355.915,852.97 347.768,860.693 339.621,868.415 331.473,876.138 323.326,883.861 315.179,891.584 "/>
<polyline clip-path="url(#clip482)" style="stroke:#000000; stroke-linecap:round; stroke-linejoin:round; stroke-width:4; stroke-opacity:1; fill:none" points="551.452,667.621 559.6,675.344 567.747,683.067 575.895,690.79 584.042,698.513 592.189,706.235 600.337,713.958 608.484,721.681 616.631,729.404 624.779,737.127 632.926,744.85 641.073,752.573 649.221,760.295 657.368,768.018 665.516,775.741 673.663,783.464 681.81,791.187 689.958,798.91 698.105,806.633 706.252,814.355 714.4,822.078 722.547,829.801 730.695,837.524 738.842,845.247 746.989,852.97 755.137,860.693 763.284,868.415 771.431,876.138 779.579,883.861 787.726,891.584 "/>
<polyline clip-path="url(#clip482)" style="stroke:#000000; stroke-linecap:round; stroke-linejoin:round; stroke-width:4; stroke-opacity:1; fill:none" points="1496.55,667.621 1488.4,675.344 1480.25,683.067 1472.11,690.79 1463.96,698.513 1455.81,706.235 1447.66,713.958 1439.52,721.681 1431.37,729.404 1423.22,737.127 1415.07,744.85 1406.93,752.573 1398.78,760.295 1390.63,768.018 1382.48,775.741 1374.34,783.464 1366.19,791.187 1358.04,798.91 1349.89,806.633 1341.75,814.355 1333.6,822.078 1325.45,829.801 1317.31,837.524 1309.16,845.247 1301.01,852.97 1292.86,860.693 1284.72,868.415 1276.57,876.138 1268.42,883.861 1260.27,891.584 "/>
<polyline clip-path="url(#clip482)" style="stroke:#000000; stroke-linecap:round; stroke-linejoin:round; stroke-width:4; stroke-opacity:1; fill:none" points="1496.55,667.621 1504.69,675.344 1512.84,683.067 1520.99,690.79 1529.14,698.513 1537.28,706.235 1545.43,713.958 1553.58,721.681 1561.73,729.404 1569.87,737.127 1578.02,744.85 1586.17,752.573 1594.32,760.295 1602.46,768.018 1610.61,775.741 1618.76,783.464 1626.91,791.187 1635.05,798.91 1643.2,806.633 1651.35,814.355 1659.5,822.078 1667.64,829.801 1675.79,837.524 1683.94,845.247 1692.08,852.97 1700.23,860.693 1708.38,868.415 1716.53,876.138 1724.67,883.861 1732.82,891.584 "/>
<path clip-path="url(#clip480)" d="M955.945 112.972 L955.945 117.399 L950.852 117.399 Q947.988 117.399 946.859 118.556 Q945.76 119.714 945.76 122.723 L945.76 125.588 L954.527 125.588 L954.527 129.725 L945.76 129.725 L945.76 157.995 L940.407 157.995 L940.407 129.725 L935.314 129.725 L935.314 125.588 L940.407 125.588 L940.407 123.331 Q940.407 117.92 942.924 115.46 Q945.441 112.972 950.91 112.972 L955.945 112.972 Z" fill="#000000" fill-rule="nonzero" fill-opacity="1" /><path clip-path="url(#clip480)" d="M988.121 140.46 L988.121 143.064 L963.642 143.064 Q963.989 148.562 966.94 151.456 Q969.92 154.32 975.216 154.32 Q978.283 154.32 981.147 153.568 Q984.041 152.815 986.876 151.311 L986.876 156.346 Q984.012 157.561 981.003 158.197 Q977.993 158.834 974.897 158.834 Q967.143 158.834 962.6 154.32 Q958.086 149.806 958.086 142.11 Q958.086 134.152 962.368 129.494 Q966.68 124.806 973.971 124.806 Q980.511 124.806 984.301 129.031 Q988.121 133.226 988.121 140.46 M982.797 138.898 Q982.739 134.529 980.337 131.924 Q977.964 129.32 974.029 129.32 Q969.573 129.32 966.882 131.838 Q964.22 134.355 963.815 138.927 L982.797 138.898 Z" fill="#000000" fill-rule="nonzero" fill-opacity="1" /><path clip-path="url(#clip480)" d="M1011.59 141.704 Q1005.13 141.704 1002.65 143.18 Q1000.16 144.656 1000.16 148.215 Q1000.16 151.05 1002.01 152.729 Q1003.89 154.378 1007.1 154.378 Q1011.53 154.378 1014.19 151.253 Q1016.88 148.099 1016.88 142.891 L1016.88 141.704 L1011.59 141.704 M1022.21 139.505 L1022.21 157.995 L1016.88 157.995 L1016.88 153.076 Q1015.06 156.027 1012.34 157.445 Q1009.62 158.834 1005.68 158.834 Q1000.71 158.834 997.756 156.056 Q994.833 153.249 994.833 148.562 Q994.833 143.093 998.479 140.316 Q1002.15 137.538 1009.42 137.538 L1016.88 137.538 L1016.88 137.017 Q1016.88 133.342 1014.45 131.346 Q1012.05 129.32 1007.68 129.32 Q1004.9 129.32 1002.27 129.986 Q999.637 130.651 997.206 131.982 L997.206 127.063 Q1000.13 125.935 1002.88 125.385 Q1005.63 124.806 1008.23 124.806 Q1015.26 124.806 1018.73 128.452 Q1022.21 132.098 1022.21 139.505 Z" fill="#000000" fill-rule="nonzero" fill-opacity="1" /><path clip-path="url(#clip480)" d="M1038.44 116.386 L1038.44 125.588 L1049.4 125.588 L1049.4 129.725 L1038.44 129.725 L1038.44 147.318 Q1038.44 151.282 1039.51 152.41 Q1040.61 153.539 1043.94 153.539 L1049.4 153.539 L1049.4 157.995 L1043.94 157.995 Q1037.77 157.995 1035.43 155.709 Q1033.09 153.394 1033.09 147.318 L1033.09 129.725 L1029.18 129.725 L1029.18 125.588 L1033.09 125.588 L1033.09 116.386 L1038.44 116.386 Z" fill="#000000" fill-rule="nonzero" fill-opacity="1" /><path clip-path="url(#clip480)" d="M1081.03 167.833 L1081.03 171.97 L1050.24 171.97 L1050.24 167.833 L1081.03 167.833 Z" fill="#000000" fill-rule="nonzero" fill-opacity="1" /><path clip-path="url(#clip480)" d="M1087.8 153.076 L1097.35 153.076 L1097.35 120.119 L1086.96 122.202 L1086.96 116.878 L1097.29 114.795 L1103.14 114.795 L1103.14 153.076 L1112.69 153.076 L1112.69 157.995 L1087.8 157.995 L1087.8 153.076 Z" fill="#000000" fill-rule="nonzero" fill-opacity="1" /><path clip-path="url(#clip480)" d="M932.305 204.19 L947.901 204.19 L947.901 208.935 L932.305 208.935 L932.305 204.19 Z" fill="#000000" fill-rule="nonzero" fill-opacity="1" /><path clip-path="url(#clip480)" d="M969.631 183.443 Q965.117 183.443 962.831 187.899 Q960.574 192.326 960.574 201.238 Q960.574 210.121 962.831 214.577 Q965.117 219.004 969.631 219.004 Q974.174 219.004 976.431 214.577 Q978.717 210.121 978.717 201.238 Q978.717 192.326 976.431 187.899 Q974.174 183.443 969.631 183.443 M969.631 178.814 Q976.894 178.814 980.713 184.572 Q984.562 190.301 984.562 201.238 Q984.562 212.147 980.713 217.905 Q976.894 223.634 969.631 223.634 Q962.368 223.634 958.52 217.905 Q954.701 212.147 954.701 201.238 Q954.701 190.301 958.52 184.572 Q962.368 178.814 969.631 178.814 Z" fill="#000000" fill-rule="nonzero" fill-opacity="1" /><path clip-path="url(#clip480)" d="M994.833 215.445 L1000.94 215.445 L1000.94 222.795 L994.833 222.795 L994.833 215.445 Z" fill="#000000" fill-rule="nonzero" fill-opacity="1" /><path clip-path="url(#clip480)" d="M1026.17 183.443 Q1021.66 183.443 1019.37 187.899 Q1017.11 192.326 1017.11 201.238 Q1017.11 210.121 1019.37 214.577 Q1021.66 219.004 1026.17 219.004 Q1030.71 219.004 1032.97 214.577 Q1035.26 210.121 1035.26 201.238 Q1035.26 192.326 1032.97 187.899 Q1030.71 183.443 1026.17 183.443 M1026.17 178.814 Q1033.43 178.814 1037.25 184.572 Q1041.1 190.301 1041.1 201.238 Q1041.1 212.147 1037.25 217.905 Q1033.43 223.634 1026.17 223.634 Q1018.91 223.634 1015.06 217.905 Q1011.24 212.147 1011.24 201.238 Q1011.24 190.301 1015.06 184.572 Q1018.91 178.814 1026.17 178.814 Z" fill="#000000" fill-rule="nonzero" fill-opacity="1" /><path clip-path="url(#clip480)" d="M1052.39 217.876 L1061.93 217.876 L1061.93 184.919 L1051.55 187.002 L1051.55 181.678 L1061.88 179.595 L1067.72 179.595 L1067.72 217.876 L1077.27 217.876 L1077.27 222.795 L1052.39 222.795 L1052.39 217.876 Z" fill="#000000" fill-rule="nonzero" fill-opacity="1" /><path clip-path="url(#clip480)" d="M1106.78 199.502 Q1110.98 200.399 1113.32 203.235 Q1115.7 206.07 1115.7 210.237 Q1115.7 216.632 1111.3 220.133 Q1106.9 223.634 1098.8 223.634 Q1096.08 223.634 1093.18 223.084 Q1090.32 222.563 1087.25 221.493 L1087.25 215.85 Q1089.68 217.268 1092.58 217.992 Q1095.47 218.715 1098.62 218.715 Q1104.12 218.715 1106.99 216.545 Q1109.88 214.375 1109.88 210.237 Q1109.88 206.418 1107.19 204.276 Q1104.53 202.106 1099.75 202.106 L1094.72 202.106 L1094.72 197.303 L1099.98 197.303 Q1104.29 197.303 1106.58 195.596 Q1108.87 193.86 1108.87 190.619 Q1108.87 187.292 1106.49 185.527 Q1104.15 183.733 1099.75 183.733 Q1097.35 183.733 1094.6 184.253 Q1091.85 184.774 1088.55 185.874 L1088.55 180.665 Q1091.88 179.74 1094.78 179.277 Q1097.7 178.814 1100.27 178.814 Q1106.93 178.814 1110.81 181.852 Q1114.68 184.861 1114.68 190.011 Q1114.68 193.599 1112.63 196.088 Q1110.57 198.547 1106.78 199.502 Z" fill="#000000" fill-rule="nonzero" fill-opacity="1" /><path clip-path="url(#clip480)" d="M483.397 520.177 L483.397 524.604 L478.305 524.604 Q475.44 524.604 474.312 525.762 Q473.212 526.919 473.212 529.928 L473.212 532.793 L481.979 532.793 L481.979 536.93 L473.212 536.93 L473.212 565.2 L467.859 565.2 L467.859 536.93 L462.767 536.93 L462.767 532.793 L467.859 532.793 L467.859 530.536 Q467.859 525.125 470.376 522.666 Q472.894 520.177 478.363 520.177 L483.397 520.177 Z" fill="#000000" fill-rule="nonzero" fill-opacity="1" /><path clip-path="url(#clip480)" d="M515.573 547.665 L515.573 550.27 L491.094 550.27 Q491.441 555.767 494.393 558.661 Q497.373 561.525 502.668 561.525 Q505.735 561.525 508.6 560.773 Q511.493 560.021 514.329 558.516 L514.329 563.551 Q511.464 564.766 508.455 565.403 Q505.446 566.039 502.35 566.039 Q494.595 566.039 490.052 561.525 Q485.538 557.011 485.538 549.315 Q485.538 541.358 489.821 536.699 Q494.132 532.012 501.424 532.012 Q507.963 532.012 511.754 536.236 Q515.573 540.432 515.573 547.665 M510.249 546.103 Q510.191 541.734 507.789 539.13 Q505.417 536.525 501.482 536.525 Q497.026 536.525 494.335 539.043 Q491.673 541.56 491.268 546.132 L510.249 546.103 Z" fill="#000000" fill-rule="nonzero" fill-opacity="1" /><path clip-path="url(#clip480)" d="M539.039 548.91 Q532.587 548.91 530.098 550.385 Q527.61 551.861 527.61 555.42 Q527.61 558.256 529.462 559.934 Q531.343 561.583 534.554 561.583 Q538.981 561.583 541.643 558.458 Q544.334 555.304 544.334 550.096 L544.334 548.91 L539.039 548.91 M549.658 546.711 L549.658 565.2 L544.334 565.2 L544.334 560.281 Q542.511 563.232 539.792 564.65 Q537.072 566.039 533.137 566.039 Q528.16 566.039 525.208 563.261 Q522.286 560.455 522.286 555.767 Q522.286 550.298 525.932 547.521 Q529.606 544.743 536.869 544.743 L544.334 544.743 L544.334 544.222 Q544.334 540.547 541.904 538.551 Q539.502 536.525 535.133 536.525 Q532.355 536.525 529.722 537.191 Q527.089 537.856 524.659 539.187 L524.659 534.268 Q527.581 533.14 530.33 532.59 Q533.079 532.012 535.683 532.012 Q542.714 532.012 546.186 535.657 Q549.658 539.303 549.658 546.711 Z" fill="#000000" fill-rule="nonzero" fill-opacity="1" /><path clip-path="url(#clip480)" d="M565.891 523.591 L565.891 532.793 L576.857 532.793 L576.857 536.93 L565.891 536.93 L565.891 554.523 Q565.891 558.487 566.962 559.616 Q568.061 560.744 571.389 560.744 L576.857 560.744 L576.857 565.2 L571.389 565.2 Q565.225 565.2 562.882 562.914 Q560.538 560.599 560.538 554.523 L560.538 536.93 L556.632 536.93 L556.632 532.793 L560.538 532.793 L560.538 523.591 L565.891 523.591 Z" fill="#000000" fill-rule="nonzero" fill-opacity="1" /><path clip-path="url(#clip480)" d="M608.483 575.038 L608.483 579.176 L577.696 579.176 L577.696 575.038 L608.483 575.038 Z" fill="#000000" fill-rule="nonzero" fill-opacity="1" /><path clip-path="url(#clip480)" d="M615.254 560.281 L624.803 560.281 L624.803 527.324 L614.415 529.407 L614.415 524.083 L624.745 522 L630.59 522 L630.59 560.281 L640.138 560.281 L640.138 565.2 L615.254 565.2 L615.254 560.281 Z" fill="#000000" fill-rule="nonzero" fill-opacity="1" /><path clip-path="url(#clip480)" d="M459.41 611.395 L475.006 611.395 L475.006 616.14 L459.41 616.14 L459.41 611.395 Z" fill="#000000" fill-rule="nonzero" fill-opacity="1" /><path clip-path="url(#clip480)" d="M496.736 590.648 Q492.222 590.648 489.937 595.104 Q487.68 599.531 487.68 608.443 Q487.68 617.326 489.937 621.782 Q492.222 626.21 496.736 626.21 Q501.279 626.21 503.536 621.782 Q505.822 617.326 505.822 608.443 Q505.822 599.531 503.536 595.104 Q501.279 590.648 496.736 590.648 M496.736 586.019 Q503.999 586.019 507.818 591.777 Q511.667 597.506 511.667 608.443 Q511.667 619.352 507.818 625.11 Q503.999 630.839 496.736 630.839 Q489.474 630.839 485.625 625.11 Q481.806 619.352 481.806 608.443 Q481.806 597.506 485.625 591.777 Q489.474 586.019 496.736 586.019 Z" fill="#000000" fill-rule="nonzero" fill-opacity="1" /><path clip-path="url(#clip480)" d="M521.939 622.651 L528.044 622.651 L528.044 630 L521.939 630 L521.939 622.651 Z" fill="#000000" fill-rule="nonzero" fill-opacity="1" /><path clip-path="url(#clip480)" d="M540.833 586.8 L563.779 586.8 L563.779 591.719 L546.186 591.719 L546.186 602.309 Q547.459 601.875 548.732 601.673 Q550.006 601.441 551.279 601.441 Q558.513 601.441 562.737 605.405 Q566.962 609.369 566.962 616.14 Q566.962 623.113 562.621 626.991 Q558.281 630.839 550.382 630.839 Q547.662 630.839 544.826 630.376 Q542.02 629.913 539.01 628.987 L539.01 623.113 Q541.614 624.531 544.392 625.226 Q547.17 625.92 550.266 625.92 Q555.272 625.92 558.194 623.287 Q561.117 620.654 561.117 616.14 Q561.117 611.626 558.194 608.993 Q555.272 606.36 550.266 606.36 Q547.922 606.36 545.579 606.881 Q543.264 607.402 540.833 608.501 L540.833 586.8 Z" fill="#000000" fill-rule="nonzero" fill-opacity="1" /><path clip-path="url(#clip480)" d="M579.49 625.081 L589.039 625.081 L589.039 592.124 L578.651 594.207 L578.651 588.883 L588.981 586.8 L594.826 586.8 L594.826 625.081 L604.375 625.081 L604.375 630 L579.49 630 L579.49 625.081 Z" fill="#000000" fill-rule="nonzero" fill-opacity="1" /><path clip-path="url(#clip480)" d="M628.68 609.485 Q624.513 609.485 622.112 611.713 Q619.739 613.941 619.739 617.847 Q619.739 621.754 622.112 623.982 Q624.513 626.21 628.68 626.21 Q632.847 626.21 635.248 623.982 Q637.65 621.725 637.65 617.847 Q637.65 613.941 635.248 611.713 Q632.876 609.485 628.68 609.485 M622.835 606.997 Q619.074 606.071 616.961 603.496 Q614.878 600.92 614.878 597.217 Q614.878 592.037 618.553 589.028 Q622.256 586.019 628.68 586.019 Q635.132 586.019 638.807 589.028 Q642.482 592.037 642.482 597.217 Q642.482 600.92 640.37 603.496 Q638.286 606.071 634.554 606.997 Q638.778 607.98 641.122 610.845 Q643.495 613.71 643.495 617.847 Q643.495 624.126 639.646 627.483 Q635.827 630.839 628.68 630.839 Q621.533 630.839 617.685 627.483 Q613.865 624.126 613.865 617.847 Q613.865 613.71 616.238 610.845 Q618.611 607.98 622.835 606.997 M620.694 597.766 Q620.694 601.123 622.777 603.004 Q624.889 604.884 628.68 604.884 Q632.442 604.884 634.554 603.004 Q636.695 601.123 636.695 597.766 Q636.695 594.41 634.554 592.529 Q632.442 590.648 628.68 590.648 Q624.889 590.648 622.777 592.529 Q620.694 594.41 620.694 597.766 Z" fill="#000000" fill-rule="nonzero" fill-opacity="1" /><path clip-path="url(#clip480)" d="M1428.49 520.177 L1428.49 524.604 L1423.4 524.604 Q1420.54 524.604 1419.41 525.762 Q1418.31 526.919 1418.31 529.928 L1418.31 532.793 L1427.07 532.793 L1427.07 536.93 L1418.31 536.93 L1418.31 565.2 L1412.95 565.2 L1412.95 536.93 L1407.86 536.93 L1407.86 532.793 L1412.95 532.793 L1412.95 530.536 Q1412.95 525.125 1415.47 522.666 Q1417.99 520.177 1423.46 520.177 L1428.49 520.177 Z" fill="#000000" fill-rule="nonzero" fill-opacity="1" /><path clip-path="url(#clip480)" d="M1460.67 547.665 L1460.67 550.27 L1436.19 550.27 Q1436.54 555.767 1439.49 558.661 Q1442.47 561.525 1447.76 561.525 Q1450.83 561.525 1453.69 560.773 Q1456.59 560.021 1459.42 558.516 L1459.42 563.551 Q1456.56 564.766 1453.55 565.403 Q1450.54 566.039 1447.44 566.039 Q1439.69 566.039 1435.15 561.525 Q1430.63 557.011 1430.63 549.315 Q1430.63 541.358 1434.92 536.699 Q1439.23 532.012 1446.52 532.012 Q1453.06 532.012 1456.85 536.236 Q1460.67 540.432 1460.67 547.665 M1455.34 546.103 Q1455.29 541.734 1452.88 539.13 Q1450.51 536.525 1446.58 536.525 Q1442.12 536.525 1439.43 539.043 Q1436.77 541.56 1436.36 546.132 L1455.34 546.103 Z" fill="#000000" fill-rule="nonzero" fill-opacity="1" /><path clip-path="url(#clip480)" d="M1484.13 548.91 Q1477.68 548.91 1475.19 550.385 Q1472.71 551.861 1472.71 555.42 Q1472.71 558.256 1474.56 559.934 Q1476.44 561.583 1479.65 561.583 Q1484.08 561.583 1486.74 558.458 Q1489.43 555.304 1489.43 550.096 L1489.43 548.91 L1484.13 548.91 M1494.75 546.711 L1494.75 565.2 L1489.43 565.2 L1489.43 560.281 Q1487.61 563.232 1484.89 564.65 Q1482.17 566.039 1478.23 566.039 Q1473.25 566.039 1470.3 563.261 Q1467.38 560.455 1467.38 555.767 Q1467.38 550.298 1471.03 547.521 Q1474.7 544.743 1481.96 544.743 L1489.43 544.743 L1489.43 544.222 Q1489.43 540.547 1487 538.551 Q1484.6 536.525 1480.23 536.525 Q1477.45 536.525 1474.82 537.191 Q1472.18 537.856 1469.75 539.187 L1469.75 534.268 Q1472.68 533.14 1475.43 532.59 Q1478.17 532.012 1480.78 532.012 Q1487.81 532.012 1491.28 535.657 Q1494.75 539.303 1494.75 546.711 Z" fill="#000000" fill-rule="nonzero" fill-opacity="1" /><path clip-path="url(#clip480)" d="M1510.99 523.591 L1510.99 532.793 L1521.95 532.793 L1521.95 536.93 L1510.99 536.93 L1510.99 554.523 Q1510.99 558.487 1512.06 559.616 Q1513.16 560.744 1516.48 560.744 L1521.95 560.744 L1521.95 565.2 L1516.48 565.2 Q1510.32 565.2 1507.98 562.914 Q1505.63 560.599 1505.63 554.523 L1505.63 536.93 L1501.73 536.93 L1501.73 532.793 L1505.63 532.793 L1505.63 523.591 L1510.99 523.591 Z" fill="#000000" fill-rule="nonzero" fill-opacity="1" /><path clip-path="url(#clip480)" d="M1553.58 575.038 L1553.58 579.176 L1522.79 579.176 L1522.79 575.038 L1553.58 575.038 Z" fill="#000000" fill-rule="nonzero" fill-opacity="1" /><path clip-path="url(#clip480)" d="M1560.35 560.281 L1569.9 560.281 L1569.9 527.324 L1559.51 529.407 L1559.51 524.083 L1569.84 522 L1575.68 522 L1575.68 560.281 L1585.23 560.281 L1585.23 565.2 L1560.35 565.2 L1560.35 560.281 Z" fill="#000000" fill-rule="nonzero" fill-opacity="1" /><path clip-path="url(#clip480)" d="M1442.74 625.081 L1463.14 625.081 L1463.14 630 L1435.71 630 L1435.71 625.081 Q1439.04 621.638 1444.77 615.851 Q1450.53 610.035 1452 608.357 Q1454.81 605.203 1455.91 603.033 Q1457.04 600.833 1457.04 598.721 Q1457.04 595.278 1454.61 593.108 Q1452.2 590.938 1448.33 590.938 Q1445.58 590.938 1442.51 591.893 Q1439.47 592.847 1436 594.786 L1436 588.883 Q1439.53 587.466 1442.6 586.742 Q1445.67 586.019 1448.21 586.019 Q1454.92 586.019 1458.92 589.375 Q1462.91 592.732 1462.91 598.345 Q1462.91 601.007 1461.9 603.409 Q1460.91 605.781 1458.28 609.022 Q1457.56 609.861 1453.68 613.883 Q1449.8 617.876 1442.74 625.081 Z" fill="#000000" fill-rule="nonzero" fill-opacity="1" /><path clip-path="url(#clip480)" d="M1475.41 622.651 L1481.52 622.651 L1481.52 630 L1475.41 630 L1475.41 622.651 Z" fill="#000000" fill-rule="nonzero" fill-opacity="1" /><path clip-path="url(#clip480)" d="M1494.31 586.8 L1517.25 586.8 L1517.25 591.719 L1499.66 591.719 L1499.66 602.309 Q1500.93 601.875 1502.2 601.673 Q1503.48 601.441 1504.75 601.441 Q1511.98 601.441 1516.21 605.405 Q1520.43 609.369 1520.43 616.14 Q1520.43 623.113 1516.09 626.991 Q1511.75 630.839 1503.85 630.839 Q1501.13 630.839 1498.3 630.376 Q1495.49 629.913 1492.48 628.987 L1492.48 623.113 Q1495.09 624.531 1497.86 625.226 Q1500.64 625.92 1503.74 625.92 Q1508.74 625.92 1511.67 623.287 Q1514.59 620.654 1514.59 616.14 Q1514.59 611.626 1511.67 608.993 Q1508.74 606.36 1503.74 606.36 Q1501.39 606.36 1499.05 606.881 Q1496.74 607.402 1494.31 608.501 L1494.31 586.8 Z" fill="#000000" fill-rule="nonzero" fill-opacity="1" /><path clip-path="url(#clip480)" d="M1536.98 625.081 L1557.38 625.081 L1557.38 630 L1529.95 630 L1529.95 625.081 Q1533.28 621.638 1539.01 615.851 Q1544.77 610.035 1546.24 608.357 Q1549.05 605.203 1550.15 603.033 Q1551.28 600.833 1551.28 598.721 Q1551.28 595.278 1548.85 593.108 Q1546.45 590.938 1542.57 590.938 Q1539.82 590.938 1536.75 591.893 Q1533.71 592.847 1530.24 594.786 L1530.24 588.883 Q1533.77 587.466 1536.84 586.742 Q1539.91 586.019 1542.45 586.019 Q1549.17 586.019 1553.16 589.375 Q1557.15 592.732 1557.15 598.345 Q1557.15 601.007 1556.14 603.409 Q1555.16 605.781 1552.52 609.022 Q1551.8 609.861 1547.92 613.883 Q1544.04 617.876 1536.98 625.081 Z" fill="#000000" fill-rule="nonzero" fill-opacity="1" /><path clip-path="url(#clip480)" d="M242.696 986.2 L258.292 986.2 L258.292 990.945 L242.696 990.945 L242.696 986.2 Z" fill="#000000" fill-rule="nonzero" fill-opacity="1" /><path clip-path="url(#clip480)" d="M280.023 965.454 Q275.509 965.454 273.223 969.91 Q270.966 974.337 270.966 983.249 Q270.966 992.132 273.223 996.588 Q275.509 1001.01 280.023 1001.01 Q284.565 1001.01 286.822 996.588 Q289.108 992.132 289.108 983.249 Q289.108 974.337 286.822 969.91 Q284.565 965.454 280.023 965.454 M280.023 960.824 Q287.285 960.824 291.105 966.582 Q294.953 972.311 294.953 983.249 Q294.953 994.157 291.105 999.915 Q287.285 1005.64 280.023 1005.64 Q272.76 1005.64 268.911 999.915 Q265.092 994.157 265.092 983.249 Q265.092 972.311 268.911 966.582 Q272.76 960.824 280.023 960.824 Z" fill="#000000" fill-rule="nonzero" fill-opacity="1" /><path clip-path="url(#clip480)" d="M305.225 997.456 L311.33 997.456 L311.33 1004.81 L305.225 1004.81 L305.225 997.456 Z" fill="#000000" fill-rule="nonzero" fill-opacity="1" /><path clip-path="url(#clip480)" d="M325.074 999.886 L334.623 999.886 L334.623 966.929 L324.235 969.013 L324.235 963.688 L334.565 961.605 L340.41 961.605 L340.41 999.886 L349.958 999.886 L349.958 1004.81 L325.074 1004.81 L325.074 999.886 Z" fill="#000000" fill-rule="nonzero" fill-opacity="1" /><path clip-path="url(#clip480)" d="M362.777 999.886 L372.325 999.886 L372.325 966.929 L361.938 969.013 L361.938 963.688 L372.267 961.605 L378.112 961.605 L378.112 999.886 L387.661 999.886 L387.661 1004.81 L362.777 1004.81 L362.777 999.886 Z" fill="#000000" fill-rule="nonzero" fill-opacity="1" /><path clip-path="url(#clip480)" d="M696.393 986.2 L711.989 986.2 L711.989 990.945 L696.393 990.945 L696.393 986.2 Z" fill="#000000" fill-rule="nonzero" fill-opacity="1" /><path clip-path="url(#clip480)" d="M733.719 965.454 Q729.205 965.454 726.919 969.91 Q724.662 974.337 724.662 983.249 Q724.662 992.132 726.919 996.588 Q729.205 1001.01 733.719 1001.01 Q738.262 1001.01 740.519 996.588 Q742.805 992.132 742.805 983.249 Q742.805 974.337 740.519 969.91 Q738.262 965.454 733.719 965.454 M733.719 960.824 Q740.982 960.824 744.801 966.582 Q748.649 972.311 748.649 983.249 Q748.649 994.157 744.801 999.915 Q740.982 1005.64 733.719 1005.64 Q726.456 1005.64 722.608 999.915 Q718.788 994.157 718.788 983.249 Q718.788 972.311 722.608 966.582 Q726.456 960.824 733.719 960.824 Z" fill="#000000" fill-rule="nonzero" fill-opacity="1" /><path clip-path="url(#clip480)" d="M758.921 997.456 L765.027 997.456 L765.027 1004.81 L758.921 1004.81 L758.921 997.456 Z" fill="#000000" fill-rule="nonzero" fill-opacity="1" /><path clip-path="url(#clip480)" d="M790.258 965.454 Q785.744 965.454 783.458 969.91 Q781.201 974.337 781.201 983.249 Q781.201 992.132 783.458 996.588 Q785.744 1001.01 790.258 1001.01 Q794.801 1001.01 797.058 996.588 Q799.344 992.132 799.344 983.249 Q799.344 974.337 797.058 969.91 Q794.801 965.454 790.258 965.454 M790.258 960.824 Q797.521 960.824 801.34 966.582 Q805.188 972.311 805.188 983.249 Q805.188 994.157 801.34 999.915 Q797.521 1005.64 790.258 1005.64 Q782.995 1005.64 779.147 999.915 Q775.328 994.157 775.328 983.249 Q775.328 972.311 779.147 966.582 Q782.995 960.824 790.258 960.824 Z" fill="#000000" fill-rule="nonzero" fill-opacity="1" /><path clip-path="url(#clip480)" d="M828.684 980.876 Q824.749 980.876 822.434 983.567 Q820.148 986.258 820.148 990.945 Q820.148 995.604 822.434 998.324 Q824.749 1001.01 828.684 1001.01 Q832.619 1001.01 834.905 998.324 Q837.22 995.604 837.22 990.945 Q837.22 986.258 834.905 983.567 Q832.619 980.876 828.684 980.876 M840.287 962.56 L840.287 967.884 Q838.088 966.842 835.831 966.293 Q833.603 965.743 831.404 965.743 Q825.617 965.743 822.55 969.649 Q819.511 973.555 819.077 981.455 Q820.784 978.937 823.36 977.606 Q825.935 976.246 829.031 976.246 Q835.541 976.246 839.303 980.21 Q843.093 984.146 843.093 990.945 Q843.093 997.6 839.158 1001.62 Q835.223 1005.64 828.684 1005.64 Q821.19 1005.64 817.225 999.915 Q813.261 994.157 813.261 983.249 Q813.261 973.006 818.122 966.929 Q822.984 960.824 831.172 960.824 Q833.371 960.824 835.599 961.258 Q837.856 961.692 840.287 962.56 Z" fill="#000000" fill-rule="nonzero" fill-opacity="1" /><path clip-path="url(#clip480)" d="M854.175 999.886 L863.724 999.886 L863.724 966.929 L853.336 969.013 L853.336 963.688 L863.666 961.605 L869.511 961.605 L869.511 999.886 L879.06 999.886 L879.06 1004.81 L854.175 1004.81 L854.175 999.886 Z" fill="#000000" fill-rule="nonzero" fill-opacity="1" /><path clip-path="url(#clip480)" d="M1194.71 965.454 Q1190.19 965.454 1187.91 969.91 Q1185.65 974.337 1185.65 983.249 Q1185.65 992.132 1187.91 996.588 Q1190.19 1001.01 1194.71 1001.01 Q1199.25 1001.01 1201.51 996.588 Q1203.79 992.132 1203.79 983.249 Q1203.79 974.337 1201.51 969.91 Q1199.25 965.454 1194.71 965.454 M1194.71 960.824 Q1201.97 960.824 1205.79 966.582 Q1209.64 972.311 1209.64 983.249 Q1209.64 994.157 1205.79 999.915 Q1201.97 1005.64 1194.71 1005.64 Q1187.44 1005.64 1183.6 999.915 Q1179.78 994.157 1179.78 983.249 Q1179.78 972.311 1183.6 966.582 Q1187.44 960.824 1194.71 960.824 Z" fill="#000000" fill-rule="nonzero" fill-opacity="1" /><path clip-path="url(#clip480)" d="M1219.91 997.456 L1226.01 997.456 L1226.01 1004.81 L1219.91 1004.81 L1219.91 997.456 Z" fill="#000000" fill-rule="nonzero" fill-opacity="1" /><path clip-path="url(#clip480)" d="M1251.25 965.454 Q1246.73 965.454 1244.45 969.91 Q1242.19 974.337 1242.19 983.249 Q1242.19 992.132 1244.45 996.588 Q1246.73 1001.01 1251.25 1001.01 Q1255.79 1001.01 1258.05 996.588 Q1260.33 992.132 1260.33 983.249 Q1260.33 974.337 1258.05 969.91 Q1255.79 965.454 1251.25 965.454 M1251.25 960.824 Q1258.51 960.824 1262.33 966.582 Q1266.18 972.311 1266.18 983.249 Q1266.18 994.157 1262.33 999.915 Q1258.51 1005.64 1251.25 1005.64 Q1243.98 1005.64 1240.14 999.915 Q1236.32 994.157 1236.32 983.249 Q1236.32 972.311 1240.14 966.582 Q1243.98 960.824 1251.25 960.824 Z" fill="#000000" fill-rule="nonzero" fill-opacity="1" /><path clip-path="url(#clip480)" d="M1276.51 961.605 L1299.45 961.605 L1299.45 966.524 L1281.86 966.524 L1281.86 977.114 Q1283.13 976.68 1284.41 976.478 Q1285.68 976.246 1286.95 976.246 Q1294.19 976.246 1298.41 980.21 Q1302.63 984.174 1302.63 990.945 Q1302.63 997.919 1298.29 1001.8 Q1293.95 1005.64 1286.05 1005.64 Q1283.34 1005.64 1280.5 1005.18 Q1277.69 1004.72 1274.68 1003.79 L1274.68 997.919 Q1277.29 999.336 1280.07 1000.03 Q1282.84 1000.73 1285.94 1000.73 Q1290.94 1000.73 1293.87 998.092 Q1296.79 995.459 1296.79 990.945 Q1296.79 986.431 1293.87 983.798 Q1290.94 981.165 1285.94 981.165 Q1283.6 981.165 1281.25 981.686 Q1278.94 982.207 1276.51 983.306 L1276.51 961.605 Z" fill="#000000" fill-rule="nonzero" fill-opacity="1" /><path clip-path="url(#clip480)" d="M1331.86 981.512 Q1336.05 982.409 1338.4 985.245 Q1340.77 988.081 1340.77 992.247 Q1340.77 998.642 1336.37 1002.14 Q1331.97 1005.64 1323.87 1005.64 Q1321.15 1005.64 1318.26 1005.09 Q1315.4 1004.57 1312.33 1003.5 L1312.33 997.861 Q1314.76 999.279 1317.65 1000 Q1320.55 1000.73 1323.7 1000.73 Q1329.2 1000.73 1332.06 998.555 Q1334.96 996.385 1334.96 992.247 Q1334.96 988.428 1332.26 986.287 Q1329.6 984.117 1324.83 984.117 L1319.79 984.117 L1319.79 979.313 L1325.06 979.313 Q1329.37 979.313 1331.66 977.606 Q1333.94 975.87 1333.94 972.629 Q1333.94 969.302 1331.57 967.537 Q1329.23 965.743 1324.83 965.743 Q1322.43 965.743 1319.68 966.264 Q1316.93 966.785 1313.63 967.884 L1313.63 962.676 Q1316.96 961.75 1319.85 961.287 Q1322.77 960.824 1325.35 960.824 Q1332 960.824 1335.88 963.862 Q1339.76 966.871 1339.76 972.022 Q1339.76 975.61 1337.7 978.098 Q1335.65 980.558 1331.86 981.512 Z" fill="#000000" fill-rule="nonzero" fill-opacity="1" /><path clip-path="url(#clip480)" d="M1622.28 986.2 L1637.87 986.2 L1637.87 990.945 L1622.28 990.945 L1622.28 986.2 Z" fill="#000000" fill-rule="nonzero" fill-opacity="1" /><path clip-path="url(#clip480)" d="M1659.6 965.454 Q1655.09 965.454 1652.8 969.91 Q1650.54 974.337 1650.54 983.249 Q1650.54 992.132 1652.8 996.588 Q1655.09 1001.01 1659.6 1001.01 Q1664.14 1001.01 1666.4 996.588 Q1668.69 992.132 1668.69 983.249 Q1668.69 974.337 1666.4 969.91 Q1664.14 965.454 1659.6 965.454 M1659.6 960.824 Q1666.86 960.824 1670.68 966.582 Q1674.53 972.311 1674.53 983.249 Q1674.53 994.157 1670.68 999.915 Q1666.86 1005.64 1659.6 1005.64 Q1652.34 1005.64 1648.49 999.915 Q1644.67 994.157 1644.67 983.249 Q1644.67 972.311 1648.49 966.582 Q1652.34 960.824 1659.6 960.824 Z" fill="#000000" fill-rule="nonzero" fill-opacity="1" /><path clip-path="url(#clip480)" d="M1684.8 997.456 L1690.91 997.456 L1690.91 1004.81 L1684.8 1004.81 L1684.8 997.456 Z" fill="#000000" fill-rule="nonzero" fill-opacity="1" /><path clip-path="url(#clip480)" d="M1716.14 965.454 Q1711.63 965.454 1709.34 969.91 Q1707.08 974.337 1707.08 983.249 Q1707.08 992.132 1709.34 996.588 Q1711.63 1001.01 1716.14 1001.01 Q1720.68 1001.01 1722.94 996.588 Q1725.23 992.132 1725.23 983.249 Q1725.23 974.337 1722.94 969.91 Q1720.68 965.454 1716.14 965.454 M1716.14 960.824 Q1723.4 960.824 1727.22 966.582 Q1731.07 972.311 1731.07 983.249 Q1731.07 994.157 1727.22 999.915 Q1723.4 1005.64 1716.14 1005.64 Q1708.88 1005.64 1705.03 999.915 Q1701.21 994.157 1701.21 983.249 Q1701.21 972.311 1705.03 966.582 Q1708.88 960.824 1716.14 960.824 Z" fill="#000000" fill-rule="nonzero" fill-opacity="1" /><path clip-path="url(#clip480)" d="M1741.52 1003.91 L1741.52 998.584 Q1743.72 999.626 1745.97 1000.18 Q1748.23 1000.73 1750.4 1000.73 Q1756.19 1000.73 1759.22 996.848 Q1762.29 992.942 1762.73 985.014 Q1761.05 987.502 1758.47 988.833 Q1755.9 990.164 1752.77 990.164 Q1746.29 990.164 1742.5 986.258 Q1738.74 982.323 1738.74 975.523 Q1738.74 968.868 1742.67 964.846 Q1746.61 960.824 1753.15 960.824 Q1760.64 960.824 1764.58 966.582 Q1768.54 972.311 1768.54 983.249 Q1768.54 993.463 1763.68 999.568 Q1758.85 1005.64 1750.66 1005.64 Q1748.46 1005.64 1746.2 1005.21 Q1743.95 1004.78 1741.52 1003.91 M1753.15 985.592 Q1757.08 985.592 1759.37 982.901 Q1761.68 980.21 1761.68 975.523 Q1761.68 970.864 1759.37 968.173 Q1757.08 965.454 1753.15 965.454 Q1749.21 965.454 1746.9 968.173 Q1744.61 970.864 1744.61 975.523 Q1744.61 980.21 1746.9 982.901 Q1749.21 985.592 1753.15 985.592 Z" fill="#000000" fill-rule="nonzero" fill-opacity="1" /><path clip-path="url(#clip480)" d="M1795.1 966.698 L1780.35 989.759 L1795.1 989.759 L1795.1 966.698 M1793.57 961.605 L1800.92 961.605 L1800.92 989.759 L1807.08 989.759 L1807.08 994.62 L1800.92 994.62 L1800.92 1004.81 L1795.1 1004.81 L1795.1 994.62 L1775.6 994.62 L1775.6 988.978 L1793.57 961.605 Z" fill="#000000" fill-rule="nonzero" fill-opacity="1" /><path clip-path="url(#clip480)" d="M1834.46 981.512 Q1838.65 982.409 1841 985.245 Q1843.37 988.081 1843.37 992.247 Q1843.37 998.642 1838.97 1002.14 Q1834.57 1005.64 1826.47 1005.64 Q1823.75 1005.64 1820.86 1005.09 Q1817.99 1004.57 1814.92 1003.5 L1814.92 997.861 Q1817.36 999.279 1820.25 1000 Q1823.14 1000.73 1826.3 1000.73 Q1831.79 1000.73 1834.66 998.555 Q1837.55 996.385 1837.55 992.247 Q1837.55 988.428 1834.86 986.287 Q1832.2 984.117 1827.42 984.117 L1822.39 984.117 L1822.39 979.313 L1827.66 979.313 Q1831.97 979.313 1834.25 977.606 Q1836.54 975.87 1836.54 972.629 Q1836.54 969.302 1834.17 967.537 Q1831.82 965.743 1827.42 965.743 Q1825.02 965.743 1822.27 966.264 Q1819.53 966.785 1816.23 967.884 L1816.23 962.676 Q1819.55 961.75 1822.45 961.287 Q1825.37 960.824 1827.95 960.824 Q1834.6 960.824 1838.48 963.862 Q1842.35 966.871 1842.35 972.022 Q1842.35 975.61 1840.3 978.098 Q1838.25 980.558 1834.46 981.512 Z" fill="#000000" fill-rule="nonzero" fill-opacity="1" /></svg>
