<?xml version="1.0" encoding="utf-8"?>
<svg xmlns="http://www.w3.org/2000/svg" xmlns:xlink="http://www.w3.org/1999/xlink" width="600" height="400" viewBox="0 0 2400 1600">
<defs>
  <clipPath id="clip4100">
    <rect x="0" y="0" width="2400" height="1600"/>
  </clipPath>
</defs>
<path clip-path="url(#clip4100)" d="
M0 1600 L2400 1600 L2400 0 L0 0  Z
  " fill="#ffffff" fill-rule="evenodd" fill-opacity="1"/>
<defs>
  <clipPath id="clip4101">
    <rect x="480" y="0" width="1681" height="1600"/>
  </clipPath>
</defs>
<path clip-path="url(#clip4100)" d="
M289.025 716.181 L957.963 716.181 L957.963 47.2441 L289.025 47.2441  Z
  " fill="#ffffff" fill-rule="evenodd" fill-opacity="1"/>
<defs>
  <clipPath id="clip4102">
    <rect x="289" y="47" width="670" height="670"/>
  </clipPath>
</defs>
<polyline clip-path="url(#clip4102)" style="stroke:#a52a2a; stroke-width:4; stroke-opacity:1; fill:none" points="
  615.627,142.807 615.206,150.262 613.984,157.662 612.02,165.012 609.372,172.315 606.101,179.575 602.266,186.797 597.926,193.984 593.141,201.141 587.969,208.271 
  582.471,215.379 576.706,222.469 570.733,229.544 564.612,236.609 558.401,243.668 552.161,250.725 545.95,257.785 539.829,264.85 533.856,271.925 528.091,279.015 
  522.593,286.123 517.422,293.253 512.636,300.41 508.296,307.597 504.461,314.818 501.19,322.079 498.543,329.382 496.578,336.731 495.356,344.132 494.935,351.587 
  
  "/>
<polyline clip-path="url(#clip4102)" style="stroke:#a52a2a; stroke-width:4; stroke-opacity:1; fill:none" points="
  615.627,142.807 616.046,150.379 617.262,157.905 619.216,165.389 621.851,172.832 625.105,180.239 628.921,187.614 633.239,194.96 638,202.279 643.146,209.576 
  648.616,216.855 654.352,224.117 660.295,231.368 666.386,238.61 672.565,245.847 678.774,253.082 684.953,260.319 691.044,267.562 696.986,274.812 702.723,282.075 
  708.193,289.353 713.338,296.651 718.099,303.97 722.417,311.316 726.233,318.69 729.488,326.098 732.122,333.541 734.077,341.024 735.293,348.551 735.711,356.123 
  
  "/>
<polyline clip-path="url(#clip4102)" style="stroke:#a52a2a; stroke-width:4; stroke-opacity:1; fill:none" points="
  494.935,351.587 494.962,360.033 495.042,368.658 495.169,377.447 495.341,386.387 495.553,395.466 495.802,404.671 496.084,413.987 496.394,423.403 496.73,432.904 
  497.086,442.478 497.46,452.111 497.848,461.79 498.245,471.502 498.648,481.234 499.053,490.972 499.456,500.704 499.853,510.416 500.24,520.095 500.614,529.728 
  500.971,539.302 501.306,548.803 501.617,558.219 501.899,567.535 502.147,576.739 502.36,585.819 502.531,594.759 502.659,603.548 502.738,612.173 502.765,620.619 
  
  "/>
<polyline clip-path="url(#clip4102)" style="stroke:#a52a2a; stroke-width:4; stroke-opacity:1; fill:none" points="
  494.935,351.587 494.551,358.784 493.433,365.949 491.637,373.087 489.216,380.198 486.226,387.285 482.719,394.351 478.751,401.397 474.376,408.426 469.648,415.441 
  464.621,422.442 459.35,429.434 453.889,436.418 448.292,443.396 442.614,450.37 436.909,457.344 431.231,464.318 425.634,471.296 420.173,478.28 414.902,485.271 
  409.875,492.273 405.147,499.288 400.772,506.317 396.804,513.363 393.298,520.429 390.307,527.516 387.886,534.627 386.09,541.764 384.972,548.93 384.588,556.127 
  
  "/>
<polyline clip-path="url(#clip4102)" style="stroke:#a52a2a; stroke-width:4; stroke-opacity:1; fill:none" points="
  735.711,356.123 735.752,363.577 735.871,371.187 736.063,378.941 736.321,386.827 736.639,394.835 737.012,402.953 737.435,411.169 737.901,419.471 738.404,427.848 
  738.94,436.289 739.501,444.782 740.083,453.315 740.679,461.878 741.284,470.457 741.891,479.042 742.496,487.622 743.092,496.184 743.673,504.717 744.235,513.21 
  744.77,521.651 745.274,530.028 745.74,538.33 746.162,546.546 746.536,554.664 746.854,562.672 747.112,570.559 747.303,578.312 747.422,585.922 747.463,593.376 
  
  "/>
<polyline clip-path="url(#clip4102)" style="stroke:#a52a2a; stroke-width:4; stroke-opacity:1; fill:none" points="
  735.711,356.123 736.153,361.827 737.436,367.326 739.498,372.638 742.277,377.776 745.711,382.755 749.737,387.591 754.292,392.3 759.315,396.894 764.744,401.391 
  770.515,405.805 776.566,410.151 782.836,414.445 789.262,418.7 795.781,422.933 802.331,427.159 808.85,431.392 815.276,435.647 821.545,439.941 827.597,444.287 
  833.368,448.701 838.796,453.198 843.819,457.793 848.375,462.501 852.401,467.337 855.834,472.316 858.613,477.454 860.676,482.766 861.959,488.265 862.4,493.969 
  
  "/>
<path clip-path="url(#clip4102)" d="
M712.846 142.807 L664.237 58.6122 L567.017 58.6122 L518.408 142.807 L567.017 227.001 L664.237 227.001 L712.846 142.807 L712.846 142.807  Z
  " fill="#66ffcc" fill-rule="evenodd" fill-opacity="1"/>
<polyline clip-path="url(#clip4102)" style="stroke:#a52a2a; stroke-width:0; stroke-opacity:0; fill:none" points="
  712.846,142.807 664.237,58.6122 567.017,58.6122 518.408,142.807 567.017,227.001 664.237,227.001 712.846,142.807 
  "/>
<path clip-path="url(#clip4102)" d="
M586.934 351.587 L540.934 271.914 L448.936 271.914 L402.936 351.587 L448.936 431.26 L540.934 431.26 L586.934 351.587 L586.934 351.587  Z
  " fill="#66ffcc" fill-rule="evenodd" fill-opacity="1"/>
<polyline clip-path="url(#clip4102)" style="stroke:#a52a2a; stroke-width:0; stroke-opacity:0; fill:none" points="
  586.934,351.587 540.934,271.914 448.936,271.914 402.936,351.587 448.936,431.26 540.934,431.26 586.934,351.587 
  "/>
<path clip-path="url(#clip4102)" d="
M822.414 356.123 L779.063 281.036 L692.36 281.036 L649.008 356.123 L692.36 431.21 L779.063 431.21 L822.414 356.123 L822.414 356.123  Z
  " fill="#66ffcc" fill-rule="evenodd" fill-opacity="1"/>
<polyline clip-path="url(#clip4102)" style="stroke:#a52a2a; stroke-width:0; stroke-opacity:0; fill:none" points="
  822.414,356.123 779.063,281.036 692.36,281.036 649.008,356.123 692.36,431.21 779.063,431.21 822.414,356.123 822.414,356.123 
  "/>
<path clip-path="url(#clip4102)" d="
M584.09 620.619 L543.428 550.189 L462.103 550.189 L421.44 620.619 L462.103 691.048 L543.428 691.048 L584.09 620.619 L584.09 620.619  Z
  " fill="#66ffcc" fill-rule="evenodd" fill-opacity="1"/>
<polyline clip-path="url(#clip4102)" style="stroke:#a52a2a; stroke-width:0; stroke-opacity:0; fill:none" points="
  584.09,620.619 543.428,550.189 462.103,550.189 421.44,620.619 462.103,691.048 543.428,691.048 584.09,620.619 
  "/>
<path clip-path="url(#clip4102)" d="
M465.913 556.127 L425.25 485.697 L343.925 485.697 L303.263 556.127 L343.925 626.556 L425.25 626.556 L465.913 556.127 L465.913 556.127  Z
  " fill="#66ffcc" fill-rule="evenodd" fill-opacity="1"/>
<polyline clip-path="url(#clip4102)" style="stroke:#a52a2a; stroke-width:0; stroke-opacity:0; fill:none" points="
  465.913,556.127 425.25,485.697 343.925,485.697 303.263,556.127 343.925,626.556 425.25,626.556 465.913,556.127 
  "/>
<path clip-path="url(#clip4102)" d="
M834.166 593.376 L790.815 518.289 L704.112 518.289 L660.76 593.376 L704.112 668.463 L790.815 668.463 L834.166 593.376 L834.166 593.376  Z
  " fill="#66ffcc" fill-rule="evenodd" fill-opacity="1"/>
<polyline clip-path="url(#clip4102)" style="stroke:#a52a2a; stroke-width:0; stroke-opacity:0; fill:none" points="
  834.166,593.376 790.815,518.289 704.112,518.289 660.76,593.376 704.112,668.463 790.815,668.463 834.166,593.376 
  "/>
<path clip-path="url(#clip4102)" d="
M954.399 493.969 L908.399 414.296 L816.401 414.296 L770.401 493.969 L816.401 573.642 L908.399 573.642 L954.399 493.969 L954.399 493.969  Z
  " fill="#66ffcc" fill-rule="evenodd" fill-opacity="1"/>
<polyline clip-path="url(#clip4102)" style="stroke:#a52a2a; stroke-width:0; stroke-opacity:0; fill:none" points="
  954.399,493.969 908.399,414.296 816.401,414.296 770.401,493.969 816.401,573.642 908.399,573.642 954.399,493.969 
  "/>
<circle clip-path="url(#clip4102)" style="fill:#c68125; stroke:none; fill-opacity:0" cx="615.627" cy="142.807" r="2"/>
<circle clip-path="url(#clip4102)" style="fill:#c68125; stroke:none; fill-opacity:0" cx="494.935" cy="351.587" r="2"/>
<circle clip-path="url(#clip4102)" style="fill:#c68125; stroke:none; fill-opacity:0" cx="735.711" cy="356.123" r="2"/>
<circle clip-path="url(#clip4102)" style="fill:#c68125; stroke:none; fill-opacity:0" cx="502.765" cy="620.619" r="2"/>
<circle clip-path="url(#clip4102)" style="fill:#c68125; stroke:none; fill-opacity:0" cx="384.588" cy="556.127" r="2"/>
<circle clip-path="url(#clip4102)" style="fill:#c68125; stroke:none; fill-opacity:0" cx="747.463" cy="593.376" r="2"/>
<circle clip-path="url(#clip4102)" style="fill:#c68125; stroke:none; fill-opacity:0" cx="862.4" cy="493.969" r="2"/>
<g clip-path="url(#clip4100)">
<text style="fill:#000000; fill-opacity:1; font-family:Arial,Helvetica Neue,Helvetica,sans-serif; font-size:48px; text-anchor:middle;" transform="rotate(0, 615.627, 134.387)" x="615.627" y="134.387">feat: 1</text>
</g>
<g clip-path="url(#clip4100)">
<text style="fill:#000000; fill-opacity:1; font-family:Arial,Helvetica Neue,Helvetica,sans-serif; font-size:48px; text-anchor:middle;" transform="rotate(0, 615.627, 186.227)" x="615.627" y="186.227">&lt; 0.996</text>
</g>
<g clip-path="url(#clip4100)">
<text style="fill:#000000; fill-opacity:1; font-family:Arial,Helvetica Neue,Helvetica,sans-serif; font-size:48px; text-anchor:middle;" transform="rotate(0, 494.935, 343.167)" x="494.935" y="343.167">feat: 2</text>
</g>
<g clip-path="url(#clip4100)">
<text style="fill:#000000; fill-opacity:1; font-family:Arial,Helvetica Neue,Helvetica,sans-serif; font-size:48px; text-anchor:middle;" transform="rotate(0, 494.935, 395.007)" x="494.935" y="395.007">&lt; 1.12</text>
</g>
<g clip-path="url(#clip4100)">
<text style="fill:#000000; fill-opacity:1; font-family:Arial,Helvetica Neue,Helvetica,sans-serif; font-size:48px; text-anchor:middle;" transform="rotate(0, 735.711, 347.703)" x="735.711" y="347.703">feat: 2</text>
</g>
<g clip-path="url(#clip4100)">
<text style="fill:#000000; fill-opacity:1; font-family:Arial,Helvetica Neue,Helvetica,sans-serif; font-size:48px; text-anchor:middle;" transform="rotate(0, 735.711, 399.543)" x="735.711" y="399.543">&lt; 1.0</text>
</g>
<g clip-path="url(#clip4100)">
<text style="fill:#000000; fill-opacity:1; font-family:Arial,Helvetica Neue,Helvetica,sans-serif; font-size:48px; text-anchor:middle;" transform="rotate(0, 502.765, 612.199)" x="502.765" y="612.199">pred:</text>
</g>
<g clip-path="url(#clip4100)">
<text style="fill:#000000; fill-opacity:1; font-family:Arial,Helvetica Neue,Helvetica,sans-serif; font-size:48px; text-anchor:middle;" transform="rotate(0, 502.765, 664.039)" x="502.765" y="664.039">0.0126</text>
</g>
<g clip-path="url(#clip4100)">
<text style="fill:#000000; fill-opacity:1; font-family:Arial,Helvetica Neue,Helvetica,sans-serif; font-size:48px; text-anchor:middle;" transform="rotate(0, 384.588, 547.707)" x="384.588" y="547.707">pred:</text>
</g>
<g clip-path="url(#clip4100)">
<text style="fill:#000000; fill-opacity:1; font-family:Arial,Helvetica Neue,Helvetica,sans-serif; font-size:48px; text-anchor:middle;" transform="rotate(0, 384.588, 599.547)" x="384.588" y="599.547">0.0597</text>
</g>
<g clip-path="url(#clip4100)">
<text style="fill:#000000; fill-opacity:1; font-family:Arial,Helvetica Neue,Helvetica,sans-serif; font-size:48px; text-anchor:middle;" transform="rotate(0, 747.463, 584.956)" x="747.463" y="584.956">pred:</text>
</g>
<g clip-path="url(#clip4100)">
<text style="fill:#000000; fill-opacity:1; font-family:Arial,Helvetica Neue,Helvetica,sans-serif; font-size:48px; text-anchor:middle;" transform="rotate(0, 747.463, 636.796)" x="747.463" y="636.796">-0.0576</text>
</g>
<g clip-path="url(#clip4100)">
<text style="fill:#000000; fill-opacity:1; font-family:Arial,Helvetica Neue,Helvetica,sans-serif; font-size:48px; text-anchor:middle;" transform="rotate(0, 862.4, 485.549)" x="862.4" y="485.549">pred:</text>
</g>
<g clip-path="url(#clip4100)">
<text style="fill:#000000; fill-opacity:1; font-family:Arial,Helvetica Neue,Helvetica,sans-serif; font-size:48px; text-anchor:middle;" transform="rotate(0, 862.4, 537.389)" x="862.4" y="537.389">-0.00511</text>
</g>
<path clip-path="url(#clip4100)" d="
M1489.03 716.181 L2157.96 716.181 L2157.96 47.2441 L1489.03 47.2441  Z
  " fill="#ffffff" fill-rule="evenodd" fill-opacity="1"/>
<defs>
  <clipPath id="clip4103">
    <rect x="1489" y="47" width="670" height="670"/>
  </clipPath>
</defs>
<polyline clip-path="url(#clip4103)" style="stroke:#a52a2a; stroke-width:4; stroke-opacity:1; fill:none" points="
  1815.63,142.807 1815.21,150.262 1813.98,157.662 1812.02,165.012 1809.37,172.315 1806.1,179.575 1802.27,186.797 1797.93,193.984 1793.14,201.141 1787.97,208.271 
  1782.47,215.379 1776.71,222.469 1770.73,229.544 1764.61,236.609 1758.4,243.668 1752.16,250.725 1745.95,257.785 1739.83,264.85 1733.86,271.925 1728.09,279.015 
  1722.59,286.123 1717.42,293.253 1712.64,300.41 1708.3,307.597 1704.46,314.818 1701.19,322.079 1698.54,329.382 1696.58,336.731 1695.36,344.132 1694.94,351.587 
  
  "/>
<polyline clip-path="url(#clip4103)" style="stroke:#a52a2a; stroke-width:4; stroke-opacity:1; fill:none" points="
  1815.63,142.807 1816.05,150.379 1817.26,157.905 1819.22,165.389 1821.85,172.832 1825.11,180.239 1828.92,187.614 1833.24,194.96 1838,202.279 1843.15,209.576 
  1848.62,216.855 1854.35,224.117 1860.29,231.368 1866.39,238.61 1872.56,245.847 1878.77,253.082 1884.95,260.319 1891.04,267.562 1896.99,274.812 1902.72,282.075 
  1908.19,289.353 1913.34,296.651 1918.1,303.97 1922.42,311.316 1926.23,318.69 1929.49,326.098 1932.12,333.541 1934.08,341.024 1935.29,348.551 1935.71,356.123 
  
  "/>
<polyline clip-path="url(#clip4103)" style="stroke:#a52a2a; stroke-width:4; stroke-opacity:1; fill:none" points="
  1694.94,351.587 1694.96,360.033 1695.04,368.658 1695.17,377.447 1695.34,386.387 1695.55,395.466 1695.8,404.671 1696.08,413.987 1696.39,423.403 1696.73,432.904 
  1697.09,442.478 1697.46,452.111 1697.85,461.79 1698.24,471.502 1698.65,481.234 1699.05,490.972 1699.46,500.704 1699.85,510.416 1700.24,520.095 1700.61,529.728 
  1700.97,539.302 1701.31,548.803 1701.62,558.219 1701.9,567.535 1702.15,576.739 1702.36,585.819 1702.53,594.759 1702.66,603.548 1702.74,612.173 1702.77,620.619 
  
  "/>
<polyline clip-path="url(#clip4103)" style="stroke:#a52a2a; stroke-width:4; stroke-opacity:1; fill:none" points="
  1694.94,351.587 1694.55,358.784 1693.43,365.949 1691.64,373.087 1689.22,380.198 1686.23,387.285 1682.72,394.351 1678.75,401.397 1674.38,408.426 1669.65,415.441 
  1664.62,422.442 1659.35,429.434 1653.89,436.418 1648.29,443.396 1642.61,450.37 1636.91,457.344 1631.23,464.318 1625.63,471.296 1620.17,478.28 1614.9,485.271 
  1609.88,492.273 1605.15,499.288 1600.77,506.317 1596.8,513.363 1593.3,520.429 1590.31,527.516 1587.89,534.627 1586.09,541.764 1584.97,548.93 1584.59,556.127 
  
  "/>
<polyline clip-path="url(#clip4103)" style="stroke:#a52a2a; stroke-width:4; stroke-opacity:1; fill:none" points="
  1935.71,356.123 1935.75,363.577 1935.87,371.187 1936.06,378.941 1936.32,386.827 1936.64,394.835 1937.01,402.953 1937.44,411.169 1937.9,419.471 1938.4,427.848 
  1938.94,436.289 1939.5,444.782 1940.08,453.315 1940.68,461.878 1941.28,470.457 1941.89,479.042 1942.5,487.622 1943.09,496.184 1943.67,504.717 1944.23,513.21 
  1944.77,521.651 1945.27,530.028 1945.74,538.33 1946.16,546.546 1946.54,554.664 1946.85,562.672 1947.11,570.559 1947.3,578.312 1947.42,585.922 1947.46,593.376 
  
  "/>
<polyline clip-path="url(#clip4103)" style="stroke:#a52a2a; stroke-width:4; stroke-opacity:1; fill:none" points="
  1935.71,356.123 1936.15,361.827 1937.44,367.326 1939.5,372.638 1942.28,377.776 1945.71,382.755 1949.74,387.591 1954.29,392.3 1959.32,396.894 1964.74,401.391 
  1970.51,405.805 1976.57,410.151 1982.84,414.445 1989.26,418.7 1995.78,422.933 2002.33,427.159 2008.85,431.392 2015.28,435.647 2021.55,439.941 2027.6,444.287 
  2033.37,448.701 2038.8,453.198 2043.82,457.793 2048.37,462.501 2052.4,467.337 2055.83,472.316 2058.61,477.454 2060.68,482.766 2061.96,488.265 2062.4,493.969 
  
  "/>
<path clip-path="url(#clip4103)" d="
M1912.85 142.807 L1864.24 58.6122 L1767.02 58.6122 L1718.41 142.807 L1767.02 227.001 L1864.24 227.001 L1912.85 142.807 L1912.85 142.807  Z
  " fill="#66ffcc" fill-rule="evenodd" fill-opacity="1"/>
<polyline clip-path="url(#clip4103)" style="stroke:#a52a2a; stroke-width:0; stroke-opacity:0; fill:none" points="
  1912.85,142.807 1864.24,58.6122 1767.02,58.6122 1718.41,142.807 1767.02,227.001 1864.24,227.001 1912.85,142.807 
  "/>
<path clip-path="url(#clip4103)" d="
M1781.64 351.587 L1738.29 276.5 L1651.58 276.5 L1608.23 351.587 L1651.58 426.674 L1738.29 426.674 L1781.64 351.587 L1781.64 351.587  Z
  " fill="#66ffcc" fill-rule="evenodd" fill-opacity="1"/>
<polyline clip-path="url(#clip4103)" style="stroke:#a52a2a; stroke-width:0; stroke-opacity:0; fill:none" points="
  1781.64,351.587 1738.29,276.5 1651.58,276.5 1608.23,351.587 1651.58,426.674 1738.29,426.674 1781.64,351.587 
  "/>
<path clip-path="url(#clip4103)" d="
M2022.41 356.123 L1979.06 281.036 L1892.36 281.036 L1849.01 356.123 L1892.36 431.21 L1979.06 431.21 L2022.41 356.123 L2022.41 356.123  Z
  " fill="#66ffcc" fill-rule="evenodd" fill-opacity="1"/>
<polyline clip-path="url(#clip4103)" style="stroke:#a52a2a; stroke-width:0; stroke-opacity:0; fill:none" points="
  2022.41,356.123 1979.06,281.036 1892.36,281.036 1849.01,356.123 1892.36,431.21 1979.06,431.21 2022.41,356.123 2022.41,356.123 
  "/>
<path clip-path="url(#clip4103)" d="
M1789.47 620.619 L1746.12 545.532 L1659.41 545.532 L1616.06 620.619 L1659.41 695.706 L1746.12 695.706 L1789.47 620.619 L1789.47 620.619  Z
  " fill="#66ffcc" fill-rule="evenodd" fill-opacity="1"/>
<polyline clip-path="url(#clip4103)" style="stroke:#a52a2a; stroke-width:0; stroke-opacity:0; fill:none" points="
  1789.47,620.619 1746.12,545.532 1659.41,545.532 1616.06,620.619 1659.41,695.706 1746.12,695.706 1789.47,620.619 
  "/>
<path clip-path="url(#clip4103)" d="
M1665.91 556.127 L1625.25 485.697 L1543.93 485.697 L1503.26 556.127 L1543.93 626.556 L1625.25 626.556 L1665.91 556.127 L1665.91 556.127  Z
  " fill="#66ffcc" fill-rule="evenodd" fill-opacity="1"/>
<polyline clip-path="url(#clip4103)" style="stroke:#a52a2a; stroke-width:0; stroke-opacity:0; fill:none" points="
  1665.91,556.127 1625.25,485.697 1543.93,485.697 1503.26,556.127 1543.93,626.556 1625.25,626.556 1665.91,556.127 
  "/>
<path clip-path="url(#clip4103)" d="
M2034.17 593.376 L1990.81 518.289 L1904.11 518.289 L1860.76 593.376 L1904.11 668.463 L1990.81 668.463 L2034.17 593.376 L2034.17 593.376  Z
  " fill="#66ffcc" fill-rule="evenodd" fill-opacity="1"/>
<polyline clip-path="url(#clip4103)" style="stroke:#a52a2a; stroke-width:0; stroke-opacity:0; fill:none" points="
  2034.17,593.376 1990.81,518.289 1904.11,518.289 1860.76,593.376 1904.11,668.463 1990.81,668.463 2034.17,593.376 
  "/>
<path clip-path="url(#clip4103)" d="
M2154.4 493.969 L2108.4 414.296 L2016.4 414.296 L1970.4 493.969 L2016.4 573.642 L2108.4 573.642 L2154.4 493.969 L2154.4 493.969  Z
  " fill="#66ffcc" fill-rule="evenodd" fill-opacity="1"/>
<polyline clip-path="url(#clip4103)" style="stroke:#a52a2a; stroke-width:0; stroke-opacity:0; fill:none" points="
  2154.4,493.969 2108.4,414.296 2016.4,414.296 1970.4,493.969 2016.4,573.642 2108.4,573.642 2154.4,493.969 
  "/>
<circle clip-path="url(#clip4103)" style="fill:#c68125; stroke:none; fill-opacity:0" cx="1815.63" cy="142.807" r="2"/>
<circle clip-path="url(#clip4103)" style="fill:#c68125; stroke:none; fill-opacity:0" cx="1694.94" cy="351.587" r="2"/>
<circle clip-path="url(#clip4103)" style="fill:#c68125; stroke:none; fill-opacity:0" cx="1935.71" cy="356.123" r="2"/>
<circle clip-path="url(#clip4103)" style="fill:#c68125; stroke:none; fill-opacity:0" cx="1702.77" cy="620.619" r="2"/>
<circle clip-path="url(#clip4103)" style="fill:#c68125; stroke:none; fill-opacity:0" cx="1584.59" cy="556.127" r="2"/>
<circle clip-path="url(#clip4103)" style="fill:#c68125; stroke:none; fill-opacity:0" cx="1947.46" cy="593.376" r="2"/>
<circle clip-path="url(#clip4103)" style="fill:#c68125; stroke:none; fill-opacity:0" cx="2062.4" cy="493.969" r="2"/>
<g clip-path="url(#clip4100)">
<text style="fill:#000000; fill-opacity:1; font-family:Arial,Helvetica Neue,Helvetica,sans-serif; font-size:48px; text-anchor:middle;" transform="rotate(0, 1815.63, 134.387)" x="1815.63" y="134.387">feat: 1</text>
</g>
<g clip-path="url(#clip4100)">
<text style="fill:#000000; fill-opacity:1; font-family:Arial,Helvetica Neue,Helvetica,sans-serif; font-size:48px; text-anchor:middle;" transform="rotate(0, 1815.63, 186.227)" x="1815.63" y="186.227">&lt; 0.996</text>
</g>
<g clip-path="url(#clip4100)">
<text style="fill:#000000; fill-opacity:1; font-family:Arial,Helvetica Neue,Helvetica,sans-serif; font-size:48px; text-anchor:middle;" transform="rotate(0, 1694.94, 343.167)" x="1694.94" y="343.167">feat: 2</text>
</g>
<g clip-path="url(#clip4100)">
<text style="fill:#000000; fill-opacity:1; font-family:Arial,Helvetica Neue,Helvetica,sans-serif; font-size:48px; text-anchor:middle;" transform="rotate(0, 1694.94, 395.007)" x="1694.94" y="395.007">&lt; 1.0</text>
</g>
<g clip-path="url(#clip4100)">
<text style="fill:#000000; fill-opacity:1; font-family:Arial,Helvetica Neue,Helvetica,sans-serif; font-size:48px; text-anchor:middle;" transform="rotate(0, 1935.71, 347.703)" x="1935.71" y="347.703">feat: 2</text>
</g>
<g clip-path="url(#clip4100)">
<text style="fill:#000000; fill-opacity:1; font-family:Arial,Helvetica Neue,Helvetica,sans-serif; font-size:48px; text-anchor:middle;" transform="rotate(0, 1935.71, 399.543)" x="1935.71" y="399.543">&lt; 1.0</text>
</g>
<g clip-path="url(#clip4100)">
<text style="fill:#000000; fill-opacity:1; font-family:Arial,Helvetica Neue,Helvetica,sans-serif; font-size:48px; text-anchor:middle;" transform="rotate(0, 1702.77, 612.199)" x="1702.77" y="612.199">pred:</text>
</g>
<g clip-path="url(#clip4100)">
<text style="fill:#000000; fill-opacity:1; font-family:Arial,Helvetica Neue,Helvetica,sans-serif; font-size:48px; text-anchor:middle;" transform="rotate(0, 1702.77, 664.039)" x="1702.77" y="664.039">0.00822</text>
</g>
<g clip-path="url(#clip4100)">
<text style="fill:#000000; fill-opacity:1; font-family:Arial,Helvetica Neue,Helvetica,sans-serif; font-size:48px; text-anchor:middle;" transform="rotate(0, 1584.59, 547.707)" x="1584.59" y="547.707">pred:</text>
</g>
<g clip-path="url(#clip4100)">
<text style="fill:#000000; fill-opacity:1; font-family:Arial,Helvetica Neue,Helvetica,sans-serif; font-size:48px; text-anchor:middle;" transform="rotate(0, 1584.59, 599.547)" x="1584.59" y="599.547">0.0535</text>
</g>
<g clip-path="url(#clip4100)">
<text style="fill:#000000; fill-opacity:1; font-family:Arial,Helvetica Neue,Helvetica,sans-serif; font-size:48px; text-anchor:middle;" transform="rotate(0, 1947.46, 584.956)" x="1947.46" y="584.956">pred:</text>
</g>
<g clip-path="url(#clip4100)">
<text style="fill:#000000; fill-opacity:1; font-family:Arial,Helvetica Neue,Helvetica,sans-serif; font-size:48px; text-anchor:middle;" transform="rotate(0, 1947.46, 636.796)" x="1947.46" y="636.796">-0.0554</text>
</g>
<g clip-path="url(#clip4100)">
<text style="fill:#000000; fill-opacity:1; font-family:Arial,Helvetica Neue,Helvetica,sans-serif; font-size:48px; text-anchor:middle;" transform="rotate(0, 2062.4, 485.549)" x="2062.4" y="485.549">pred:</text>
</g>
<g clip-path="url(#clip4100)">
<text style="fill:#000000; fill-opacity:1; font-family:Arial,Helvetica Neue,Helvetica,sans-serif; font-size:48px; text-anchor:middle;" transform="rotate(0, 2062.4, 537.389)" x="2062.4" y="537.389">-0.00568</text>
</g>
<path clip-path="url(#clip4100)" d="
M289.025 1516.18 L957.963 1516.18 L957.963 847.244 L289.025 847.244  Z
  " fill="#ffffff" fill-rule="evenodd" fill-opacity="1"/>
<defs>
  <clipPath id="clip4104">
    <rect x="289" y="847" width="670" height="670"/>
  </clipPath>
</defs>
<polyline clip-path="url(#clip4104)" style="stroke:#a52a2a; stroke-width:4; stroke-opacity:1; fill:none" points="
  615.627,942.807 615.206,950.262 613.984,957.662 612.02,965.012 609.372,972.315 606.101,979.575 602.266,986.797 597.926,993.984 593.141,1001.14 587.969,1008.27 
  582.471,1015.38 576.706,1022.47 570.733,1029.54 564.612,1036.61 558.401,1043.67 552.161,1050.73 545.95,1057.78 539.829,1064.85 533.856,1071.93 528.091,1079.01 
  522.593,1086.12 517.422,1093.25 512.636,1100.41 508.296,1107.6 504.461,1114.82 501.19,1122.08 498.543,1129.38 496.578,1136.73 495.356,1144.13 494.935,1151.59 
  
  "/>
<polyline clip-path="url(#clip4104)" style="stroke:#a52a2a; stroke-width:4; stroke-opacity:1; fill:none" points="
  615.627,942.807 616.046,950.379 617.262,957.905 619.216,965.389 621.851,972.832 625.105,980.239 628.921,987.614 633.239,994.96 638,1002.28 643.146,1009.58 
  648.616,1016.85 654.352,1024.12 660.295,1031.37 666.386,1038.61 672.565,1045.85 678.774,1053.08 684.953,1060.32 691.044,1067.56 696.986,1074.81 702.723,1082.08 
  708.193,1089.35 713.338,1096.65 718.099,1103.97 722.417,1111.32 726.233,1118.69 729.488,1126.1 732.122,1133.54 734.077,1141.02 735.293,1148.55 735.711,1156.12 
  
  "/>
<polyline clip-path="url(#clip4104)" style="stroke:#a52a2a; stroke-width:4; stroke-opacity:1; fill:none" points="
  494.935,1151.59 494.962,1160.03 495.042,1168.66 495.169,1177.45 495.341,1186.39 495.553,1195.47 495.802,1204.67 496.084,1213.99 496.394,1223.4 496.73,1232.9 
  497.086,1242.48 497.46,1252.11 497.848,1261.79 498.245,1271.5 498.648,1281.23 499.053,1290.97 499.456,1300.7 499.853,1310.42 500.24,1320.1 500.614,1329.73 
  500.971,1339.3 501.306,1348.8 501.617,1358.22 501.899,1367.54 502.147,1376.74 502.36,1385.82 502.531,1394.76 502.659,1403.55 502.738,1412.17 502.765,1420.62 
  
  "/>
<polyline clip-path="url(#clip4104)" style="stroke:#a52a2a; stroke-width:4; stroke-opacity:1; fill:none" points="
  494.935,1151.59 494.551,1158.78 493.433,1165.95 491.637,1173.09 489.216,1180.2 486.226,1187.29 482.719,1194.35 478.751,1201.4 474.376,1208.43 469.648,1215.44 
  464.621,1222.44 459.35,1229.43 453.889,1236.42 448.292,1243.4 442.614,1250.37 436.909,1257.34 431.231,1264.32 425.634,1271.3 420.173,1278.28 414.902,1285.27 
  409.875,1292.27 405.147,1299.29 400.772,1306.32 396.804,1313.36 393.298,1320.43 390.307,1327.52 387.886,1334.63 386.09,1341.76 384.972,1348.93 384.588,1356.13 
  
  "/>
<polyline clip-path="url(#clip4104)" style="stroke:#a52a2a; stroke-width:4; stroke-opacity:1; fill:none" points="
  735.711,1156.12 735.752,1163.58 735.871,1171.19 736.063,1178.94 736.321,1186.83 736.639,1194.84 737.012,1202.95 737.435,1211.17 737.901,1219.47 738.404,1227.85 
  738.94,1236.29 739.501,1244.78 740.083,1253.32 740.679,1261.88 741.284,1270.46 741.891,1279.04 742.496,1287.62 743.092,1296.18 743.673,1304.72 744.235,1313.21 
  744.77,1321.65 745.274,1330.03 745.74,1338.33 746.162,1346.55 746.536,1354.66 746.854,1362.67 747.112,1370.56 747.303,1378.31 747.422,1385.92 747.463,1393.38 
  
  "/>
<polyline clip-path="url(#clip4104)" style="stroke:#a52a2a; stroke-width:4; stroke-opacity:1; fill:none" points="
  735.711,1156.12 736.153,1161.83 737.436,1167.33 739.498,1172.64 742.277,1177.78 745.711,1182.76 749.737,1187.59 754.292,1192.3 759.315,1196.89 764.744,1201.39 
  770.515,1205.81 776.566,1210.15 782.836,1214.44 789.262,1218.7 795.781,1222.93 802.331,1227.16 808.85,1231.39 815.276,1235.65 821.545,1239.94 827.597,1244.29 
  833.368,1248.7 838.796,1253.2 843.819,1257.79 848.375,1262.5 852.401,1267.34 855.834,1272.32 858.613,1277.45 860.676,1282.77 861.959,1288.27 862.4,1293.97 
  
  "/>
<path clip-path="url(#clip4104)" d="
M707.626 942.807 L661.626 863.133 L569.628 863.133 L523.628 942.807 L569.628 1022.48 L661.626 1022.48 L707.626 942.807 L707.626 942.807  Z
  " fill="#66ffcc" fill-rule="evenodd" fill-opacity="1"/>
<polyline clip-path="url(#clip4104)" style="stroke:#a52a2a; stroke-width:0; stroke-opacity:0; fill:none" points="
  707.626,942.807 661.626,863.133 569.628,863.133 523.628,942.807 569.628,1022.48 661.626,1022.48 707.626,942.807 
  "/>
<path clip-path="url(#clip4104)" d="
M586.934 1151.59 L540.934 1071.91 L448.936 1071.91 L402.936 1151.59 L448.936 1231.26 L540.934 1231.26 L586.934 1151.59 L586.934 1151.59  Z
  " fill="#66ffcc" fill-rule="evenodd" fill-opacity="1"/>
<polyline clip-path="url(#clip4104)" style="stroke:#a52a2a; stroke-width:0; stroke-opacity:0; fill:none" points="
  586.934,1151.59 540.934,1071.91 448.936,1071.91 402.936,1151.59 448.936,1231.26 540.934,1231.26 586.934,1151.59 586.934,1151.59 
  "/>
<path clip-path="url(#clip4104)" d="
M832.931 1156.12 L784.321 1071.93 L687.102 1071.93 L638.492 1156.12 L687.102 1240.32 L784.321 1240.32 L832.931 1156.12 L832.931 1156.12  Z
  " fill="#66ffcc" fill-rule="evenodd" fill-opacity="1"/>
<polyline clip-path="url(#clip4104)" style="stroke:#a52a2a; stroke-width:0; stroke-opacity:0; fill:none" points="
  832.931,1156.12 784.321,1071.93 687.102,1071.93 638.492,1156.12 687.102,1240.32 784.321,1240.32 832.931,1156.12 
  "/>
<path clip-path="url(#clip4104)" d="
M589.468 1420.62 L546.117 1345.53 L459.414 1345.53 L416.062 1420.62 L459.414 1495.71 L546.117 1495.71 L589.468 1420.62 L589.468 1420.62  Z
  " fill="#66ffcc" fill-rule="evenodd" fill-opacity="1"/>
<polyline clip-path="url(#clip4104)" style="stroke:#a52a2a; stroke-width:0; stroke-opacity:0; fill:none" points="
  589.468,1420.62 546.117,1345.53 459.414,1345.53 416.062,1420.62 459.414,1495.71 546.117,1495.71 589.468,1420.62 
  "/>
<path clip-path="url(#clip4104)" d="
M476.587 1356.13 L430.587 1276.45 L338.589 1276.45 L292.589 1356.13 L338.589 1435.8 L430.587 1435.8 L476.587 1356.13 L476.587 1356.13  Z
  " fill="#66ffcc" fill-rule="evenodd" fill-opacity="1"/>
<polyline clip-path="url(#clip4104)" style="stroke:#a52a2a; stroke-width:0; stroke-opacity:0; fill:none" points="
  476.587,1356.13 430.587,1276.45 338.589,1276.45 292.589,1356.13 338.589,1435.8 430.587,1435.8 476.587,1356.13 
  "/>
<path clip-path="url(#clip4104)" d="
M828.788 1393.38 L788.126 1322.95 L706.801 1322.95 L666.138 1393.38 L706.801 1463.81 L788.126 1463.81 L828.788 1393.38 L828.788 1393.38  Z
  " fill="#66ffcc" fill-rule="evenodd" fill-opacity="1"/>
<polyline clip-path="url(#clip4104)" style="stroke:#a52a2a; stroke-width:0; stroke-opacity:0; fill:none" points="
  828.788,1393.38 788.126,1322.95 706.801,1322.95 666.138,1393.38 706.801,1463.81 788.126,1463.81 828.788,1393.38 
  "/>
<path clip-path="url(#clip4104)" d="
M949.103 1293.97 L905.752 1218.88 L819.049 1218.88 L775.697 1293.97 L819.049 1369.06 L905.752 1369.06 L949.103 1293.97 L949.103 1293.97  Z
  " fill="#66ffcc" fill-rule="evenodd" fill-opacity="1"/>
<polyline clip-path="url(#clip4104)" style="stroke:#a52a2a; stroke-width:0; stroke-opacity:0; fill:none" points="
  949.103,1293.97 905.752,1218.88 819.049,1218.88 775.697,1293.97 819.049,1369.06 905.752,1369.06 949.103,1293.97 
  "/>
<circle clip-path="url(#clip4104)" style="fill:#c68125; stroke:none; fill-opacity:0" cx="615.627" cy="942.807" r="2"/>
<circle clip-path="url(#clip4104)" style="fill:#c68125; stroke:none; fill-opacity:0" cx="494.935" cy="1151.59" r="2"/>
<circle clip-path="url(#clip4104)" style="fill:#c68125; stroke:none; fill-opacity:0" cx="735.711" cy="1156.12" r="2"/>
<circle clip-path="url(#clip4104)" style="fill:#c68125; stroke:none; fill-opacity:0" cx="502.765" cy="1420.62" r="2"/>
<circle clip-path="url(#clip4104)" style="fill:#c68125; stroke:none; fill-opacity:0" cx="384.588" cy="1356.13" r="2"/>
<circle clip-path="url(#clip4104)" style="fill:#c68125; stroke:none; fill-opacity:0" cx="747.463" cy="1393.38" r="2"/>
<circle clip-path="url(#clip4104)" style="fill:#c68125; stroke:none; fill-opacity:0" cx="862.4" cy="1293.97" r="2"/>
<g clip-path="url(#clip4100)">
<text style="fill:#000000; fill-opacity:1; font-family:Arial,Helvetica Neue,Helvetica,sans-serif; font-size:48px; text-anchor:middle;" transform="rotate(0, 615.627, 934.387)" x="615.627" y="934.387">feat: 2</text>
</g>
<g clip-path="url(#clip4100)">
<text style="fill:#000000; fill-opacity:1; font-family:Arial,Helvetica Neue,Helvetica,sans-serif; font-size:48px; text-anchor:middle;" transform="rotate(0, 615.627, 986.227)" x="615.627" y="986.227">&lt; 1.12</text>
</g>
<g clip-path="url(#clip4100)">
<text style="fill:#000000; fill-opacity:1; font-family:Arial,Helvetica Neue,Helvetica,sans-serif; font-size:48px; text-anchor:middle;" transform="rotate(0, 494.935, 1143.17)" x="494.935" y="1143.17">feat: 1</text>
</g>
<g clip-path="url(#clip4100)">
<text style="fill:#000000; fill-opacity:1; font-family:Arial,Helvetica Neue,Helvetica,sans-serif; font-size:48px; text-anchor:middle;" transform="rotate(0, 494.935, 1195.01)" x="494.935" y="1195.01">&lt; 0.15</text>
</g>
<g clip-path="url(#clip4100)">
<text style="fill:#000000; fill-opacity:1; font-family:Arial,Helvetica Neue,Helvetica,sans-serif; font-size:48px; text-anchor:middle;" transform="rotate(0, 735.711, 1147.7)" x="735.711" y="1147.7">feat: 1</text>
</g>
<g clip-path="url(#clip4100)">
<text style="fill:#000000; fill-opacity:1; font-family:Arial,Helvetica Neue,Helvetica,sans-serif; font-size:48px; text-anchor:middle;" transform="rotate(0, 735.711, 1199.54)" x="735.711" y="1199.54">&lt; 0.753</text>
</g>
<g clip-path="url(#clip4100)">
<text style="fill:#000000; fill-opacity:1; font-family:Arial,Helvetica Neue,Helvetica,sans-serif; font-size:48px; text-anchor:middle;" transform="rotate(0, 502.765, 1412.2)" x="502.765" y="1412.2">pred:</text>
</g>
<g clip-path="url(#clip4100)">
<text style="fill:#000000; fill-opacity:1; font-family:Arial,Helvetica Neue,Helvetica,sans-serif; font-size:48px; text-anchor:middle;" transform="rotate(0, 502.765, 1464.04)" x="502.765" y="1464.04">-0.0218</text>
</g>
<g clip-path="url(#clip4100)">
<text style="fill:#000000; fill-opacity:1; font-family:Arial,Helvetica Neue,Helvetica,sans-serif; font-size:48px; text-anchor:middle;" transform="rotate(0, 384.588, 1347.71)" x="384.588" y="1347.71">pred:</text>
</g>
<g clip-path="url(#clip4100)">
<text style="fill:#000000; fill-opacity:1; font-family:Arial,Helvetica Neue,Helvetica,sans-serif; font-size:48px; text-anchor:middle;" transform="rotate(0, 384.588, 1399.55)" x="384.588" y="1399.55">-0.00332</text>
</g>
<g clip-path="url(#clip4100)">
<text style="fill:#000000; fill-opacity:1; font-family:Arial,Helvetica Neue,Helvetica,sans-serif; font-size:48px; text-anchor:middle;" transform="rotate(0, 747.463, 1384.96)" x="747.463" y="1384.96">pred:</text>
</g>
<g clip-path="url(#clip4100)">
<text style="fill:#000000; fill-opacity:1; font-family:Arial,Helvetica Neue,Helvetica,sans-serif; font-size:48px; text-anchor:middle;" transform="rotate(0, 747.463, 1436.8)" x="747.463" y="1436.8">0.0114</text>
</g>
<g clip-path="url(#clip4100)">
<text style="fill:#000000; fill-opacity:1; font-family:Arial,Helvetica Neue,Helvetica,sans-serif; font-size:48px; text-anchor:middle;" transform="rotate(0, 862.4, 1285.55)" x="862.4" y="1285.55">pred:</text>
</g>
<g clip-path="url(#clip4100)">
<text style="fill:#000000; fill-opacity:1; font-family:Arial,Helvetica Neue,Helvetica,sans-serif; font-size:48px; text-anchor:middle;" transform="rotate(0, 862.4, 1337.39)" x="862.4" y="1337.39">0.00117</text>
</g>
<path clip-path="url(#clip4100)" d="
M1489.03 1516.18 L2157.96 1516.18 L2157.96 847.244 L1489.03 847.244  Z
  " fill="#ffffff" fill-rule="evenodd" fill-opacity="1"/>
<defs>
  <clipPath id="clip4105">
    <rect x="1489" y="847" width="670" height="670"/>
  </clipPath>
</defs>
<polyline clip-path="url(#clip4105)" style="stroke:#a52a2a; stroke-width:4; stroke-opacity:1; fill:none" points="
  1815.63,942.807 1815.21,950.262 1813.98,957.662 1812.02,965.012 1809.37,972.315 1806.1,979.575 1802.27,986.797 1797.93,993.984 1793.14,1001.14 1787.97,1008.27 
  1782.47,1015.38 1776.71,1022.47 1770.73,1029.54 1764.61,1036.61 1758.4,1043.67 1752.16,1050.73 1745.95,1057.78 1739.83,1064.85 1733.86,1071.93 1728.09,1079.01 
  1722.59,1086.12 1717.42,1093.25 1712.64,1100.41 1708.3,1107.6 1704.46,1114.82 1701.19,1122.08 1698.54,1129.38 1696.58,1136.73 1695.36,1144.13 1694.94,1151.59 
  
  "/>
<polyline clip-path="url(#clip4105)" style="stroke:#a52a2a; stroke-width:4; stroke-opacity:1; fill:none" points="
  1815.63,942.807 1816.05,950.379 1817.26,957.905 1819.22,965.389 1821.85,972.832 1825.11,980.239 1828.92,987.614 1833.24,994.96 1838,1002.28 1843.15,1009.58 
  1848.62,1016.85 1854.35,1024.12 1860.29,1031.37 1866.39,1038.61 1872.56,1045.85 1878.77,1053.08 1884.95,1060.32 1891.04,1067.56 1896.99,1074.81 1902.72,1082.08 
  1908.19,1089.35 1913.34,1096.65 1918.1,1103.97 1922.42,1111.32 1926.23,1118.69 1929.49,1126.1 1932.12,1133.54 1934.08,1141.02 1935.29,1148.55 1935.71,1156.12 
  
  "/>
<polyline clip-path="url(#clip4105)" style="stroke:#a52a2a; stroke-width:4; stroke-opacity:1; fill:none" points="
  1694.94,1151.59 1694.96,1160.03 1695.04,1168.66 1695.17,1177.45 1695.34,1186.39 1695.55,1195.47 1695.8,1204.67 1696.08,1213.99 1696.39,1223.4 1696.73,1232.9 
  1697.09,1242.48 1697.46,1252.11 1697.85,1261.79 1698.24,1271.5 1698.65,1281.23 1699.05,1290.97 1699.46,1300.7 1699.85,1310.42 1700.24,1320.1 1700.61,1329.73 
  1700.97,1339.3 1701.31,1348.8 1701.62,1358.22 1701.9,1367.54 1702.15,1376.74 1702.36,1385.82 1702.53,1394.76 1702.66,1403.55 1702.74,1412.17 1702.77,1420.62 
  
  "/>
<polyline clip-path="url(#clip4105)" style="stroke:#a52a2a; stroke-width:4; stroke-opacity:1; fill:none" points="
  1694.94,1151.59 1694.55,1158.78 1693.43,1165.95 1691.64,1173.09 1689.22,1180.2 1686.23,1187.29 1682.72,1194.35 1678.75,1201.4 1674.38,1208.43 1669.65,1215.44 
  1664.62,1222.44 1659.35,1229.43 1653.89,1236.42 1648.29,1243.4 1642.61,1250.37 1636.91,1257.34 1631.23,1264.32 1625.63,1271.3 1620.17,1278.28 1614.9,1285.27 
  1609.88,1292.27 1605.15,1299.29 1600.77,1306.32 1596.8,1313.36 1593.3,1320.43 1590.31,1327.52 1587.89,1334.63 1586.09,1341.76 1584.97,1348.93 1584.59,1356.13 
  
  "/>
<polyline clip-path="url(#clip4105)" style="stroke:#a52a2a; stroke-width:4; stroke-opacity:1; fill:none" points="
  1935.71,1156.12 1935.75,1163.58 1935.87,1171.19 1936.06,1178.94 1936.32,1186.83 1936.64,1194.84 1937.01,1202.95 1937.44,1211.17 1937.9,1219.47 1938.4,1227.85 
  1938.94,1236.29 1939.5,1244.78 1940.08,1253.32 1940.68,1261.88 1941.28,1270.46 1941.89,1279.04 1942.5,1287.62 1943.09,1296.18 1943.67,1304.72 1944.23,1313.21 
  1944.77,1321.65 1945.27,1330.03 1945.74,1338.33 1946.16,1346.55 1946.54,1354.66 1946.85,1362.67 1947.11,1370.56 1947.3,1378.31 1947.42,1385.92 1947.46,1393.38 
  
  "/>
<polyline clip-path="url(#clip4105)" style="stroke:#a52a2a; stroke-width:4; stroke-opacity:1; fill:none" points="
  1935.71,1156.12 1936.15,1161.83 1937.44,1167.33 1939.5,1172.64 1942.28,1177.78 1945.71,1182.76 1949.74,1187.59 1954.29,1192.3 1959.32,1196.89 1964.74,1201.39 
  1970.51,1205.81 1976.57,1210.15 1982.84,1214.44 1989.26,1218.7 1995.78,1222.93 2002.33,1227.16 2008.85,1231.39 2015.28,1235.65 2021.55,1239.94 2027.6,1244.29 
  2033.37,1248.7 2038.8,1253.2 2043.82,1257.79 2048.37,1262.5 2052.4,1267.34 2055.83,1272.32 2058.61,1277.45 2060.68,1282.77 2061.96,1288.27 2062.4,1293.97 
  
  "/>
<path clip-path="url(#clip4105)" d="
M1907.63 942.807 L1861.63 863.133 L1769.63 863.133 L1723.63 942.807 L1769.63 1022.48 L1861.63 1022.48 L1907.63 942.807 L1907.63 942.807  Z
  " fill="#66ffcc" fill-rule="evenodd" fill-opacity="1"/>
<polyline clip-path="url(#clip4105)" style="stroke:#a52a2a; stroke-width:0; stroke-opacity:0; fill:none" points="
  1907.63,942.807 1861.63,863.133 1769.63,863.133 1723.63,942.807 1769.63,1022.48 1861.63,1022.48 1907.63,942.807 
  "/>
<path clip-path="url(#clip4105)" d="
M1786.93 1151.59 L1740.93 1071.91 L1648.94 1071.91 L1602.94 1151.59 L1648.94 1231.26 L1740.93 1231.26 L1786.93 1151.59 L1786.93 1151.59  Z
  " fill="#66ffcc" fill-rule="evenodd" fill-opacity="1"/>
<polyline clip-path="url(#clip4105)" style="stroke:#a52a2a; stroke-width:0; stroke-opacity:0; fill:none" points="
  1786.93,1151.59 1740.93,1071.91 1648.94,1071.91 1602.94,1151.59 1648.94,1231.26 1740.93,1231.26 1786.93,1151.59 1786.93,1151.59 
  "/>
<path clip-path="url(#clip4105)" d="
M2032.93 1156.12 L1984.32 1071.93 L1887.1 1071.93 L1838.49 1156.12 L1887.1 1240.32 L1984.32 1240.32 L2032.93 1156.12 L2032.93 1156.12  Z
  " fill="#66ffcc" fill-rule="evenodd" fill-opacity="1"/>
<polyline clip-path="url(#clip4105)" style="stroke:#a52a2a; stroke-width:0; stroke-opacity:0; fill:none" points="
  2032.93,1156.12 1984.32,1071.93 1887.1,1071.93 1838.49,1156.12 1887.1,1240.32 1984.32,1240.32 2032.93,1156.12 
  "/>
<path clip-path="url(#clip4105)" d="
M1789.47 1420.62 L1746.12 1345.53 L1659.41 1345.53 L1616.06 1420.62 L1659.41 1495.71 L1746.12 1495.71 L1789.47 1420.62 L1789.47 1420.62  Z
  " fill="#66ffcc" fill-rule="evenodd" fill-opacity="1"/>
<polyline clip-path="url(#clip4105)" style="stroke:#a52a2a; stroke-width:0; stroke-opacity:0; fill:none" points="
  1789.47,1420.62 1746.12,1345.53 1659.41,1345.53 1616.06,1420.62 1659.41,1495.71 1746.12,1495.71 1789.47,1420.62 
  "/>
<path clip-path="url(#clip4105)" d="
M1676.59 1356.13 L1630.59 1276.45 L1538.59 1276.45 L1492.59 1356.13 L1538.59 1435.8 L1630.59 1435.8 L1676.59 1356.13 L1676.59 1356.13  Z
  " fill="#66ffcc" fill-rule="evenodd" fill-opacity="1"/>
<polyline clip-path="url(#clip4105)" style="stroke:#a52a2a; stroke-width:0; stroke-opacity:0; fill:none" points="
  1676.59,1356.13 1630.59,1276.45 1538.59,1276.45 1492.59,1356.13 1538.59,1435.8 1630.59,1435.8 1676.59,1356.13 
  "/>
<path clip-path="url(#clip4105)" d="
M2034.17 1393.38 L1990.81 1318.29 L1904.11 1318.29 L1860.76 1393.38 L1904.11 1468.46 L1990.81 1468.46 L2034.17 1393.38 L2034.17 1393.38  Z
  " fill="#66ffcc" fill-rule="evenodd" fill-opacity="1"/>
<polyline clip-path="url(#clip4105)" style="stroke:#a52a2a; stroke-width:0; stroke-opacity:0; fill:none" points="
  2034.17,1393.38 1990.81,1318.29 1904.11,1318.29 1860.76,1393.38 1904.11,1468.46 1990.81,1468.46 2034.17,1393.38 
  "/>
<path clip-path="url(#clip4105)" d="
M2143.73 1293.97 L2103.06 1223.54 L2021.74 1223.54 L1981.08 1293.97 L2021.74 1364.4 L2103.06 1364.4 L2143.73 1293.97 L2143.73 1293.97  Z
  " fill="#66ffcc" fill-rule="evenodd" fill-opacity="1"/>
<polyline clip-path="url(#clip4105)" style="stroke:#a52a2a; stroke-width:0; stroke-opacity:0; fill:none" points="
  2143.73,1293.97 2103.06,1223.54 2021.74,1223.54 1981.08,1293.97 2021.74,1364.4 2103.06,1364.4 2143.73,1293.97 
  "/>
<circle clip-path="url(#clip4105)" style="fill:#c68125; stroke:none; fill-opacity:0" cx="1815.63" cy="942.807" r="2"/>
<circle clip-path="url(#clip4105)" style="fill:#c68125; stroke:none; fill-opacity:0" cx="1694.94" cy="1151.59" r="2"/>
<circle clip-path="url(#clip4105)" style="fill:#c68125; stroke:none; fill-opacity:0" cx="1935.71" cy="1156.12" r="2"/>
<circle clip-path="url(#clip4105)" style="fill:#c68125; stroke:none; fill-opacity:0" cx="1702.77" cy="1420.62" r="2"/>
<circle clip-path="url(#clip4105)" style="fill:#c68125; stroke:none; fill-opacity:0" cx="1584.59" cy="1356.13" r="2"/>
<circle clip-path="url(#clip4105)" style="fill:#c68125; stroke:none; fill-opacity:0" cx="1947.46" cy="1393.38" r="2"/>
<circle clip-path="url(#clip4105)" style="fill:#c68125; stroke:none; fill-opacity:0" cx="2062.4" cy="1293.97" r="2"/>
<g clip-path="url(#clip4100)">
<text style="fill:#000000; fill-opacity:1; font-family:Arial,Helvetica Neue,Helvetica,sans-serif; font-size:48px; text-anchor:middle;" transform="rotate(0, 1815.63, 934.387)" x="1815.63" y="934.387">feat: 1</text>
</g>
<g clip-path="url(#clip4100)">
<text style="fill:#000000; fill-opacity:1; font-family:Arial,Helvetica Neue,Helvetica,sans-serif; font-size:48px; text-anchor:middle;" transform="rotate(0, 1815.63, 986.227)" x="1815.63" y="986.227">&lt; 1.85</text>
</g>
<g clip-path="url(#clip4100)">
<text style="fill:#000000; fill-opacity:1; font-family:Arial,Helvetica Neue,Helvetica,sans-serif; font-size:48px; text-anchor:middle;" transform="rotate(0, 1694.94, 1143.17)" x="1694.94" y="1143.17">feat: 1</text>
</g>
<g clip-path="url(#clip4100)">
<text style="fill:#000000; fill-opacity:1; font-family:Arial,Helvetica Neue,Helvetica,sans-serif; font-size:48px; text-anchor:middle;" transform="rotate(0, 1694.94, 1195.01)" x="1694.94" y="1195.01">&lt; 1.24</text>
</g>
<g clip-path="url(#clip4100)">
<text style="fill:#000000; fill-opacity:1; font-family:Arial,Helvetica Neue,Helvetica,sans-serif; font-size:48px; text-anchor:middle;" transform="rotate(0, 1935.71, 1147.7)" x="1935.71" y="1147.7">feat: 2</text>
</g>
<g clip-path="url(#clip4100)">
<text style="fill:#000000; fill-opacity:1; font-family:Arial,Helvetica Neue,Helvetica,sans-serif; font-size:48px; text-anchor:middle;" transform="rotate(0, 1935.71, 1199.54)" x="1935.71" y="1199.54">&lt; 0.765</text>
</g>
<g clip-path="url(#clip4100)">
<text style="fill:#000000; fill-opacity:1; font-family:Arial,Helvetica Neue,Helvetica,sans-serif; font-size:48px; text-anchor:middle;" transform="rotate(0, 1702.77, 1412.2)" x="1702.77" y="1412.2">pred:</text>
</g>
<g clip-path="url(#clip4100)">
<text style="fill:#000000; fill-opacity:1; font-family:Arial,Helvetica Neue,Helvetica,sans-serif; font-size:48px; text-anchor:middle;" transform="rotate(0, 1702.77, 1464.04)" x="1702.77" y="1464.04">0.00159</text>
</g>
<g clip-path="url(#clip4100)">
<text style="fill:#000000; fill-opacity:1; font-family:Arial,Helvetica Neue,Helvetica,sans-serif; font-size:48px; text-anchor:middle;" transform="rotate(0, 1584.59, 1347.71)" x="1584.59" y="1347.71">pred:</text>
</g>
<g clip-path="url(#clip4100)">
<text style="fill:#000000; fill-opacity:1; font-family:Arial,Helvetica Neue,Helvetica,sans-serif; font-size:48px; text-anchor:middle;" transform="rotate(0, 1584.59, 1399.55)" x="1584.59" y="1399.55">-0.00478</text>
</g>
<g clip-path="url(#clip4100)">
<text style="fill:#000000; fill-opacity:1; font-family:Arial,Helvetica Neue,Helvetica,sans-serif; font-size:48px; text-anchor:middle;" transform="rotate(0, 1947.46, 1384.96)" x="1947.46" y="1384.96">pred:</text>
</g>
<g clip-path="url(#clip4100)">
<text style="fill:#000000; fill-opacity:1; font-family:Arial,Helvetica Neue,Helvetica,sans-serif; font-size:48px; text-anchor:middle;" transform="rotate(0, 1947.46, 1436.8)" x="1947.46" y="1436.8">0.00552</text>
</g>
<g clip-path="url(#clip4100)">
<text style="fill:#000000; fill-opacity:1; font-family:Arial,Helvetica Neue,Helvetica,sans-serif; font-size:48px; text-anchor:middle;" transform="rotate(0, 2062.4, 1285.55)" x="2062.4" y="1285.55">pred:</text>
</g>
<g clip-path="url(#clip4100)">
<text style="fill:#000000; fill-opacity:1; font-family:Arial,Helvetica Neue,Helvetica,sans-serif; font-size:48px; text-anchor:middle;" transform="rotate(0, 2062.4, 1337.39)" x="2062.4" y="1337.39">0.0118</text>
</g>
</svg>
